<svg width="309" height="94" viewBox="0 0 309 94" fill="none" xmlns="http://www.w3.org/2000/svg">
<path d="M10 0.5H299C304.247 0.5 308.5 4.7533 308.5 10V84C308.5 89.2467 304.247 93.5 299 93.5H10C4.7533 93.5 0.5 89.2467 0.5 84V10C0.5 4.75329 4.7533 0.5 10 0.5Z" stroke="black"/>
<path d="M121.023 30.8438C120.391 31.6016 119.496 32.1914 118.34 32.6133C117.184 33.0273 115.902 33.2344 114.496 33.2344C113.02 33.2344 111.723 32.9141 110.605 32.2734C109.496 31.625 108.637 30.6875 108.027 29.4609C107.426 28.2344 107.117 26.793 107.102 25.1367V23.9766C107.102 22.2734 107.387 20.8008 107.957 19.5586C108.535 18.3086 109.363 17.3555 110.441 16.6992C111.527 16.0352 112.797 15.7031 114.25 15.7031C116.273 15.7031 117.855 16.1875 118.996 17.1562C120.137 18.1172 120.812 19.5195 121.023 21.3633H117.602C117.445 20.3867 117.098 19.6719 116.559 19.2188C116.027 18.7656 115.293 18.5391 114.355 18.5391C113.16 18.5391 112.25 18.9883 111.625 19.8867C111 20.7852 110.684 22.1211 110.676 23.8945V24.9844C110.676 26.7734 111.016 28.125 111.695 29.0391C112.375 29.9531 113.371 30.4102 114.684 30.4102C116.004 30.4102 116.945 30.1289 117.508 29.5664V26.625H114.309V24.0352H121.023V30.8438ZM129.496 33.2344C127.637 33.2344 126.121 32.6641 124.949 31.5234C123.785 30.3828 123.203 28.8633 123.203 26.9648V26.6367C123.203 25.3633 123.449 24.2266 123.941 23.2266C124.434 22.2188 125.129 21.4453 126.027 20.9062C126.934 20.3594 127.965 20.0859 129.121 20.0859C130.855 20.0859 132.219 20.6328 133.211 21.7266C134.211 22.8203 134.711 24.3711 134.711 26.3789V27.7617H126.637C126.746 28.5898 127.074 29.2539 127.621 29.7539C128.176 30.2539 128.875 30.5039 129.719 30.5039C131.023 30.5039 132.043 30.0312 132.777 29.0859L134.441 30.9492C133.934 31.668 133.246 32.2305 132.379 32.6367C131.512 33.0352 130.551 33.2344 129.496 33.2344ZM129.109 22.8281C128.438 22.8281 127.891 23.0547 127.469 23.5078C127.055 23.9609 126.789 24.6094 126.672 25.4531H131.383V25.1836C131.367 24.4336 131.164 23.8555 130.773 23.4492C130.383 23.0352 129.828 22.8281 129.109 22.8281ZM140.699 17.2031V20.3203H142.867V22.8047H140.699V29.1328C140.699 29.6016 140.789 29.9375 140.969 30.1406C141.148 30.3438 141.492 30.4453 142 30.4453C142.375 30.4453 142.707 30.418 142.996 30.3633V32.9297C142.332 33.1328 141.648 33.2344 140.945 33.2344C138.57 33.2344 137.359 32.0352 137.312 29.6367V22.8047H135.461V20.3203H137.312V17.2031H140.699ZM154.305 33H150.906V20.3203H154.305V33ZM150.707 17.0391C150.707 16.5312 150.875 16.1133 151.211 15.7852C151.555 15.457 152.02 15.293 152.605 15.293C153.184 15.293 153.645 15.457 153.988 15.7852C154.332 16.1133 154.504 16.5312 154.504 17.0391C154.504 17.5547 154.328 17.9766 153.977 18.3047C153.633 18.6328 153.176 18.7969 152.605 18.7969C152.035 18.7969 151.574 18.6328 151.223 18.3047C150.879 17.9766 150.707 17.5547 150.707 17.0391ZM161.16 17.2031V20.3203H163.328V22.8047H161.16V29.1328C161.16 29.6016 161.25 29.9375 161.43 30.1406C161.609 30.3438 161.953 30.4453 162.461 30.4453C162.836 30.4453 163.168 30.418 163.457 30.3633V32.9297C162.793 33.1328 162.109 33.2344 161.406 33.2344C159.031 33.2344 157.82 32.0352 157.773 29.6367V22.8047H155.922V20.3203H157.773V17.2031H161.16ZM170.664 26.543C170.664 25.2852 170.906 24.1641 171.391 23.1797C171.875 22.1953 172.57 21.4336 173.477 20.8945C174.391 20.3555 175.449 20.0859 176.652 20.0859C178.363 20.0859 179.758 20.6094 180.836 21.6562C181.922 22.7031 182.527 24.125 182.652 25.9219L182.676 26.7891C182.676 28.7344 182.133 30.2969 181.047 31.4766C179.961 32.6484 178.504 33.2344 176.676 33.2344C174.848 33.2344 173.387 32.6484 172.293 31.4766C171.207 30.3047 170.664 28.7109 170.664 26.6953V26.543ZM174.051 26.7891C174.051 27.9922 174.277 28.9141 174.73 29.5547C175.184 30.1875 175.832 30.5039 176.676 30.5039C177.496 30.5039 178.137 30.1914 178.598 29.5664C179.059 28.9336 179.289 27.9258 179.289 26.543C179.289 25.3633 179.059 24.4492 178.598 23.8008C178.137 23.1523 177.488 22.8281 176.652 22.8281C175.824 22.8281 175.184 23.1523 174.73 23.8008C174.277 24.4414 174.051 25.4375 174.051 26.7891ZM187.879 20.3203L187.984 21.7852C188.891 20.6523 190.105 20.0859 191.629 20.0859C192.973 20.0859 193.973 20.4805 194.629 21.2695C195.285 22.0586 195.621 23.2383 195.637 24.8086V33H192.25V24.8906C192.25 24.1719 192.094 23.6523 191.781 23.332C191.469 23.0039 190.949 22.8398 190.223 22.8398C189.27 22.8398 188.555 23.2461 188.078 24.0586V33H184.691V20.3203H187.879Z" fill="white"/>
<path fill-rule="evenodd" clip-rule="evenodd" d="M22.3809 8.19049C21.504 9.12848 21 10.5722 21 12.4481V79.1755C21 81.0515 21.504 82.4952 22.4137 83.4005L22.6514 83.6004L60.2185 46.2115V45.3714L22.6186 7.99066L22.3809 8.19049V8.19049Z" fill="url(#paint0_linear)"/>
<path fill-rule="evenodd" clip-rule="evenodd" d="M72.7163 58.7234L60.1857 46.2482V45.3755L72.7204 32.9003L72.9908 33.0675L87.8161 41.4522C92.0613 43.8339 92.0613 47.7571 87.8161 50.1714L72.9908 58.5562C72.9867 58.5562 72.7163 58.7234 72.7163 58.7234V58.7234Z" fill="url(#paint1_linear)"/>
<path fill-rule="evenodd" clip-rule="evenodd" d="M72.9868 58.5562L60.1857 45.8118L22.3809 83.4372C23.7618 84.9136 26.0852 85.0808 28.6831 83.6371L72.9868 58.5562Z" fill="url(#paint2_linear)"/>
<path fill-rule="evenodd" clip-rule="evenodd" d="M72.9868 33.0718L28.6831 8.02357C26.0893 6.54726 23.7618 6.7471 22.3809 8.2234L60.1816 45.8121L72.9868 33.0718Z" fill="url(#paint3_linear)"/>
<path opacity="0.2" fill-rule="evenodd" clip-rule="evenodd" d="M72.7163 58.287L28.7158 83.1681C26.2573 84.5751 24.065 84.4772 22.6513 83.2007L22.4137 83.4373L22.6513 83.6371C24.065 84.9095 26.2573 85.0114 28.7158 83.6045L73.0195 58.5562L72.7163 58.287V58.287Z" fill="black"/>
<path opacity="0.12" fill-rule="evenodd" clip-rule="evenodd" d="M87.8121 49.735L72.6836 58.287L72.9541 58.5562L87.7793 50.1714C89.9019 48.9642 90.9468 47.3901 90.9468 45.8118C90.8116 47.2555 89.7339 48.6298 87.8121 49.735V49.735Z" fill="black"/>
<path opacity="0.25" fill-rule="evenodd" clip-rule="evenodd" d="M28.6831 8.45965L87.8121 41.8927C89.7339 42.9652 90.8115 44.3722 90.9796 45.8159C90.9796 44.2417 89.9347 42.6635 87.8121 41.4563L28.6831 8.02329C24.4379 5.609 21 7.61955 21 12.4481V12.8845C21 8.05591 24.4379 6.07799 28.6831 8.45965Z" fill="white"/>
<path fill-rule="evenodd" clip-rule="evenodd" d="M104.006 58.3492C104.006 49.8886 110.831 43 118.95 43C123.439 43 126.633 44.8367 129.043 47.2287L126.205 50.1856C124.483 48.5005 122.147 47.1932 118.947 47.1932C113.018 47.1932 108.383 52.1676 108.383 58.346C108.383 64.5244 113.018 69.5052 118.944 69.5052C122.788 69.5052 124.975 67.8977 126.379 66.4321C127.528 65.2345 128.281 63.514 128.572 61.1543H118.95V56.9708H132.494C132.636 57.7197 132.711 58.6171 132.711 59.5888C132.711 62.7296 131.883 66.6258 129.222 69.3987C126.633 72.2071 123.33 73.7049 118.947 73.7049C110.824 73.7049 104 66.8227 104 58.3557L104.006 58.3492ZM143.658 53.9333C138.414 53.9333 134.132 58.091 134.132 63.8142C134.132 69.5084 138.41 73.6952 143.658 73.6952C148.906 73.6952 153.178 69.502 153.178 63.811C153.178 58.0877 148.903 53.93 143.658 53.9333V53.9333ZM143.658 69.8086C140.787 69.8086 138.305 67.3392 138.305 63.8174C138.305 60.2602 140.783 57.8263 143.658 57.8263C146.53 57.8263 149.008 60.257 149.008 63.8174C149.008 67.336 146.533 69.8086 143.658 69.8086ZM164.429 53.9333C159.184 53.9333 154.909 58.091 154.909 63.8142C154.909 69.5084 159.184 73.6952 164.429 73.6952C169.674 73.6952 173.949 69.502 173.949 63.811C173.949 58.0877 169.677 53.93 164.429 53.9333V53.9333ZM164.429 69.8086C161.557 69.8086 159.076 67.3392 159.076 63.8174C159.076 60.2602 161.554 57.8263 164.429 57.8263C167.301 57.8263 169.782 60.257 169.782 63.8174C169.782 67.336 167.301 69.8086 164.429 69.8086ZM189.921 54.5337V56.1412H189.778C188.846 54.9759 187.049 53.9301 184.788 53.9301C180.045 53.9301 175.693 58.275 175.693 63.8562C175.693 69.3922 180.042 73.7016 184.788 73.7016C187.049 73.7016 188.846 72.6557 189.778 71.4582H189.921V72.8785C189.921 76.6585 187.982 78.6824 184.856 78.6824C182.303 78.6824 180.723 76.7715 180.076 75.1671L176.445 76.7392C177.486 79.3571 180.256 82.5787 184.853 82.5787C189.735 82.5787 193.867 79.5798 193.867 72.2813V54.5305L189.921 54.5337ZM185.144 69.8086C182.272 69.8086 179.859 67.2972 179.859 63.8562C179.859 60.3764 182.269 57.8295 185.144 57.8295C187.982 57.8295 190.209 60.3732 190.209 63.8562C190.212 67.2972 187.985 69.8086 185.144 69.8086ZM196.745 44.0491H200.915V73.1012H196.745V44.0491ZM212.343 69.8086C210.224 69.8086 208.712 68.795 207.749 66.8163L220.431 61.3448L219.994 60.2214C219.208 58.0167 216.797 53.9333 211.875 53.9333C206.99 53.9333 202.929 57.9392 202.929 63.8174C202.929 69.3535 206.953 73.6984 212.343 73.6984C216.692 73.6984 219.208 70.932 220.248 69.318L217.014 67.0745C215.933 68.724 214.459 69.8119 212.343 69.8086V69.8086ZM212.018 57.752C213.669 57.752 215.069 58.6139 215.537 59.847L207.055 63.5172C206.95 59.6985 209.896 57.752 212.018 57.752V57.752Z" fill="white"/>
<path fill-rule="evenodd" clip-rule="evenodd" d="M238.727 44.0491H228.758V73.1012H232.919V62.0969H238.73C243.343 62.0969 247.878 58.6171 247.878 53.0714C247.878 47.5353 243.346 44.0523 238.736 44.0523L238.727 44.0491ZM238.835 58.0522H232.919V48.0906H238.835C241.946 48.0906 243.717 50.7795 243.717 53.0714C243.717 55.3245 241.946 58.0522 238.835 58.0522V58.0522ZM254.331 73.1012V44.0491H250.17V73.1012H254.331ZM273.02 73.0496V61.9129C273.02 56.7546 269.321 53.8784 264.547 53.8784C261.539 53.8784 258.42 55.2632 257.128 58.3266L260.821 59.9309C261.61 58.3266 263.079 57.8004 264.625 57.8004C266.775 57.8004 268.962 59.1465 268.996 61.5417V61.8419C268.243 61.3932 266.632 60.7186 264.656 60.7186C260.675 60.7186 256.623 62.9975 256.623 67.2585C256.623 71.1483 259.888 73.65 263.547 73.65C266.347 73.65 267.887 72.3426 268.853 70.8126H268.996V73.056H273.017L273.02 73.0496ZM264.052 69.8022C262.688 69.8022 260.786 69.092 260.786 67.3392C260.786 65.0957 263.156 64.2306 265.201 64.2306C267.032 64.2306 267.89 64.6406 269.005 65.2023C268.686 67.8105 266.57 69.7699 264.052 69.8022V69.8022ZM287.651 54.5143L282.88 67.1068H282.738L277.787 54.5143H273.305L280.727 72.1199L276.492 81.9105H280.832L292.273 54.5143H287.651Z" fill="white"/>
<defs>
<linearGradient id="paint0_linear" x1="56.8452" y1="11.7309" x2="-3.29286" y2="27.8311" gradientUnits="userSpaceOnUse">
<stop stop-color="#00A0FF"/>
<stop offset="0.007" stop-color="#00A1FF"/>
<stop offset="0.26" stop-color="#00BEFF"/>
<stop offset="0.512" stop-color="#00D2FF"/>
<stop offset="0.76" stop-color="#00DFFF"/>
<stop offset="1" stop-color="#00E3FF"/>
</linearGradient>
<linearGradient id="paint1_linear" x1="93.3402" y1="45.8137" x2="19.9682" y2="45.8137" gradientUnits="userSpaceOnUse">
<stop stop-color="#FFE000"/>
<stop offset="0.409" stop-color="#FFBD00"/>
<stop offset="0.775" stop-color="#FFA500"/>
<stop offset="1" stop-color="#FF9C00"/>
</linearGradient>
<linearGradient id="paint2_linear" x1="66.026" y1="52.7448" x2="18.0552" y2="133.868" gradientUnits="userSpaceOnUse">
<stop stop-color="#FF3A44"/>
<stop offset="1" stop-color="#C31162"/>
</linearGradient>
<linearGradient id="paint3_linear" x1="12.8645" y1="-14.006" x2="34.2656" y2="22.2246" gradientUnits="userSpaceOnUse">
<stop stop-color="#32A071"/>
<stop offset="0.069" stop-color="#2DA771"/>
<stop offset="0.476" stop-color="#15CF74"/>
<stop offset="0.801" stop-color="#06E775"/>
<stop offset="1" stop-color="#00F076"/>
</linearGradient>
</defs>
</svg>
