<svg width="20" height="20" viewBox="0 0 20 20" fill="none" xmlns="http://www.w3.org/2000/svg">
<path d="M10 6.66666V10.8333H14.1667V9.16666H11.6667V6.66666H10Z" fill="#515D6B"/>
<path d="M17.7433 7.08084C17.3674 6.18921 16.8217 5.37918 16.1366 4.69584C15.0996 3.65881 13.7814 2.94842 12.345 2.6525C11.348 2.44957 10.3203 2.44957 9.32329 2.6525C7.88552 2.94653 6.56619 3.6575 5.52996 4.69667C4.84653 5.38074 4.30107 6.18988 3.92329 7.08C3.53255 8.00384 3.33189 8.99693 3.33329 10L3.33413 10.0208H1.66663L4.16663 13.3333L6.66663 10.0208H5.00079L4.99996 10C4.99756 8.83781 5.34451 7.70173 5.99579 6.73917C6.41589 6.11807 6.95075 5.58293 7.57163 5.1625C8.20324 4.737 8.91173 4.43867 9.65746 4.28417C11.1729 3.97259 12.7501 4.27553 14.0422 5.12639C15.3344 5.97726 16.2358 7.30641 16.5483 8.82167C16.7055 9.59824 16.7055 10.3984 16.5483 11.175C16.3958 11.9214 16.0973 12.6302 15.67 13.2608C15.4616 13.57 15.2225 13.8608 14.9583 14.1242C14.4259 14.6559 13.7965 15.0805 13.1041 15.375C12.7515 15.5241 12.385 15.638 12.01 15.715C11.2337 15.8721 10.4338 15.8721 9.65746 15.715C8.91187 15.5621 8.20368 15.264 7.57329 14.8375C7.26325 14.628 6.97389 14.3894 6.70913 14.125L5.53079 15.3033C6.22673 16.0002 7.05332 16.553 7.96321 16.9299C8.8731 17.3069 9.84841 17.5006 10.8333 17.5C11.8358 17.4996 12.8282 17.2993 13.7525 16.9108C15.0922 16.344 16.2383 15.4002 17.0516 14.1942C17.8887 12.9558 18.3351 11.4948 18.3333 10C18.3354 8.99713 18.1347 8.00418 17.7433 7.08084Z" fill="#515D6B"/>
</svg>
