<svg width="899" height="832" viewBox="0 0 899 832" fill="none" xmlns="http://www.w3.org/2000/svg">
<g clip-path="url(#clip0)">
<path d="M710.504 26.4648C710.504 26.4648 736.969 6.35154 793.075 33.8749C849.18 61.3983 889.406 38.1093 889.406 38.1093L883.055 130.207C883.055 130.207 825.891 152.437 772.961 120.679C720.032 88.9217 703.094 120.679 703.094 120.679L710.504 26.4648Z" fill="#2DAD4A"/>
<path d="M761.317 446.726C761.304 508.696 742.741 569.244 708.017 620.572C673.294 671.9 624 711.658 566.483 734.726C555.988 738.946 545.265 742.575 534.365 745.598C479.939 760.651 422.448 760.659 368.018 745.619C360.576 743.555 353.251 741.223 346.042 738.622C329.646 732.725 313.784 725.44 298.627 716.847C204.508 663.61 140.982 562.589 140.982 446.726C140.936 366.946 171.651 290.22 226.736 232.511C281.821 174.801 357.036 140.551 436.731 136.887C441.516 136.664 446.322 136.555 451.149 136.558C456.453 136.558 461.728 136.689 466.975 136.95C546.399 140.998 621.233 175.402 676.012 233.054C730.792 290.706 761.33 367.199 761.317 446.726V446.726Z" fill="#2DAD4A"/>
<path d="M841.254 137.859C820.88 137.86 796.591 133.774 773.21 119.745C751.816 106.909 734.083 102.668 720.502 107.14C716.971 108.249 713.697 110.055 710.875 112.45C708.053 114.845 705.74 117.782 704.071 121.086L701.32 127.701L712.329 18.7724L712.614 18.5021C713.55 17.6131 736.202 -2.92923 795.477 26.1505C853.532 54.6302 895.868 30.9028 896.286 30.6594L898.009 29.6649L897.873 31.6487L891.114 129.65L890.488 129.893C890.134 130.031 869.446 137.858 841.254 137.859ZM731.77 103.303C743.829 103.303 758.074 108.195 774.3 117.93C826.145 149.037 882.549 130.479 889.095 128.149L895.632 33.371C887.038 37.5144 847.047 53.8068 794.545 28.0516C740.066 1.32478 717.098 17.5753 714.354 19.7979L704.626 116.046C708.426 110.901 713.749 107.081 719.84 105.129C723.694 103.887 727.722 103.271 731.77 103.303V103.303Z" fill="#3F3D56"/>
<path d="M444.798 755.835C414.883 755.854 385.105 751.816 356.276 743.829C348.296 741.616 340.423 739.109 332.873 736.378C315.416 730.094 298.526 722.337 282.384 713.19C230.071 683.601 186.818 640.306 157.28 587.964C127.741 535.622 113.037 476.216 114.748 416.139C116.46 356.062 134.523 297.589 166.993 247.014C199.463 196.439 245.111 155.676 299.023 129.113C339.704 109.024 384.119 97.6188 429.446 95.6227C439.671 95.1461 450.501 95.1497 461.647 95.6899C536.842 99.5589 608.459 128.999 664.635 179.133C720.812 229.267 758.176 297.087 770.54 371.359C782.904 445.631 769.525 521.899 732.62 587.528C695.715 653.157 637.497 704.21 567.611 732.23C556.433 736.72 545.015 740.585 533.408 743.808C504.552 751.807 474.743 755.853 444.798 755.835ZM444.798 97.3905C439.629 97.3905 434.497 97.5073 429.543 97.7378C384.508 99.7206 340.377 111.052 299.958 131.013C242.173 159.479 194.037 204.313 161.545 259.935C129.053 315.556 113.64 379.506 117.225 443.823C120.81 508.139 143.235 569.98 181.708 621.646C220.18 673.311 273.001 712.519 333.592 734.386C341.092 737.101 348.914 739.591 356.842 741.789C414.431 757.701 475.258 757.694 532.843 741.767C544.374 738.566 555.718 734.726 566.822 730.265C636.276 702.438 694.137 651.716 730.818 586.504C767.499 521.292 780.799 445.504 768.514 371.699C756.228 297.894 719.095 230.502 663.266 180.689C607.438 130.876 536.266 101.633 461.543 97.8045C455.866 97.53 450.232 97.3905 444.798 97.3905V97.3905Z" fill="#3F3D56"/>
<path d="M484.355 827.459H0V829.576H484.355V827.459Z" fill="#3F3D56"/>
<path d="M82.7433 829.234L81.6071 828.809C81.3575 828.715 56.5095 819.194 44.8697 797.608C33.2293 776.021 38.929 750.029 38.9879 749.77L39.2562 748.586L40.3918 749.012C40.6415 749.106 65.4889 758.626 77.1293 780.213C88.7697 801.8 83.0699 827.791 83.011 828.051L82.7433 829.234ZM46.7336 796.603C56.5746 814.855 76.2103 824.21 81.1854 826.346C82.1313 821.014 85.0977 799.451 75.2654 781.217C65.4341 762.986 45.7907 753.615 40.8136 751.474C39.8673 756.81 36.9018 778.37 46.7336 796.603H46.7336Z" fill="#3F3D56"/>
<path d="M53.7653 790.036C74.6836 802.621 82.74 827.619 82.74 827.619C82.74 827.619 56.8809 832.212 35.9625 819.627C15.0441 807.041 6.98782 782.044 6.98782 782.044C6.98782 782.044 32.8468 777.451 53.7653 790.036Z" fill="#2DAD4A"/>
<path d="M362.457 253.671C417.184 253.671 461.549 209.306 461.549 154.579C461.549 99.8522 417.184 55.4871 362.457 55.4871C307.73 55.4871 263.365 99.8522 263.365 154.579C263.365 209.306 307.73 253.671 362.457 253.671Z" fill="#2F2E41"/>
<path d="M383.089 252.378C421.863 252.378 453.295 220.946 453.295 182.172C453.295 143.398 421.863 111.966 383.089 111.966C344.315 111.966 312.883 143.398 312.883 182.172C312.883 220.946 344.315 252.378 383.089 252.378Z" fill="#A0616A"/>
<path d="M327.184 197.773C327.184 197.773 316.784 280.98 279.08 297.882C241.377 314.783 383.089 305.682 383.089 305.682C383.089 305.682 383.089 230.276 388.29 227.676C393.49 225.075 327.184 197.773 327.184 197.773Z" fill="#A0616A"/>
<path d="M311.583 747.72L306.383 775.022C306.383 775.022 233.577 817.925 268.679 829.626C303.782 841.327 346.686 778.922 346.686 778.922L338.885 747.72H311.583Z" fill="#A0616A"/>
<path d="M362.287 542.302L419.492 603.407L576.805 494.198C576.805 494.198 540.402 465.596 528.701 465.596C517 465.596 362.287 542.302 362.287 542.302Z" fill="#A0616A"/>
<path d="M671.714 221.175C671.714 221.175 688.615 102.865 718.517 111.966C748.42 121.067 701.616 238.077 701.616 238.077L671.714 221.175Z" fill="#A0616A"/>
<path d="M461.096 283.58C461.096 283.58 404.365 274.48 383.326 283.58C362.287 292.681 298.735 299.922 290.858 289.801C282.981 279.68 212.775 313.483 212.775 327.784C212.775 342.085 364.888 557.904 364.888 557.904C364.888 557.904 522.201 513.7 543.003 466.896C543.003 466.896 524.801 453.895 524.801 443.494C524.801 433.093 515.7 422.692 515.7 422.692C515.7 422.692 526.101 396.69 507.9 373.288C489.698 349.886 461.096 283.58 461.096 283.58Z" fill="white"/>
<path d="M444.194 287.481L461.096 283.58C461.096 283.58 502.699 293.981 531.302 329.084C559.904 364.187 609.308 375.888 609.308 375.888L669.113 213.374L718.517 230.276C718.517 230.276 679.514 436.993 635.31 439.594C591.107 442.194 481.898 394.09 481.898 394.09L444.194 287.481Z" fill="white"/>
<path d="M233.577 314.783C233.577 314.783 206.274 316.083 206.274 339.485C206.274 362.887 210.175 443.494 233.577 478.597C256.979 513.7 277.78 593.007 279.08 594.307C280.38 595.607 305.083 759.421 305.083 759.421L346.686 755.52L338.885 551.403L298.582 447.394L233.577 314.783Z" fill="white"/>
<path d="M692.784 641.2C659.39 682.68 615.9 714.884 566.483 734.726L559.909 720.414L534.365 745.598C479.939 760.651 422.448 760.659 368.018 745.619L357.083 738.622L415.591 671.01C415.591 671.01 416.893 637.209 415.591 632.011C414.289 626.814 397.225 579.622 397.225 579.622C456.516 575.864 541.299 500.65 560.936 482.517C563.635 480.019 565.107 478.6 565.107 478.6C674.311 494.193 689.915 621.605 689.915 621.605L692.784 641.2Z" fill="#2F2E41"/>
<path d="M312.474 197.957C315.982 197.957 318.825 192.032 318.825 184.724C318.825 177.416 315.982 171.492 312.474 171.492C308.966 171.492 306.122 177.416 306.122 184.724C306.122 192.032 308.966 197.957 312.474 197.957Z" fill="#A0616A"/>
<path d="M272.247 101.625C295.048 101.625 313.532 83.1409 313.532 60.3397C313.532 37.5386 295.048 19.0547 272.247 19.0547C249.446 19.0547 230.962 37.5386 230.962 60.3397C230.962 83.1409 249.446 101.625 272.247 101.625Z" fill="#2F2E41"/>
<path d="M228.845 41.2851C228.846 31.1615 232.567 21.3914 239.301 13.8318C246.034 6.27216 255.31 1.45006 265.366 0.282082C259.578 -0.398137 253.711 0.154956 248.152 1.90497C242.592 3.65498 237.466 6.56225 233.111 10.4355C228.756 14.3088 225.271 19.0603 222.884 24.3774C220.497 29.6945 219.263 35.4568 219.263 41.2851C219.263 47.1134 220.497 52.8756 222.884 58.1927C225.271 63.5099 228.756 68.2614 233.111 72.1346C237.466 76.0079 242.592 78.9152 248.152 80.6652C253.711 82.4152 259.578 82.9683 265.366 82.2881C255.31 81.1201 246.034 76.298 239.301 68.7384C232.567 61.1788 228.846 51.4086 228.845 41.2851V41.2851Z" fill="#2F2E41"/>
<path d="M714.739 24.3476H699.918V179.961H714.739V24.3476Z" fill="#2F2E41"/>
<path d="M298.712 121.738C298.712 121.738 317.767 161.965 341.056 163.023C364.345 164.082 451.149 147.144 451.149 147.144L422.567 87.8632L346.349 97.3905L298.712 121.738Z" fill="#2F2E41"/>
</g>
<defs>
<clipPath id="clip0">
<rect width="898.009" height="831.088" fill="white"/>
</clipPath>
</defs>
</svg>
