<svg width="180" height="114" viewBox="0 0 180 114" fill="none" xmlns="http://www.w3.org/2000/svg">
<g clip-path="url(#clip0)">
<path d="M33.9629 75.7435L33.0067 75.1491C32.9155 75.0928 32.8258 75.0321 32.7346 74.9743C34.7696 74.6242 36.625 73.5924 37.996 72.0484C39.367 70.5044 40.1722 68.54 40.2791 66.478C40.3861 64.4159 39.7886 62.3787 38.5847 60.7011C37.3808 59.0235 35.6421 57.8053 33.6543 57.2465L33.7014 60.9952L31.6416 56.9167H31.6158C29.2054 56.8048 26.8493 57.6547 25.0654 59.2795C23.2815 60.9044 22.2159 63.1711 22.1028 65.5814C22.0937 65.7562 22.1028 65.9265 22.1028 66.0983C21.3868 65.2804 20.7347 64.4033 20.3045 63.4426C19.4335 61.4983 19.4167 59.2957 19.4852 56.6172C19.622 51.312 19.8515 45.9641 20.1495 40.6346C22.3004 40.3951 24.2955 39.3967 25.7766 37.8187C27.2576 36.2406 28.1277 34.1863 28.2305 32.0246C28.2426 31.7464 28.2381 31.4728 28.2305 31.1991C28.2305 31.1307 28.2305 31.0638 28.2198 30.9954C28.2016 30.7309 28.1773 30.4695 28.1362 30.211C28.1362 30.1685 28.121 30.1274 28.1134 30.0864C28.0769 29.8675 28.0313 29.6516 27.9796 29.4388C27.9599 29.3583 27.9401 29.2792 27.9188 29.2002C27.855 28.9676 27.7851 28.7441 27.703 28.5131C27.6756 28.4386 27.6452 28.3611 27.6148 28.2911C27.551 28.1254 27.481 27.9613 27.4065 27.8001C27.367 27.715 27.329 27.6299 27.288 27.5463C27.2758 27.525 27.2682 27.5022 27.2561 27.4809C26.2953 25.5844 24.7006 24.0844 22.7489 23.2413C20.7973 22.3983 18.612 22.2654 16.5726 22.8658L16.6334 27.7454L14.5964 23.714C12.9229 24.6732 11.5994 26.1418 10.8187 27.9057C10.0381 29.6696 9.84109 31.6367 10.2564 33.5204H10.2382C10.2519 33.5857 10.2717 33.6481 10.2869 33.7119C10.3157 33.832 10.3461 33.9506 10.3796 34.0691C10.4237 34.2211 10.4708 34.3732 10.521 34.5252C10.559 34.6377 10.5954 34.7486 10.638 34.8596C10.7003 35.0207 10.7703 35.1773 10.8402 35.3339C10.8812 35.4251 10.9177 35.5193 10.9618 35.609C11.0773 35.8441 11.203 36.0737 11.3388 36.2976C11.3859 36.3767 11.4391 36.4497 11.4908 36.5272C11.5881 36.6792 11.6854 36.8312 11.7948 36.9726C11.8602 37.0623 11.9301 37.1489 11.9985 37.2356C12.0988 37.3617 12.2007 37.4864 12.3025 37.6065C12.377 37.6931 12.4546 37.7767 12.5321 37.8588C12.6446 37.9774 12.7586 38.0914 12.8772 38.2024C12.9562 38.2769 13.0292 38.3544 13.1158 38.4243C13.2496 38.5444 13.3894 38.6569 13.5308 38.7679C13.6023 38.8241 13.6722 38.8819 13.7451 38.9366C13.961 39.0886 14.1829 39.2406 14.4125 39.3926C14.455 39.4185 14.5022 39.4398 14.5447 39.4656C14.7378 39.5781 14.9324 39.686 15.133 39.7833C15.2197 39.8259 15.3078 39.8639 15.396 39.9034C15.5602 39.9764 15.7259 40.0478 15.8961 40.1132L16.2002 40.2196C16.3674 40.2758 16.5376 40.329 16.7094 40.3716C16.8097 40.399 16.9116 40.4278 17.0134 40.4522C17.1989 40.4962 17.3889 40.5327 17.5804 40.5662L17.6169 40.5738C17.4923 42.8225 17.3808 45.0718 17.2825 47.3216C16.7403 46.2075 15.9762 45.2159 15.0371 44.4077C14.098 43.5995 13.0036 42.9917 11.8212 42.6216C10.6387 42.2515 9.3931 42.127 8.16077 42.2555C6.92844 42.3841 5.73537 42.7631 4.65477 43.3693L6.26307 47.7777L2.95375 44.6006C2.07398 45.4035 1.361 46.3719 0.855523 47.4504C0.350042 48.5289 0.061964 49.6965 0.00773898 50.8863C-0.0344929 51.7286 0.0433063 52.5726 0.238799 53.393C0.654922 55.1678 1.59468 56.7766 2.93622 58.0109C4.27775 59.2451 5.95917 60.0478 7.76242 60.3148C9.56567 60.5819 11.4076 60.301 13.0493 59.5086C14.6909 58.7162 16.0567 57.4488 16.9693 55.8708C16.9693 56.0988 16.9541 56.3269 16.9481 56.5564C16.8873 58.9187 16.8112 61.8586 17.9893 64.4839C18.7874 66.2624 20.0704 67.7081 21.3336 69.0032C22.1591 69.8454 23.0149 70.6617 23.892 71.4506C24.7556 72.6099 25.8819 73.5477 27.1785 74.1869C28.6196 75.2966 30.1124 76.3409 31.6553 77.3046L32.6191 77.9036C33.4855 78.4402 34.3733 78.992 35.2428 79.5651C35.0908 79.5499 34.9388 79.5332 34.7868 79.5256C32.8576 79.4357 30.9498 79.9616 29.3392 81.0273C27.7286 82.093 26.4987 83.6433 25.8271 85.4541L31.5124 90.0798L25.2586 88.6296C25.2615 90.1688 25.6545 91.6821 26.401 93.0281C27.1475 94.3741 28.2231 95.5089 29.5273 96.3264C30.8314 97.1439 32.3215 97.6174 33.8583 97.7027C35.3951 97.7879 36.9284 97.4822 38.315 96.814L37.8924 97.3384C37.6127 97.686 37.3365 98.0316 37.0639 98.3752C33.3639 103.062 32.3348 107.51 34.1666 110.901L36.3951 109.699C34.612 106.397 37.2935 102.171 39.0507 99.9454C39.3183 99.608 39.5899 99.2685 39.8655 98.927C42.2293 95.9901 44.9078 92.661 44.8424 88.5779C44.7391 82.4229 38.771 78.7199 33.9629 75.7435Z" fill="#F2F2F2"/>
<path d="M137.626 66.4311L138.818 65.6893C138.932 65.6179 139.043 65.5373 139.157 65.4704C136.607 65.0337 134.283 63.739 132.569 61.8009C130.855 59.8627 129.854 57.3973 129.732 54.8128C129.646 53.0367 129.982 51.2655 130.713 49.6443C131.395 48.1257 132.401 46.7752 133.662 45.6883C134.923 44.6013 136.407 43.8045 138.01 43.3541L137.95 48.0315L140.521 42.9436H140.551C143.559 42.8037 146.499 43.8642 148.726 45.8919C150.952 47.9196 152.281 50.7484 152.422 53.7563C152.433 53.9737 152.422 54.1865 152.422 54.4008C153.317 53.3808 154.129 52.2863 154.666 51.0885C155.754 48.6563 155.775 45.92 155.689 42.5758C155.518 35.9556 155.233 29.2853 154.86 22.6362C152.177 22.3376 149.687 21.092 147.839 19.123C145.992 17.154 144.906 14.5907 144.779 11.8935C144.763 11.5469 144.768 11.2049 144.779 10.8644C144.779 10.7792 144.783 10.6941 144.792 10.609C144.814 10.2791 144.846 9.95227 144.894 9.63153C144.902 9.57832 144.916 9.52664 144.923 9.47951C144.97 9.20589 145.026 8.93632 145.092 8.6708C145.116 8.57199 145.14 8.47167 145.166 8.36678C145.247 8.07795 145.334 7.79065 145.435 7.51095C145.469 7.4167 145.508 7.32701 145.545 7.23428C145.627 7.02602 145.714 6.82233 145.806 6.62623C145.855 6.52134 145.902 6.41493 145.958 6.31004C145.97 6.2842 145.983 6.25532 145.996 6.22948C147.194 3.86255 149.183 1.99034 151.619 0.938547C154.054 -0.11325 156.781 -0.278073 159.325 0.47275L159.249 6.55326L161.79 1.52468C163.879 2.72068 165.53 4.55274 166.504 6.75355C167.478 8.95437 167.723 11.4088 167.204 13.7587H167.217C167.199 13.8392 167.173 13.9107 167.155 13.9973C167.119 14.1493 167.081 14.3014 167.039 14.4427C166.986 14.6327 166.925 14.8182 166.863 15.0037C166.816 15.1435 166.77 15.2834 166.711 15.4217C166.634 15.6224 166.547 15.8184 166.459 16.013C166.407 16.127 166.361 16.2441 166.307 16.3566C166.162 16.65 166.003 16.9373 165.837 17.2154C165.779 17.3143 165.712 17.407 165.65 17.5028C165.528 17.6912 165.405 17.8767 165.273 18.0576C165.191 18.1701 165.104 18.2765 165.019 18.3859C164.895 18.538 164.768 18.6991 164.635 18.8496C164.542 18.9509 164.447 19.0558 164.347 19.1643C164.209 19.3163 164.065 19.4531 163.919 19.5914C163.82 19.6857 163.723 19.7799 163.615 19.8696C163.446 20.0216 163.273 20.1584 163.095 20.2967C163.007 20.3667 162.92 20.4412 162.829 20.508C162.56 20.7057 162.283 20.8942 161.996 21.069C161.942 21.1009 161.885 21.1283 161.83 21.1602C161.591 21.3021 161.347 21.4343 161.097 21.5569C160.989 21.6101 160.878 21.6557 160.769 21.7089C160.564 21.8017 160.357 21.8898 160.146 21.9704C160.021 22.0175 159.896 22.0616 159.772 22.1042C159.562 22.1756 159.351 22.2395 159.136 22.2988C159.01 22.3337 158.884 22.3687 158.755 22.4006C158.522 22.4553 158.287 22.5009 158.048 22.542L158.001 22.5511C158.159 25.3573 158.298 28.1639 158.419 30.9711C159.095 29.5812 160.049 28.3443 161.221 27.3362C162.393 26.3282 163.758 25.5703 165.233 25.109C166.709 24.6478 168.263 24.493 169.8 24.6541C171.338 24.8152 172.826 25.2888 174.173 26.0459L172.168 31.5427L176.296 27.5797C177.396 28.5783 178.288 29.784 178.923 31.1278C179.557 32.4716 179.92 33.9272 179.991 35.4114C180.044 36.462 179.947 37.5149 179.704 38.5383C179.185 40.7528 178.012 42.7602 176.338 44.3002C174.665 45.8403 172.567 46.8419 170.317 47.1752C168.067 47.5084 165.769 47.158 163.72 46.1693C161.672 45.1805 159.968 43.5992 158.829 41.6302C158.829 41.9145 158.849 42.2018 158.857 42.4861C158.933 45.4336 159.027 49.1017 157.558 52.376C156.563 54.5969 154.961 56.3983 153.377 58.0142C152.346 59.0661 151.282 60.0841 150.184 61.0681C149.105 62.5136 147.699 63.6822 146.08 64.4778C144.282 65.8626 142.419 67.1654 140.495 68.3693L139.293 69.1157C138.212 69.7845 137.105 70.4732 136.018 71.1876C136.21 71.1694 136.398 71.1481 136.593 71.139C138.998 71.0279 141.376 71.6839 143.384 73.0124C145.392 74.3408 146.926 76.2729 147.764 78.5298L140.671 84.3063L148.474 82.4989C148.471 84.4186 147.982 86.3063 147.052 87.9857C146.123 89.6651 144.782 91.0815 143.157 92.1026C141.531 93.1237 139.673 93.7161 137.757 93.8247C135.84 93.9332 133.927 93.5543 132.197 92.7233C132.373 92.9422 132.548 93.1611 132.724 93.3785C133.072 93.8117 133.42 94.2434 133.759 94.6721C138.374 100.517 139.659 106.073 137.373 110.299L134.594 108.799C136.818 104.679 133.472 99.4073 131.278 96.6376C130.946 96.2165 130.605 95.7924 130.263 95.3668C127.314 91.7033 123.971 87.5503 124.053 82.4563C124.181 74.763 131.636 70.1433 137.626 66.4311Z" fill="#F2F2F2"/>
<path d="M88.8212 113.022C131.974 113.022 166.956 111.15 166.956 108.841C166.956 106.532 131.974 104.661 88.8212 104.661C45.6686 104.661 10.6865 106.532 10.6865 108.841C10.6865 111.15 45.6686 113.022 88.8212 113.022Z" fill="#3F3D56"/>
<path opacity="0.2" d="M88.6691 110.893C127.288 110.893 158.595 109.396 158.595 107.549C158.595 105.702 127.288 104.205 88.6691 104.205C50.0501 104.205 18.7432 105.702 18.7432 107.549C18.7432 109.396 50.0501 110.893 88.6691 110.893Z" fill="black"/>
<path d="M155.249 26.3302V106.675C155.249 106.966 155.134 107.245 154.928 107.45C154.723 107.656 154.444 107.771 154.153 107.771H23.4844C23.3405 107.771 23.1981 107.743 23.0652 107.688C22.9323 107.633 22.8116 107.552 22.7099 107.45C22.6083 107.348 22.5277 107.227 22.4728 107.094C22.4179 106.961 22.3897 106.819 22.3899 106.675V26.3302C22.3897 26.1863 22.4179 26.0438 22.4728 25.9108C22.5277 25.7779 22.6083 25.657 22.7099 25.5552C22.8116 25.4535 22.9323 25.3727 23.0652 25.3176C23.1981 25.2625 23.3405 25.2341 23.4844 25.2341H154.149C154.293 25.2335 154.436 25.2614 154.569 25.3163C154.703 25.3711 154.824 25.4517 154.927 25.5535C155.029 25.6554 155.11 25.7764 155.165 25.9097C155.221 26.0429 155.249 26.1858 155.249 26.3302Z" fill="#3F3D56"/>
<path d="M155.249 25.9653V28.4264H22.3899V25.9653C22.3899 25.7714 22.4669 25.5854 22.6041 25.4483C22.7412 25.3112 22.9272 25.2341 23.1211 25.2341H154.518C154.712 25.2341 154.898 25.3112 155.035 25.4483C155.172 25.5854 155.249 25.7714 155.249 25.9653Z" fill="#CBCEDA"/>
<path d="M24.8221 27.5143C25.2418 27.5143 25.5821 27.174 25.5821 26.7543C25.5821 26.3345 25.2418 25.9942 24.8221 25.9942C24.4023 25.9942 24.062 26.3345 24.062 26.7543C24.062 27.174 24.4023 27.5143 24.8221 27.5143Z" fill="#37B62A"/>
<path d="M26.9502 27.5143C27.37 27.5143 27.7103 27.174 27.7103 26.7543C27.7103 26.3345 27.37 25.9942 26.9502 25.9942C26.5305 25.9942 26.1902 26.3345 26.1902 26.7543C26.1902 27.174 26.5305 27.5143 26.9502 27.5143Z" fill="#37B62A"/>
<path d="M29.0784 27.5143C29.4982 27.5143 29.8385 27.174 29.8385 26.7543C29.8385 26.3345 29.4982 25.9942 29.0784 25.9942C28.6587 25.9942 28.3184 26.3345 28.3184 26.7543C28.3184 27.174 28.6587 27.5143 29.0784 27.5143Z" fill="#37B62A"/>
<path opacity="0.2" d="M109.039 36.4071H68.6033V38.5353H109.039V36.4071Z" fill="#37B62A"/>
<path opacity="0.2" d="M66.1712 57.9929H35.0085V94.476H66.1712V57.9929Z" fill="#37B62A"/>
<path opacity="0.2" d="M104.326 57.9929H73.1638V94.476H104.326V57.9929Z" fill="#37B62A"/>
<path opacity="0.2" d="M111.319 94.476H142.482V57.9929L111.319 57.9929V94.476Z" fill="#37B62A"/>
<path d="M49.196 76.5354C49.1032 77.0842 48.5605 77.4293 48.0483 77.6436C47.536 77.858 46.9629 78.0358 46.6345 78.4842C46.1922 79.0923 46.3776 79.9633 46.7866 80.5942C47.2502 81.3178 47.9525 81.8513 48.6396 82.3682C48.9373 82.6203 49.2769 82.8184 49.6429 82.9534C49.9217 83.0249 50.2095 83.0556 50.4972 83.0446C51.4234 83.0443 52.3478 82.9614 53.2593 82.7968C54.4282 82.584 55.6778 82.1584 56.2995 81.1429C56.8042 80.3114 56.7723 79.2732 56.7236 78.3003C56.1733 78.2532 55.6808 77.9537 55.2126 77.6634C54.6593 77.3198 54.0619 76.92 53.8825 76.2953C53.694 75.6401 53.995 74.8314 53.5466 74.3191C53.2425 73.9725 52.7272 73.9315 52.2681 73.9193C51.6449 73.9031 51.0221 73.8945 50.3999 73.8935C49.9712 73.8935 49.0135 73.7141 48.6609 73.9999C48.0118 74.5182 49.313 75.8392 49.196 76.5354Z" fill="#A0616A"/>
<path opacity="0.1" d="M49.196 76.5354C49.1032 77.0842 48.5605 77.4293 48.0483 77.6436C47.536 77.858 46.9629 78.0358 46.6345 78.4842C46.1922 79.0923 46.3776 79.9633 46.7866 80.5942C47.2502 81.3178 47.9525 81.8513 48.6396 82.3682C48.9373 82.6203 49.2769 82.8184 49.6429 82.9534C49.9217 83.0249 50.2095 83.0556 50.4972 83.0446C51.4234 83.0443 52.3478 82.9614 53.2593 82.7968C54.4282 82.584 55.6778 82.1584 56.2995 81.1429C56.8042 80.3114 56.7723 79.2732 56.7236 78.3003C56.1733 78.2532 55.6808 77.9537 55.2126 77.6634C54.6593 77.3198 54.0619 76.92 53.8825 76.2953C53.694 75.6401 53.995 74.8314 53.5466 74.3191C53.2425 73.9725 52.7272 73.9315 52.2681 73.9193C51.6449 73.9031 51.0221 73.8945 50.3999 73.8935C49.9712 73.8935 49.0135 73.7141 48.6609 73.9999C48.0118 74.5182 49.313 75.8392 49.196 76.5354Z" fill="black"/>
<path d="M51.3194 76.2223C53.7818 76.2223 55.7779 74.2262 55.7779 71.7638C55.7779 69.3014 53.7818 67.3052 51.3194 67.3052C48.857 67.3052 46.8608 69.3014 46.8608 71.7638C46.8608 74.2262 48.857 76.2223 51.3194 76.2223Z" fill="#A0616A"/>
<path d="M60.6363 82.5841C60.6069 82.8522 60.5215 83.1112 60.3854 83.3441C60.345 83.4067 60.2992 83.4657 60.2486 83.5205C59.9978 83.7956 59.6406 83.9765 59.3168 84.1695C58.4047 84.7244 57.3817 85.4465 57.2114 86.5029C57.1553 86.8317 57.0786 87.1566 56.9819 87.4758C56.769 88.1994 56.4909 88.9108 56.3282 89.6344C56.227 90.0538 56.1815 90.4846 56.1929 90.9159C56.1981 91.0507 56.2103 91.1852 56.2294 91.3187C56.3738 92.3433 56.8998 93.263 57.5185 94.137C57.5854 94.2313 57.6522 94.3255 57.7206 94.4183L57.7647 94.4775H43.211C43.2353 94.3848 43.2596 94.2936 43.2824 94.2009C43.2853 94.1865 43.2888 94.1723 43.2931 94.1583C43.4375 93.5791 43.5637 92.9969 43.6518 92.4102C43.7342 91.8891 43.7794 91.3628 43.7871 90.8353C43.7871 90.3793 43.8875 89.8746 44.269 89.6192C44.2949 89.5265 44.3192 89.4322 44.3435 89.3395C44.68 87.9588 44.6727 86.5166 44.3222 85.1394C44.3009 85.0543 44.2766 84.9691 44.2538 84.884C44.2432 84.846 44.231 84.808 44.2204 84.77C44.092 84.3648 43.9844 83.9533 43.8981 83.5372C43.8084 83.0401 43.7886 82.5111 43.5241 82.0824C43.2596 81.6537 42.799 81.4029 42.3901 81.1126C42.1893 80.9758 42.0087 80.8115 41.8535 80.6246C41.6842 80.4288 41.5829 80.1835 41.5647 79.9253C41.5618 79.849 41.5674 79.7725 41.5814 79.6973C41.6567 79.3837 41.8171 79.097 42.0451 78.8689C42.9693 77.8519 44.3815 77.4247 45.7694 77.4065C45.9837 77.4065 46.1965 77.4065 46.4078 77.4247C46.655 77.4287 46.8988 77.4835 47.1238 77.5859C47.2627 77.6574 47.3845 77.7579 47.481 77.8808C47.617 78.0519 47.7201 78.2467 47.7851 78.4554C47.8397 78.623 47.8804 78.7949 47.9067 78.9692C47.9918 79.5119 48.0101 80.0895 48.2958 80.5577C48.8142 81.406 49.9953 81.561 50.9713 81.3771C51.8424 81.206 52.665 80.8448 53.3805 80.3192C54.096 79.7937 54.6867 79.1168 55.1106 78.3368C55.2015 78.1473 55.303 77.9631 55.4146 77.785C55.4738 77.6957 55.5432 77.6135 55.6213 77.5403C56.9734 77.7892 58.2448 78.3631 59.3259 79.2124C59.6648 79.4684 59.9613 79.7762 60.2045 80.1245C60.6606 80.845 60.7639 81.7449 60.6363 82.5841Z" fill="#F2F2F2"/>
<path d="M61.0924 91.7641C60.9693 92.1888 60.7811 92.5918 60.5345 92.9589C60.3718 93.2706 60.1534 93.5499 59.89 93.7828C59.3503 94.2069 58.604 94.1978 57.9138 94.1583H57.8591L57.5171 94.1385L55.5546 94.0215C55.0345 94.0028 54.5163 93.9474 54.004 93.8558C53.8672 93.8284 53.7319 93.795 53.5966 93.7585C52.8366 93.5548 52.0932 93.2508 51.3073 93.2067C51.0793 93.193 50.8513 93.2067 50.6187 93.2067H50.5549C50.4023 93.2067 50.25 93.1966 50.0988 93.1763C49.8495 93.1398 49.6048 93.0608 49.3509 93.0486C48.7003 93.0152 48.1257 93.4058 47.5709 93.7615L47.4188 93.8558C47.0219 94.1072 46.6001 94.3171 46.1602 94.4821H43.5243C43.4796 94.4481 43.4384 94.41 43.4011 94.3681C43.356 94.3182 43.3162 94.2637 43.2826 94.2054C43.275 94.1917 43.2674 94.1781 43.2613 94.1644C43.1757 93.9809 43.1313 93.7808 43.1313 93.5784C43.1313 93.3759 43.1757 93.1759 43.2613 92.9924C43.3595 92.7814 43.4891 92.5866 43.6459 92.4147C43.8186 92.2273 44.0045 92.0525 44.2023 91.8918C45.2268 91.0375 46.4049 90.3169 47.7153 90.0676C47.8065 90.0509 47.8992 90.0357 47.9904 90.0235C48.6463 89.9483 49.3072 89.9265 49.9666 89.9582L50.5853 89.9703L53.1771 90.0235H53.2485C54.2898 90.0433 55.3843 90.0509 56.3253 89.6359C56.445 89.5825 56.5617 89.5226 56.6749 89.4565C56.7715 89.4076 56.8545 89.3355 56.9166 89.2468C56.9772 89.1244 57.0019 88.9874 56.9881 88.8515L56.9789 87.4834L56.9607 84.846C56.9607 84.1984 56.9566 83.5513 56.9485 82.9048C56.9228 82.7044 56.943 82.5008 57.0075 82.3093C57.072 82.1179 57.1792 81.9436 57.321 81.7996C57.6995 81.3238 58.6222 79.6441 59.2759 79.6167C59.3919 79.6102 59.5068 79.6423 59.6027 79.7079C60.159 80.0789 60.1621 81.485 60.1758 81.9593C60.191 82.4832 60.2138 83.0066 60.2442 83.5296C60.3689 85.6711 60.6227 87.8031 61.0042 89.9141C61.1167 90.5206 61.2383 91.156 61.0924 91.7641Z" fill="#A0616A"/>
<path opacity="0.1" d="M61.0924 91.7641C60.9693 92.1888 60.7811 92.5918 60.5345 92.9589C60.3718 93.2706 60.1534 93.5499 59.89 93.7828C59.3503 94.2069 58.604 94.1978 57.9138 94.1583H57.8591L57.5171 94.1385L55.5546 94.0215C55.0345 94.0028 54.5163 93.9474 54.004 93.8558C53.8672 93.8284 53.7319 93.795 53.5966 93.7585C52.8366 93.5548 52.0932 93.2508 51.3073 93.2067C51.0793 93.193 50.8513 93.2067 50.6187 93.2067H50.5549C50.4023 93.2067 50.25 93.1966 50.0988 93.1763C49.8495 93.1398 49.6048 93.0608 49.3509 93.0486C48.7003 93.0152 48.1257 93.4058 47.5709 93.7615L47.4188 93.8558C47.0219 94.1072 46.6001 94.3171 46.1602 94.4821H43.5243C43.4796 94.4481 43.4384 94.41 43.4011 94.3681C43.356 94.3182 43.3162 94.2637 43.2826 94.2054C43.275 94.1917 43.2674 94.1781 43.2613 94.1644C43.1757 93.9809 43.1313 93.7808 43.1313 93.5784C43.1313 93.3759 43.1757 93.1759 43.2613 92.9924C43.3595 92.7814 43.4891 92.5866 43.6459 92.4147C43.8186 92.2273 44.0045 92.0525 44.2023 91.8918C45.2268 91.0375 46.4049 90.3169 47.7153 90.0676C47.8065 90.0509 47.8992 90.0357 47.9904 90.0235C48.6463 89.9483 49.3072 89.9265 49.9666 89.9582L50.5853 89.9703L53.1771 90.0235H53.2485C54.2898 90.0433 55.3843 90.0509 56.3253 89.6359C56.445 89.5825 56.5617 89.5226 56.6749 89.4565C56.7715 89.4076 56.8545 89.3355 56.9166 89.2468C56.9772 89.1244 57.0019 88.9874 56.9881 88.8515L56.9789 87.4834L56.9607 84.846C56.9607 84.1984 56.9566 83.5513 56.9485 82.9048C56.9228 82.7044 56.943 82.5008 57.0075 82.3093C57.072 82.1179 57.1792 81.9436 57.321 81.7996C57.6995 81.3238 58.6222 79.6441 59.2759 79.6167C59.3919 79.6102 59.5068 79.6423 59.6027 79.7079C60.159 80.0789 60.1621 81.485 60.1758 81.9593C60.191 82.4832 60.2138 83.0066 60.2442 83.5296C60.3689 85.6711 60.6227 87.8031 61.0042 89.9141C61.1167 90.5206 61.2383 91.156 61.0924 91.7641Z" fill="black"/>
<path d="M48.3825 64.6937C47.9964 64.7514 47.5692 64.8548 47.3595 65.1831C47.1953 65.4385 47.2075 65.7623 47.1512 66.0603C47.0604 66.5386 46.7935 66.9654 46.4033 67.2566C46.0841 67.4922 45.698 67.6245 45.3681 67.8449C45.0382 68.0653 44.7464 68.4256 44.7904 68.8208C44.8284 69.1659 45.1036 69.4289 45.2328 69.7542C45.4715 70.347 45.1902 71.0083 44.9288 71.592C44.6673 72.1757 44.4211 72.8628 44.7205 73.4268C45.0382 74.0212 45.8576 74.2461 46.0886 74.877C46.3759 75.6371 45.6326 76.4473 45.7284 77.2575C45.8104 77.9233 46.4671 78.3991 47.1314 78.4964C47.4492 78.542 47.8018 78.5101 48.0435 78.2988C48.2852 78.0875 48.3612 77.7424 48.3719 77.4217C48.4129 76.1843 47.7091 75.0488 47.5039 73.8266C47.437 73.4237 47.4279 72.992 47.6148 72.6287C47.7334 72.3992 47.9189 72.2107 48.0222 71.972C48.2275 71.475 47.9949 70.8745 48.2153 70.3835C48.3402 70.1684 48.4842 69.9649 48.6455 69.7754C48.7869 69.5702 48.8811 69.2981 48.7701 69.0747C49.163 69.3245 49.4767 69.6809 49.6746 70.1023C49.9619 70.0445 49.9543 69.4273 50.2356 69.5155C50.3146 69.5413 50.3602 69.625 50.4119 69.6903C50.5152 69.8056 50.6501 69.888 50.7997 69.9274C50.9494 69.9669 51.1073 69.9616 51.254 69.9123C51.5465 69.8075 51.8035 69.6226 51.9959 69.3787L52.4762 69.9746C52.5197 69.8718 52.5935 69.7848 52.6877 69.725C52.782 69.6653 52.8922 69.6357 53.0037 69.6402C53.2267 69.6554 53.4417 69.7294 53.627 69.8545C54.539 70.4002 55.2231 71.5175 54.8735 72.5208C54.7215 72.9495 54.4174 73.3006 54.2137 73.708C54.01 74.1154 53.9584 74.6627 54.2837 74.9788C54.3505 75.0457 54.4357 75.0974 54.4934 75.1704C54.7321 75.4516 54.5816 75.8803 54.6531 76.2345C54.7792 76.8866 55.5484 77.1465 56.196 77.2986C56.652 77.4019 57.1947 77.4795 57.5139 77.1465C57.8636 76.7817 57.707 76.1843 57.4957 75.7252C57.2844 75.2662 57.0397 74.7356 57.2662 74.2857C57.4927 73.8357 58.157 73.6776 58.3956 73.2079C58.6996 72.6105 58.163 71.9553 57.9487 71.3199C57.6553 70.4504 57.9821 69.4745 57.742 68.5837C57.5963 68.1342 57.3685 67.7157 57.0701 67.3493C56.3602 66.3947 55.5089 65.5176 54.4539 64.9642C53.4567 64.4413 52.4519 64.3562 51.3528 64.4884C50.3663 64.6131 49.3721 64.5462 48.3825 64.6937Z" fill="#3C354C"/>
<path d="M57.0474 84.8977C57.003 84.8719 56.9645 84.837 56.9344 84.7954C56.9042 84.7537 56.8832 84.7063 56.8725 84.656C56.5351 83.7074 56.2189 82.7523 55.924 81.7906C55.8569 81.6212 55.8324 81.438 55.8525 81.257C55.9212 81.031 56.0649 80.8353 56.2599 80.7021C56.7593 80.2903 57.3212 79.9608 57.9245 79.7262C58.3623 79.5544 59.0083 79.2489 59.4446 79.5271C59.9858 79.8721 59.4081 80.7432 59.2105 81.1992C58.9425 81.8246 58.638 82.4337 58.2984 83.0234C58.1951 83.2058 57.1857 84.9524 57.0474 84.8977Z" fill="#F2F2F2"/>
<path d="M57.9154 94.1583C57.8773 94.2324 57.8292 94.301 57.7725 94.362C57.7558 94.3817 57.7375 94.4 57.7178 94.4167C57.6964 94.4381 57.6736 94.4579 57.6494 94.476H55.0059C54.5659 94.311 54.1442 94.1012 53.7472 93.8497L53.5952 93.7555C53.0404 93.3998 52.4658 93.0091 51.8151 93.0425C51.5613 93.0547 51.3165 93.1337 51.0672 93.1702C50.9161 93.1905 50.7637 93.2007 50.6112 93.2006H50.5474C50.3178 93.2006 50.0913 93.19 49.8587 93.2006C49.0728 93.2447 48.331 93.5487 47.5694 93.7524C47.4341 93.7889 47.2988 93.8224 47.162 93.8497C46.6497 93.9414 46.1316 93.9967 45.6115 94.0154L43.307 94.1522H43.2523C42.5636 94.1917 41.8173 94.2009 41.2761 93.7768C41.0127 93.5438 40.7942 93.2646 40.6316 92.9528C40.385 92.5858 40.1968 92.1827 40.0737 91.758C39.9217 91.15 40.0494 90.5146 40.1603 89.8989C40.6335 87.2711 40.9094 84.6115 40.9857 81.9426C40.9994 81.4668 41.0025 80.0561 41.5619 79.6897C41.6248 79.646 41.6972 79.6179 41.7732 79.6076C41.8106 79.6037 41.8483 79.6037 41.8857 79.6076C42.5393 79.635 43.462 81.3147 43.8406 81.7905C43.9823 81.9345 44.0895 82.1088 44.154 82.3002C44.2185 82.4917 44.2387 82.6953 44.213 82.8957C44.213 83.5199 44.2089 84.1452 44.2008 84.7715C44.2008 84.8004 44.2008 84.8293 44.2008 84.8566C44.1937 86.1883 44.1851 87.5194 44.175 88.85C44.1611 88.9859 44.1859 89.1229 44.2464 89.2453C44.2681 89.2808 44.2947 89.313 44.3255 89.341C44.3758 89.3843 44.4303 89.4225 44.4881 89.455C45.499 90.0509 46.741 90.0448 47.9145 90.022H47.9859L50.5778 89.9688L51.1965 89.9567C51.8559 89.925 52.5168 89.9468 53.1726 90.022C53.2638 90.0342 53.3566 90.0494 53.4478 90.0661C54.4545 90.2798 55.4034 90.708 56.2296 91.3217C56.483 91.5011 56.7292 91.6906 56.9684 91.8903C57.3423 92.1943 57.7102 92.547 57.9093 92.9908C57.9952 93.1733 58.0402 93.3723 58.0413 93.5739C58.0423 93.7755 57.9994 93.975 57.9154 94.1583Z" fill="#A0616A"/>
<path d="M44.2858 84.8977C44.3301 84.8716 44.3684 84.8367 44.3985 84.7951C44.4286 84.7535 44.4498 84.7062 44.4607 84.656C44.7981 83.7074 45.1143 82.7523 45.4092 81.7906C45.4751 81.6209 45.4991 81.4379 45.4792 81.257C45.4105 81.031 45.2668 80.8353 45.0718 80.7021C44.5732 80.2899 44.0118 79.9604 43.4087 79.7262C42.9709 79.5544 42.3264 79.2489 41.8886 79.5271C41.3474 79.8721 41.9236 80.7432 42.1227 81.1992C42.39 81.8249 42.6946 82.4341 43.0348 83.0234C43.1381 83.2058 44.1475 84.9524 44.2858 84.8977Z" fill="#F2F2F2"/>
<path d="M126.532 67.6427C127.437 67.4223 128.139 68.9196 129.05 68.7418C129.55 68.6445 129.936 68.0516 130.442 68.0957C131.018 68.1459 131.265 68.9333 131.56 69.5094C132.072 70.5066 133.107 71.1101 134.104 70.99C134.417 70.5766 134.358 69.9412 134.198 69.4243C134.039 68.9075 133.796 68.4058 133.79 67.8555C133.782 67.1274 134.182 66.3217 133.82 65.7274C133.542 65.2713 132.973 65.2348 132.555 64.9536C132.228 64.7347 131.999 64.3684 131.725 64.0689C131.286 63.5793 130.686 63.2637 130.033 63.1796C129.495 63.1188 128.954 63.2343 128.422 63.3499L125.935 63.888C125.79 63.905 125.655 63.9672 125.547 64.0659C125.446 64.22 125.378 64.3933 125.347 64.5751C125.111 65.3473 124.372 65.7091 123.769 66.1378C123.165 66.5665 122.592 67.4147 122.925 68.1368C123.114 68.5457 123.558 68.798 123.605 69.2571C123.646 69.6675 123.349 70.0035 123.108 70.3075C122.082 71.5935 124.381 72.2624 124.932 71.3898C125.544 70.4291 125.239 67.9589 126.532 67.6427Z" fill="#3C354C"/>
<path d="M125.218 75.7313C125.002 76.0125 124.72 76.2466 124.547 76.5568C124.33 77.0004 124.294 77.5114 124.447 77.9811C124.603 78.4443 124.821 78.8842 125.096 79.2884C125.411 79.8408 125.794 80.3515 126.236 80.8086C126.681 81.2701 127.272 81.5633 127.908 81.6385C128.585 81.6887 129.238 81.409 129.851 81.1156C130.112 81.0114 130.35 80.8564 130.552 80.6596C130.698 80.4733 130.813 80.2643 130.892 80.0409L131.42 78.7777C131.568 78.471 131.67 78.1442 131.724 77.8078C131.778 77.2834 131.596 76.765 131.42 76.2679L130.454 73.6123C130.414 73.46 130.334 73.3211 130.223 73.2094C130.118 73.1327 129.996 73.0808 129.868 73.0574C129.256 72.8993 128.632 72.7975 128.002 72.7534C127.534 72.7215 126.472 72.5558 126.063 72.8203C125.687 73.065 125.844 73.6883 125.8 74.0911C125.76 74.6809 125.559 75.2484 125.218 75.7313Z" fill="#A0616A"/>
<path opacity="0.1" d="M125.218 75.7313C125.002 76.0125 124.72 76.2466 124.547 76.5568C124.33 77.0004 124.294 77.5114 124.447 77.9811C124.603 78.4443 124.821 78.8842 125.096 79.2884C125.411 79.8408 125.794 80.3515 126.236 80.8086C126.681 81.2701 127.272 81.5633 127.908 81.6385C128.585 81.6887 129.238 81.409 129.851 81.1156C130.112 81.0114 130.35 80.8564 130.552 80.6596C130.698 80.4733 130.813 80.2643 130.892 80.0409L131.42 78.7777C131.568 78.471 131.67 78.1442 131.724 77.8078C131.778 77.2834 131.596 76.765 131.42 76.2679L130.454 73.6123C130.414 73.46 130.334 73.3211 130.223 73.2094C130.118 73.1327 129.996 73.0808 129.868 73.0574C129.256 72.8993 128.632 72.7975 128.002 72.7534C127.534 72.7215 126.472 72.5558 126.063 72.8203C125.687 73.065 125.844 73.6883 125.8 74.0911C125.76 74.6809 125.559 75.2484 125.218 75.7313Z" fill="black"/>
<path d="M128.376 75.1065C130.702 75.1065 132.587 73.2213 132.587 70.8958C132.587 68.5703 130.702 66.685 128.376 66.685C126.051 66.685 124.166 68.5703 124.166 70.8958C124.166 73.2213 126.051 75.1065 128.376 75.1065Z" fill="#A0616A"/>
<path d="M137.707 81.4105C137.716 82.5719 137.271 83.6907 136.81 84.7548C136.349 85.8189 135.764 86.8693 135.314 87.9623C135.278 88.0504 135.243 88.1401 135.208 88.2298C134.434 90.2303 133.748 92.2617 133.153 94.324L133.108 94.476H120.051C120.646 92.1958 121.157 89.9156 119.728 88.3423C119.684 88.2936 119.64 88.2435 119.598 88.1903C118.663 87.0639 118.243 85.527 117.132 84.5693C116.877 84.3489 116.58 84.1543 116.422 83.8549C116.331 83.6706 116.285 83.4674 116.288 83.262C116.287 83.0811 116.298 82.9003 116.322 82.7209C116.431 81.7328 116.572 80.696 117.168 79.8995C117.441 79.5513 117.766 79.2485 118.134 79.0026C118.945 78.4322 119.859 78.0239 120.826 77.8002C121.914 77.5509 123.115 77.5144 124.003 76.8349C124.19 76.6627 124.393 76.5099 124.611 76.3789L124.672 76.353C124.777 76.3034 124.894 76.2836 125.009 76.2959C125.125 76.3083 125.235 76.3522 125.327 76.423C125.442 76.551 125.518 76.7092 125.546 76.879C125.707 77.4688 125.869 78.0586 126.031 78.6484C126.086 78.94 126.211 79.2136 126.397 79.445C126.827 79.8919 127.65 79.8387 127.984 80.3571C128.185 80.6717 128.712 80.3054 128.942 80.0135C129.498 79.3086 129.98 78.5474 130.378 77.7424C130.513 77.4233 130.692 77.1249 130.91 76.8562C131.067 76.6832 131.271 76.5596 131.497 76.5005C131.608 76.4732 131.723 76.4701 131.835 76.4914C132.163 76.5583 132.403 76.8288 132.627 77.0781C133.964 78.5715 135.544 79.8281 137.299 80.7949C137.439 80.8537 137.558 80.952 137.641 81.0776C137.678 81.154 137.698 81.2375 137.699 81.3223C137.705 81.3543 137.707 81.3831 137.707 81.4105Z" fill="#3C354C"/>
<path d="M126.987 67.4284C127.691 67.2764 128.236 68.2872 128.945 68.1671C129.334 68.1033 129.635 67.7111 130.027 67.7339C130.476 67.7674 130.667 68.2964 130.897 68.6825C131.101 69.0157 131.394 69.2855 131.743 69.4614C132.092 69.6372 132.483 69.7123 132.873 69.6782C133.116 69.4 133.07 68.9743 132.946 68.6262C132.821 68.2781 132.631 67.9407 132.627 67.5728C132.627 67.0818 132.931 66.5406 132.651 66.1408C132.435 65.8368 131.993 65.8094 131.667 65.6209C131.414 65.4689 131.236 65.2272 131.021 65.0266C130.661 64.6882 130.199 64.4783 129.706 64.4292C129.286 64.408 128.864 64.4463 128.454 64.5432L126.52 64.905C126.41 64.9141 126.304 64.9553 126.216 65.0235C126.14 65.1246 126.088 65.2415 126.064 65.3656C125.88 65.8854 125.304 66.1256 124.837 66.416C124.371 66.7063 123.925 67.2748 124.181 67.7598C124.333 68.0349 124.672 68.2036 124.708 68.5198C124.742 68.795 124.511 69.0215 124.322 69.2252C123.526 70.0886 125.313 70.5385 125.743 69.9518C126.219 69.3012 125.981 67.6412 126.987 67.4284Z" fill="#3C354C"/>
<path d="M139.683 94.476H136.127C136.185 93.0197 135.592 91.5407 135.519 90.0555C135.492 89.4976 135.539 88.9306 135.427 88.3834C135.397 88.2409 135.359 88.1003 135.313 87.9623C135.223 87.6811 135.113 87.4044 135.028 87.1216C134.746 86.1776 134.756 85.1744 134.77 84.1893C134.786 83.1019 134.803 82.0155 134.822 80.9302C134.822 80.6474 134.738 80.2309 134.995 80.1123C135.574 79.8448 136.176 80.3753 136.708 80.7204C137.027 80.9332 137.392 81.1004 137.702 81.3284C137.887 81.4557 138.047 81.6153 138.175 81.7997C138.325 82.0533 138.431 82.3303 138.49 82.619C138.92 84.2638 139.295 85.9223 139.615 87.5944C139.766 88.3213 139.868 89.0577 139.919 89.7986C140.011 91.3552 139.688 92.9255 139.683 94.476Z" fill="#3C354C"/>
<path d="M117.599 92.7826C117.447 93.1535 117.282 93.5426 117.305 93.947C117.319 94.1284 117.36 94.3068 117.427 94.476H114.206C114.044 93.9281 113.922 93.3693 113.841 92.8038C113.689 91.7033 113.773 90.5829 113.915 89.4793C114.011 88.6223 114.198 87.7779 114.473 86.9605C114.847 85.9131 115.439 84.9646 115.942 83.9795C116.06 83.75 116.168 83.4916 116.294 83.2635C116.565 82.7634 116.915 82.3956 117.611 82.7315C119.342 83.566 120.086 86.4892 119.604 88.1918C119.604 88.1963 119.604 88.2009 119.604 88.2055C119.467 88.6377 119.295 89.0581 119.09 89.4626C118.567 90.5591 118.07 91.6658 117.599 92.7826Z" fill="#3C354C"/>
<path d="M89.3819 65.5145C89.7266 65.6402 90.0151 65.885 90.1952 66.2047C90.3335 66.492 90.3289 66.8279 90.4232 67.1335C90.6223 67.7765 91.2213 68.1976 91.5937 68.76C92.0984 69.5201 92.1577 70.4884 92.1227 71.4005C92.0877 72.3126 91.9707 73.2429 92.1987 74.1291C92.3066 74.5608 92.4906 74.9713 92.5651 75.4106C92.6547 75.9426 92.5803 76.499 92.7171 77.0219C92.8372 77.4977 93.1184 77.9142 93.3951 78.3186L94.5777 80.047C94.0484 79.9216 93.5271 79.7648 93.0165 79.5773C93.174 80.0724 93.4661 80.514 93.8602 80.8526L93.0059 79.819C92.832 79.5795 92.6162 79.3735 92.369 79.2109C92.0558 79.0331 91.6849 79.0057 91.3322 78.9327C90.6558 78.7959 89.9778 78.4493 89.6464 77.8397C89.2041 77.028 89.4944 76.008 89.2405 75.1172C89.0596 74.4666 88.6127 73.93 88.3057 73.331C87.6079 71.9736 87.6505 70.3729 87.4316 68.8619C87.3373 68.2204 87.1944 67.5834 87.1914 66.9343C87.1914 66.4555 87.2385 65.5465 87.7402 65.3017C88.1749 65.0965 88.9776 65.3428 89.3819 65.5145Z" fill="#3F3D56"/>
<path d="M89.9035 76.388C89.9749 77.1815 90.1406 78.1179 90.8642 78.4508C91.2731 78.6393 91.7489 78.5694 92.1928 78.6424C93.0304 78.7776 93.7129 79.4222 94.1082 80.1777C94.5034 80.9332 94.6296 81.7905 94.7162 82.6357C94.8302 83.6922 94.8682 84.8399 94.286 85.7307C93.8163 86.4528 93.0045 86.8921 92.173 87.1156C91.3361 87.3337 90.4615 87.3651 89.6111 87.2074C88.7608 87.0498 87.9555 86.7071 87.2524 86.2035C86.5637 85.7034 85.9952 85.0588 85.4419 84.4143C84.2364 83.0112 83.0234 81.4728 82.7756 79.6396C82.7467 79.4313 82.7497 79.1835 82.9276 79.0558C83.0453 78.9895 83.1811 78.9624 83.3152 78.9783L84.4705 78.9996C84.7639 78.9996 85.0953 78.9996 85.2944 78.7792C85.4936 78.5587 85.4814 78.2821 85.4738 78.0191C85.4444 76.9043 85.415 75.787 85.3856 74.6672C85.368 74.5487 85.3951 74.4278 85.4617 74.3282C85.5352 74.2618 85.6288 74.2217 85.7277 74.2142C86.3646 74.1063 87.0304 74.2142 87.6537 74.0409C88.2465 73.8783 89.1738 73.1972 89.6131 73.8965C89.981 74.4818 89.8472 75.7131 89.9035 76.388Z" fill="#FFC1C7"/>
<path opacity="0.1" d="M89.9035 76.388C89.9749 77.1815 90.1406 78.1179 90.8642 78.4508C91.2731 78.6393 91.7489 78.5694 92.1928 78.6424C93.0304 78.7776 93.7129 79.4222 94.1082 80.1777C94.5034 80.9332 94.6296 81.7905 94.7162 82.6357C94.8302 83.6922 94.8682 84.8399 94.286 85.7307C93.8163 86.4528 93.0045 86.8921 92.173 87.1156C91.3361 87.3337 90.4615 87.3651 89.6111 87.2074C88.7608 87.0498 87.9555 86.7071 87.2524 86.2035C86.5637 85.7034 85.9952 85.0588 85.4419 84.4143C84.2364 83.0112 83.0234 81.4728 82.7756 79.6396C82.7467 79.4313 82.7497 79.1835 82.9276 79.0558C83.0453 78.9895 83.1811 78.9624 83.3152 78.9783L84.4705 78.9996C84.7639 78.9996 85.0953 78.9996 85.2944 78.7792C85.4936 78.5587 85.4814 78.2821 85.4738 78.0191C85.4444 76.9043 85.415 75.787 85.3856 74.6672C85.368 74.5487 85.3951 74.4278 85.4617 74.3282C85.5352 74.2618 85.6288 74.2217 85.7277 74.2142C86.3646 74.1063 87.0304 74.2142 87.6537 74.0409C88.2465 73.8783 89.1738 73.1972 89.6131 73.8965C89.981 74.4818 89.8472 75.7131 89.9035 76.388Z" fill="black"/>
<path d="M86.9939 76.1706C89.4327 76.1706 91.4098 74.1935 91.4098 71.7547C91.4098 69.3158 89.4327 67.3387 86.9939 67.3387C84.555 67.3387 82.5779 69.3158 82.5779 71.7547C82.5779 74.1935 84.555 76.1706 86.9939 76.1706Z" fill="#FFC1C7"/>
<path d="M96.8231 90.665C96.793 90.8455 96.7508 91.0237 96.6969 91.1986C96.5556 91.6065 96.3932 92.0068 96.2105 92.398C96.1406 92.5606 96.0752 92.7233 96.019 92.8905C95.9749 93.0212 95.9369 93.155 95.9034 93.2888C95.87 93.4225 95.8305 93.6034 95.8031 93.763C95.7621 93.9987 95.7317 94.2373 95.7073 94.476H84.1833C84.2328 93.8928 84.2108 93.3057 84.1179 92.7278C83.9631 91.9322 83.7247 91.1551 83.4065 90.4096C82.6723 88.5277 81.8514 86.6093 81.3999 84.6469C81.3999 84.6469 81.3999 84.6469 81.3999 84.6393C81.0841 83.3657 80.9895 82.0473 81.1202 80.7417C81.1293 80.6657 81.14 80.5897 81.1506 80.5106C81.1778 80.3133 81.2148 80.1175 81.2616 79.9238C81.3729 79.3729 81.626 78.8605 81.9958 78.4372C82.5126 77.8808 83.3867 77.6056 84.0571 77.9614C84.4614 78.1757 84.7123 78.5557 84.9129 78.9768C85.0406 79.2443 85.1486 79.5271 85.261 79.7961C85.673 80.7675 86.2652 81.6521 87.0061 82.4032C87.1475 82.5552 87.2965 82.6905 87.45 82.8242C87.6035 82.958 87.7373 83.0705 87.8878 83.186C88.3758 83.5615 88.9641 84.0373 89.601 84.054C89.9704 84.0647 90.3474 84.054 90.7289 84.054C91.0634 84.054 91.4008 84.0403 91.7337 84.054C92.4467 84.0677 93.2539 83.8655 93.5989 83.2408C93.8345 82.8136 93.795 82.2922 93.7509 81.8058C93.716 81.4257 93.681 81.0457 93.6445 80.6641C93.6445 80.6444 93.6445 80.6246 93.6445 80.6049C93.6202 80.3297 93.5944 80.0576 93.5685 79.7825C93.5564 79.6502 93.5442 79.5164 93.5305 79.3842L93.5032 79.0893C93.6298 79.0751 93.7575 79.0629 93.8862 79.0528C94.4624 79.0072 95.0506 79.0178 95.5462 79.2991C96.0174 79.5651 96.3063 80.0226 96.4917 80.541C96.615 80.9105 96.6946 81.2931 96.7289 81.6811C96.8991 83.4064 96.624 85.147 96.7182 86.8769C96.779 88.1295 97.0435 89.4292 96.8231 90.665Z" fill="#37B62A"/>
<path d="M99.4544 94.476H95.9687C95.9399 94.0808 95.9171 93.6856 95.9034 93.2888C95.8912 93.0152 95.8821 92.74 95.8775 92.4664C95.8623 91.7286 95.8684 90.9929 95.8958 90.2592C96.582 90.647 97.3504 90.8663 98.138 90.8992C98.4567 91.2558 98.7136 91.6633 98.898 92.1046C99.0014 92.3473 99.0882 92.5966 99.158 92.851C99.1589 92.8545 99.1589 92.8582 99.158 92.8616C99.3009 93.3907 99.4001 93.9307 99.4544 94.476Z" fill="#FFC1C7"/>
<path d="M99.1489 92.1C97.8305 92.1129 96.5186 92.2865 95.2422 92.6169C95.0734 91.7839 95.1555 90.9235 95.2422 90.0783L95.8061 84.2699C95.8472 83.8397 95.7681 79.8904 96.6012 80.5881C96.9052 80.845 97.2943 83.1541 97.3901 83.525C97.5345 84.0859 97.6485 84.6529 97.7504 85.2215C97.9586 86.3889 98.1 87.5655 98.3022 88.7345C98.36 89.0719 98.8479 92.1031 99.1489 92.1Z" fill="#37B62A"/>
<path d="M88.6768 66.1393C88.683 66.0012 88.6515 65.864 88.5856 65.7425C88.5285 65.6703 88.457 65.6108 88.3756 65.5679C88.2942 65.5249 88.2047 65.4995 88.1128 65.4932C87.4759 65.3944 86.7766 65.6452 86.2005 65.3595C85.8965 65.2074 85.6669 64.9034 85.3629 64.7347C84.6454 64.3288 83.7394 64.7347 83.104 65.2607C82.0923 66.1007 81.3549 67.2241 80.9864 68.4864C80.7037 69.4623 80.5897 70.6039 79.781 71.2226C79.4466 71.478 79.0209 71.6194 78.7701 71.9599C78.5816 72.2213 78.5375 72.5573 78.5025 72.872C78.4189 73.6138 78.3505 74.3738 78.5436 75.0944C78.6956 75.631 78.9768 76.1174 79.1516 76.6449C79.3923 77.3916 79.4145 78.1916 79.2158 78.9505C79.017 79.7094 78.6055 80.3957 78.0298 80.9286C78.3243 81.1122 78.6787 81.1738 79.0179 81.1004C79.0113 81.2562 78.9619 81.4072 78.875 81.5367C79.9087 81.5033 80.8071 80.4969 81.818 80.7173C82.5902 80.8846 83.0204 81.6811 83.5965 82.2223C84.3383 82.92 85.4906 83.2119 86.4224 82.7984C87.3543 82.3849 87.9198 81.2083 87.5245 80.2689C87.0685 79.2048 85.6867 78.7777 85.2048 77.7212C84.8324 76.9018 85.109 75.9472 85.0285 75.0518C84.9601 74.2826 84.6287 73.5667 84.4204 72.8233C84.2122 72.08 84.1468 71.2302 84.5724 70.5826C85.0194 69.8955 85.8752 69.628 86.6535 69.3665C88.4062 68.801 88.7437 67.9118 88.6768 66.1393Z" fill="#3F3D56"/>
<path d="M87.5914 82.0155C87.7175 81.4075 87.8422 80.7432 87.6202 80.1549C87.2068 79.0574 85.8554 78.7153 84.9205 78.0085C84.3788 77.5973 83.9629 77.0428 83.7196 76.4078C83.5493 75.9624 83.5265 75.3437 83.9445 75.1187C84.1072 75.0427 84.2871 75.0112 84.466 75.0275C85.9222 75.0609 87.2569 75.8529 88.3742 76.7893C89.0233 77.3351 89.6405 77.9598 89.9643 78.7427C90.1938 79.2975 90.2683 79.9026 90.3337 80.4984L90.5617 82.4746C90.7123 83.6075 90.8001 84.7478 90.8247 85.8904C90.8263 86.5455 90.7851 87.2 90.7016 87.8498C90.6438 88.3058 90.5495 88.7862 90.2866 89.1647C89.7819 89.8685 88.812 90.0266 87.9455 90.051C87.6184 90.0699 87.2902 90.0489 86.9681 89.9886C85.5285 89.6755 84.4371 87.6598 85.5255 86.4148C85.9815 85.8858 86.6838 85.8721 86.9468 85.147C87.2995 84.1863 87.3846 83.0234 87.5914 82.0155Z" fill="#FFC1C7"/>
<path d="M86.4223 82.3621L87.5578 84.2182C87.6257 84.3143 87.6728 84.4236 87.6961 84.5389C87.7281 84.7806 87.5441 84.995 87.4043 85.1911C86.4253 86.5288 86.6746 88.3681 86.9695 89.9992C85.4072 89.5038 84.016 88.5785 82.9552 87.3292C81.8944 86.0799 81.2068 84.5571 80.9711 82.9352C80.8282 81.9638 80.5972 80.3647 81.4591 79.7323C83.5356 78.2091 85.4479 80.772 86.4223 82.3621Z" fill="#37B62A"/>
<path d="M92.1926 78.6423C91.7488 78.5694 91.2806 78.6423 90.864 78.4508C90.1405 78.1179 89.9748 77.1815 89.9033 76.388C89.9033 76.315 89.8927 76.236 89.8896 76.1493C90.1488 75.8824 90.43 75.6378 90.7303 75.4181C91.0013 75.2598 91.2894 75.1328 91.5892 75.0396L92.3918 74.7569C92.4655 74.9702 92.5234 75.1887 92.5651 75.4106C92.6548 75.9426 92.5803 76.499 92.7171 77.0219C92.8372 77.4977 93.1184 77.9142 93.3951 78.3186L94.5777 80.0469C94.3634 79.9968 94.1506 79.939 93.9393 79.8782C93.5303 79.258 92.9177 78.7594 92.1926 78.6423Z" fill="#3F3D56"/>
<path d="M16.2487 108.943C16.7048 108.106 16.1879 107.078 15.5966 106.332C15.0053 105.585 14.2878 104.811 14.303 103.855C14.3258 102.487 15.7775 101.68 16.9374 100.953C17.7986 100.416 18.5926 99.7773 19.3027 99.0516C19.6002 98.7726 19.8462 98.4433 20.0293 98.0788C20.2695 97.5437 20.2634 96.9356 20.2482 96.3504C20.1965 94.3985 20.0997 92.4482 19.9579 90.4994" stroke="#3F3D56" stroke-width="4" stroke-miterlimit="10"/>
<path d="M22.1634 90.393C22.1473 90.0356 22.0413 89.6881 21.8553 89.3826C21.6693 89.077 21.4093 88.8233 21.0994 88.6448L20.622 89.5903L20.6372 88.4457C20.4089 88.3788 20.1711 88.35 19.9334 88.3606C19.5135 88.3814 19.1092 88.5261 18.7715 88.7764C18.4338 89.0268 18.1778 89.3715 18.0358 89.7672C17.8937 90.1629 17.8721 90.5917 17.9735 90.9997C18.075 91.4077 18.295 91.7765 18.6058 92.0595C18.9166 92.3426 19.3043 92.5273 19.7199 92.5903C20.1356 92.6533 20.5606 92.5917 20.9413 92.4135C21.322 92.2352 21.6414 91.9482 21.8592 91.5886C22.077 91.229 22.1834 90.813 22.165 90.393H22.1634Z" fill="#37B62A"/>
<path d="M18.3586 104.833C18.1348 105.266 17.7687 105.61 17.3217 105.806C16.8747 106.002 16.3739 106.038 15.9033 105.909C15.4327 105.78 15.0208 105.492 14.7367 105.096C14.4527 104.699 14.3136 104.216 14.343 103.729C14.3723 103.242 14.5682 102.78 14.8978 102.42C15.2274 102.06 15.6707 101.824 16.1535 101.752C16.6362 101.68 17.129 101.776 17.5493 102.024C17.9696 102.272 18.2918 102.657 18.462 103.115L17.1288 104.199L18.5957 103.86C18.5952 104.198 18.5139 104.532 18.3586 104.833Z" fill="#37B62A"/>
<path d="M17.3052 100.69C16.7751 100.728 16.2502 100.565 15.8337 100.235C15.4172 99.9055 15.1392 99.4316 15.0544 98.907C14.9696 98.3824 15.0841 97.8451 15.3755 97.4006C15.6668 96.9562 16.1139 96.6369 16.6288 96.5054L16.6166 97.384L17.1 96.4279C17.381 96.4134 17.6622 96.4547 17.9271 96.5496C18.192 96.6445 18.4355 96.7909 18.6435 96.9805C18.8514 97.1701 19.0197 97.399 19.1386 97.654C19.2575 97.9091 19.3246 98.1852 19.3361 98.4663C19.3486 98.7125 19.3177 98.959 19.2449 99.1945C19.1151 99.6132 18.859 99.9817 18.5119 100.249C18.1647 100.517 17.7433 100.671 17.3052 100.69Z" fill="#37B62A"/>
<path d="M22.4842 97.2503C22.1567 97.2623 21.8309 97.1986 21.5321 97.064C21.2333 96.9294 20.9696 96.7276 20.7616 96.4744C20.5535 96.2212 20.4068 95.9234 20.3328 95.6041C20.2588 95.2849 20.2595 94.9529 20.3349 94.6339C20.4103 94.315 20.5583 94.0178 20.7674 93.7655C20.9766 93.5132 21.2411 93.3126 21.5405 93.1793C21.8399 93.046 22.166 92.9837 22.4934 92.9971C22.8208 93.0106 23.1407 93.0995 23.4282 93.2569L23.0512 94.2906L23.8265 93.5457C24.2419 93.9262 24.4895 94.4559 24.5151 95.0187C24.5252 95.2163 24.5073 95.4144 24.4619 95.607C24.3566 96.0591 24.1063 96.4644 23.7492 96.7611C23.3922 97.0578 22.9479 97.2295 22.4842 97.2503Z" fill="#37B62A"/>
<path opacity="0.1" d="M21.8761 90.9615C21.3836 91.0147 20.9048 91.1682 20.4107 91.1986C19.9167 91.229 19.374 91.112 19.0609 90.7274C18.8937 90.5207 18.8085 90.2592 18.6672 90.0327C18.5321 89.8223 18.3473 89.6484 18.129 89.5265C18.0003 89.7956 17.9296 90.0887 17.9214 90.3869C17.9133 90.685 17.9679 90.9816 18.0818 91.2573C18.1957 91.533 18.3662 91.7816 18.5824 91.9872C18.7985 92.1927 19.0555 92.3505 19.3365 92.4503C19.6176 92.5502 19.9165 92.5898 20.2139 92.5667C20.5113 92.5435 20.8005 92.4582 21.0627 92.316C21.325 92.1739 21.5544 91.9783 21.7362 91.7418C21.918 91.5053 22.048 91.2332 22.1178 90.9433C22.0368 90.9463 21.9562 90.9524 21.8761 90.9615Z" fill="black"/>
<path opacity="0.1" d="M22.4841 97.2502C22.1161 97.2689 21.7496 97.1917 21.4205 97.0263C21.0913 96.8608 20.8107 96.6127 20.6062 96.3063C20.4016 95.9999 20.2801 95.6456 20.2536 95.2782C20.227 94.9107 20.2963 94.5426 20.4547 94.21C20.624 94.3238 20.7696 94.4694 20.8834 94.6387C21.0354 94.8682 21.1281 95.1342 21.306 95.344C21.6389 95.7347 22.2059 95.8624 22.7212 95.8396C23.2365 95.8168 23.7336 95.6693 24.2413 95.6222C24.3128 95.6222 24.3842 95.6115 24.4572 95.61C24.3515 96.0609 24.1017 96.4649 23.7456 96.7609C23.3895 97.0569 22.9466 97.2287 22.4841 97.2502Z" fill="black"/>
<path opacity="0.1" d="M17.3051 100.69C16.9406 100.709 16.5775 100.633 16.2506 100.471C15.9237 100.308 15.6441 100.065 15.4386 99.763C15.2331 99.4613 15.1087 99.1119 15.0773 98.7482C15.0458 98.3846 15.1084 98.019 15.259 97.6865C15.436 97.8021 15.5906 97.9489 15.7151 98.1198C15.8808 98.3539 15.9841 98.6245 16.1711 98.8403C16.5314 99.2401 17.1364 99.3815 17.6806 99.3693C18.2248 99.3572 18.7189 99.2279 19.2433 99.1869C19.1148 99.6068 18.8596 99.9768 18.5126 100.246C18.1656 100.515 17.7438 100.67 17.3051 100.69Z" fill="black"/>
<path opacity="0.1" d="M18.3588 104.833C18.128 105.348 17.7017 105.752 17.1737 105.953C16.6458 106.155 16.0594 106.138 15.5435 105.907C15.0277 105.677 14.6246 105.25 14.4231 104.722C14.2215 104.194 14.238 103.608 14.4688 103.092C14.6449 103.207 14.8027 103.348 14.937 103.51C15.1407 103.756 15.2744 104.038 15.5085 104.27C15.9448 104.699 16.6486 104.878 17.2765 104.892C17.6381 104.894 17.9995 104.874 18.3588 104.833Z" fill="black"/>
<path d="M13.0305 107.978C13.0305 107.978 14.7148 107.926 15.2225 107.564C15.7303 107.203 17.8068 106.772 17.9375 107.352C18.0682 107.931 20.4685 110.24 18.5683 110.249C16.6682 110.258 14.1509 109.954 13.6431 109.641C13.1354 109.328 13.0305 107.978 13.0305 107.978Z" fill="#656380"/>
<path opacity="0.2" d="M18.6018 110.048C16.7001 110.063 14.1843 109.744 13.6781 109.44C13.292 109.205 13.1384 108.362 13.0868 107.973H13.0305C13.0305 107.973 13.1369 109.332 13.6386 109.645C14.1402 109.959 16.6621 110.264 18.5638 110.253C19.1126 110.253 19.3011 110.054 19.2904 109.766C19.219 109.936 19.0092 110.044 18.6018 110.048Z" fill="black"/>
<path d="M156.975 106.873C157.779 105.383 156.867 103.557 155.816 102.227C154.766 100.897 153.487 99.5153 153.515 97.8188C153.554 95.3866 156.137 93.947 158.2 92.658C159.732 91.7008 161.144 90.5649 162.408 89.2742C162.915 88.7573 163.405 88.2101 163.701 87.5442C164.128 86.5926 164.116 85.5103 164.089 84.4675C163.999 80.9955 163.827 77.5266 163.573 74.0607" stroke="#3F3D56" stroke-width="4" stroke-miterlimit="10"/>
<path d="M167.497 73.8752C167.468 73.2395 167.279 72.6213 166.948 72.0778C166.617 71.5342 166.154 71.0827 165.603 70.7651L164.753 72.4463L164.779 70.4109C164.006 70.1823 163.18 70.2052 162.422 70.4765C161.663 70.7478 161.01 71.2533 160.557 71.92C160.104 72.5867 159.875 73.3801 159.903 74.1855C159.93 74.991 160.213 75.7668 160.711 76.4009C161.208 77.0349 161.894 77.4944 162.67 77.713C163.446 77.9315 164.271 77.8978 165.026 77.6167C165.782 77.3356 166.428 76.8217 166.872 76.1491C167.316 75.4766 167.535 74.6803 167.497 73.8752Z" fill="#37B62A"/>
<path d="M160.729 99.5624C160.331 100.338 159.678 100.954 158.88 101.305C158.082 101.657 157.187 101.723 156.346 101.493C155.505 101.263 154.768 100.751 154.26 100.042C153.752 99.3334 153.503 98.4714 153.555 97.6008C153.607 96.7303 153.956 95.9041 154.545 95.2609C155.134 94.6177 155.927 94.1966 156.789 94.0683C157.652 93.9401 158.532 94.1124 159.283 94.5564C160.034 95.0004 160.609 95.6891 160.912 96.5069L158.542 98.4359L161.149 97.8279C161.15 98.4313 161.006 99.0262 160.729 99.5624Z" fill="#37B62A"/>
<path d="M158.861 92.1928C157.933 92.2294 157.024 91.9251 156.305 91.3372C155.586 90.7493 155.108 89.9185 154.959 89.0018C154.811 88.0851 155.004 87.1458 155.501 86.3614C155.998 85.577 156.765 85.0017 157.657 84.7441L157.637 86.3084L158.496 84.6073H158.507C159.02 84.557 159.538 84.6114 160.029 84.7675C160.52 84.9236 160.975 85.1779 161.364 85.5151C161.754 85.8523 162.071 86.2653 162.297 86.729C162.522 87.1926 162.65 87.6972 162.674 88.2121C162.699 88.727 162.618 89.2414 162.437 89.724C162.256 90.2067 161.978 90.6474 161.622 91.0195C161.265 91.3916 160.836 91.6872 160.362 91.8884C159.887 92.0895 159.376 92.1921 158.861 92.1897V92.1928Z" fill="#37B62A"/>
<path d="M168.069 86.0621C167.479 86.0932 166.891 85.9867 166.35 85.751C165.809 85.5153 165.331 85.1568 164.952 84.7041C164.574 84.2513 164.306 83.7167 164.17 83.1425C164.034 82.5684 164.034 81.9704 164.169 81.3961C164.304 80.8218 164.571 80.2868 164.949 79.8336C165.327 79.3804 165.805 79.0214 166.346 78.785C166.886 78.5486 167.475 78.4414 168.064 78.4718C168.653 78.5022 169.227 78.6693 169.741 78.9601L169.07 80.7979L170.451 79.4739C170.817 79.8084 171.114 80.2119 171.325 80.6613C171.535 81.1108 171.655 81.5973 171.677 82.093C171.695 82.4445 171.662 82.7966 171.58 83.1389C171.391 83.941 170.946 84.6599 170.313 85.1871C169.679 85.7144 168.892 86.0215 168.069 86.0621Z" fill="#37B62A"/>
<path opacity="0.1" d="M166.986 74.8861C166.111 74.9819 165.26 75.254 164.379 75.3087C163.499 75.3634 162.535 75.1567 161.979 74.4696C161.675 74.1017 161.523 73.6366 161.277 73.2337C161.037 72.8601 160.71 72.5515 160.322 72.3353C160.072 72.8174 159.927 73.3475 159.899 73.8901C159.871 74.4326 159.959 74.9748 160.158 75.4803C160.358 75.9858 160.663 76.4427 161.053 76.8202C161.444 77.1978 161.911 77.4872 162.423 77.6689C162.935 77.8507 163.48 77.9206 164.021 77.8739C164.562 77.8272 165.087 77.665 165.56 77.3983C166.034 77.1315 166.444 76.7664 166.764 76.3276C167.085 75.8887 167.307 75.3863 167.417 74.8542C167.272 74.8603 167.129 74.8709 166.986 74.8861Z" fill="black"/>
<path opacity="0.1" d="M168.069 86.0621C167.415 86.0916 166.764 85.9517 166.18 85.656C165.597 85.3603 165.099 84.9188 164.736 84.3743C164.373 83.8298 164.156 83.2007 164.108 82.5481C164.059 81.8954 164.18 81.2412 164.458 80.6489C164.758 80.8509 165.016 81.109 165.218 81.409C165.489 81.8179 165.652 82.2891 165.978 82.6631C166.568 83.3593 167.579 83.5858 168.494 83.5448C169.409 83.5037 170.294 83.2407 171.208 83.1587C171.334 83.148 171.461 83.1389 171.589 83.1359C171.4 83.94 170.954 84.6606 170.319 85.1886C169.684 85.7166 168.894 86.0232 168.069 86.0621Z" fill="black"/>
<path opacity="0.1" d="M158.861 92.1928C158.213 92.223 157.568 92.087 156.988 91.7976C156.408 91.5082 155.911 91.0751 155.545 90.5396C155.18 90.004 154.957 89.3837 154.899 88.7378C154.841 88.0919 154.949 87.4419 155.213 86.8495C155.524 87.0561 155.796 87.3178 156.014 87.6218C156.309 88.0383 156.493 88.5171 156.838 88.9002C157.479 89.6132 158.555 89.8655 159.525 89.8427C160.465 89.8214 161.369 89.5903 162.304 89.5189C162.074 90.264 161.62 90.9203 161.004 91.3986C160.388 91.877 159.64 92.1543 158.861 92.1928Z" fill="black"/>
<path opacity="0.1" d="M160.729 99.5624C160.275 100.409 159.517 101.051 158.608 101.361C157.699 101.671 156.706 101.625 155.829 101.233C154.952 100.841 154.257 100.131 153.882 99.2464C153.507 98.362 153.482 97.3686 153.81 96.4659C154.122 96.6708 154.403 96.9208 154.643 97.2077C155.003 97.6485 155.242 98.1471 155.658 98.5576C156.435 99.3176 157.688 99.6323 158.802 99.6612C159.446 99.6659 160.089 99.6329 160.729 99.5624Z" fill="black"/>
<path d="M151.251 105.155C151.251 105.155 154.246 105.062 155.149 104.419C156.052 103.776 159.756 103.009 159.981 104.039C160.206 105.07 164.482 109.168 161.1 109.194C157.718 109.22 153.243 108.668 152.341 108.119C151.44 107.57 151.251 105.155 151.251 105.155Z" fill="#656380"/>
<path opacity="0.2" d="M161.161 108.838C157.779 108.866 153.303 108.312 152.402 107.763C151.716 107.345 151.443 105.845 151.35 105.153H151.251C151.251 105.153 151.44 107.569 152.341 108.118C153.243 108.666 157.719 109.22 161.1 109.192C162.078 109.185 162.414 108.838 162.395 108.323C162.26 108.639 161.888 108.834 161.161 108.838Z" fill="black"/>
</g>
<defs>
<clipPath id="clip0">
<rect width="180" height="113.022" fill="white"/>
</clipPath>
</defs>
</svg>
