<svg width="26" height="14" viewBox="0 0 26 14" fill="none" xmlns="http://www.w3.org/2000/svg">
<path d="M5.54206 0.73349C3.99246 0.73349 2.73608 1.98987 2.73608 3.53947C2.73608 5.08907 3.99246 6.34545 5.54206 6.34545C7.09166 6.34545 8.34804 5.08907 8.34804 3.53947C8.34804 1.98987 7.09195 0.73349 5.54206 0.73349ZM5.54206 4.87818C4.80395 4.87818 4.20335 4.27758 4.20335 3.53947C4.20335 2.80136 4.80395 2.20076 5.54206 2.20076C6.28017 2.20076 6.88077 2.80136 6.88077 3.53947C6.88106 4.27758 6.28046 4.87818 5.54206 4.87818Z" fill="#515D6B"/>
<path d="M1.44907 12.1504C1.44993 12.1507 1.45051 12.1507 1.45138 12.151V12.1218C1.45138 10.4234 2.83313 9.04136 4.5318 9.04136H6.27582V7.5741H4.5318C2.13547 7.5741 0.161778 9.45361 0 11.8107L1.44907 12.1504Z" fill="#515D6B"/>
<path d="M20.4581 6.34545C22.0077 6.34545 23.2641 5.08907 23.2641 3.53947C23.2641 1.98987 22.0077 0.73349 20.4581 0.73349C18.9085 0.73349 17.6521 1.98987 17.6521 3.53947C17.6521 5.08907 18.9085 6.34545 20.4581 6.34545ZM20.4581 2.20076C21.1962 2.20076 21.7968 2.80136 21.7968 3.53947C21.7968 4.27758 21.1962 4.87818 20.4581 4.87818C19.72 4.87818 19.1194 4.27758 19.1194 3.53947C19.1194 2.80136 19.72 2.20076 20.4581 2.20076Z" fill="#515D6B"/>
<path d="M19.7246 9.04136H21.4686C23.167 9.04136 24.5491 10.4231 24.5491 12.1218V12.1365L25.9999 11.8014C25.8335 9.4487 23.8618 7.5741 21.4686 7.5741H19.7246V9.04136Z" fill="#515D6B"/>
<path d="M10.1943 2.80598C10.1943 4.35558 11.4507 5.61196 13.0003 5.61196C14.5499 5.61196 15.8063 4.35558 15.8063 2.80598C15.8063 1.25638 14.5499 0 13.0003 0C11.4507 0 10.1943 1.25609 10.1943 2.80598ZM14.339 2.80598C14.339 3.54409 13.7384 4.14469 13.0003 4.14469C12.2622 4.14469 11.6616 3.54409 11.6616 2.80598C11.6616 2.06787 12.2622 1.46727 13.0003 1.46727C13.7384 1.46698 14.339 2.06758 14.339 2.80598Z" fill="#515D6B"/>
<path d="M6.27588 12.2813V13.0283C6.7641 13.093 7.25319 13.1508 7.74315 13.2014V12.2816C7.74315 10.0568 9.55303 8.24693 11.7778 8.24693H14.2229C16.4477 8.24693 18.2575 10.0568 18.2575 12.2816V13.1962C18.7475 13.145 19.2366 13.087 19.7248 13.0214V12.2816C19.7248 10.0568 18.3841 8.1334 16.4728 7.26875C15.7844 6.95733 15.024 6.77966 14.2229 6.77966H11.7778C10.9767 6.77966 10.2163 6.95733 9.5279 7.26875C7.61632 8.13311 6.27588 10.0565 6.27588 12.2813Z" fill="#515D6B"/>
</svg>
