<svg width="309" height="94" viewBox="0 0 309 94" fill="none" xmlns="http://www.w3.org/2000/svg">
<path d="M10 0.5H299C304.247 0.5 308.5 4.7533 308.5 10V84C308.5 89.2467 304.247 93.5 299 93.5H10C4.7533 93.5 0.5 89.2467 0.5 84V10C0.5 4.75329 4.7533 0.5 10 0.5Z" stroke="black"/>
<path d="M121.023 31.8438C120.391 32.6016 119.496 33.1914 118.34 33.6133C117.184 34.0273 115.902 34.2344 114.496 34.2344C113.02 34.2344 111.723 33.9141 110.605 33.2734C109.496 32.625 108.637 31.6875 108.027 30.4609C107.426 29.2344 107.117 27.793 107.102 26.1367V24.9766C107.102 23.2734 107.387 21.8008 107.957 20.5586C108.535 19.3086 109.363 18.3555 110.441 17.6992C111.527 17.0352 112.797 16.7031 114.25 16.7031C116.273 16.7031 117.855 17.1875 118.996 18.1562C120.137 19.1172 120.812 20.5195 121.023 22.3633H117.602C117.445 21.3867 117.098 20.6719 116.559 20.2188C116.027 19.7656 115.293 19.5391 114.355 19.5391C113.16 19.5391 112.25 19.9883 111.625 20.8867C111 21.7852 110.684 23.1211 110.676 24.8945V25.9844C110.676 27.7734 111.016 29.125 111.695 30.0391C112.375 30.9531 113.371 31.4102 114.684 31.4102C116.004 31.4102 116.945 31.1289 117.508 30.5664V27.625H114.309V25.0352H121.023V31.8438ZM129.496 34.2344C127.637 34.2344 126.121 33.6641 124.949 32.5234C123.785 31.3828 123.203 29.8633 123.203 27.9648V27.6367C123.203 26.3633 123.449 25.2266 123.941 24.2266C124.434 23.2188 125.129 22.4453 126.027 21.9062C126.934 21.3594 127.965 21.0859 129.121 21.0859C130.855 21.0859 132.219 21.6328 133.211 22.7266C134.211 23.8203 134.711 25.3711 134.711 27.3789V28.7617H126.637C126.746 29.5898 127.074 30.2539 127.621 30.7539C128.176 31.2539 128.875 31.5039 129.719 31.5039C131.023 31.5039 132.043 31.0312 132.777 30.0859L134.441 31.9492C133.934 32.668 133.246 33.2305 132.379 33.6367C131.512 34.0352 130.551 34.2344 129.496 34.2344ZM129.109 23.8281C128.438 23.8281 127.891 24.0547 127.469 24.5078C127.055 24.9609 126.789 25.6094 126.672 26.4531H131.383V26.1836C131.367 25.4336 131.164 24.8555 130.773 24.4492C130.383 24.0352 129.828 23.8281 129.109 23.8281ZM140.699 18.2031V21.3203H142.867V23.8047H140.699V30.1328C140.699 30.6016 140.789 30.9375 140.969 31.1406C141.148 31.3438 141.492 31.4453 142 31.4453C142.375 31.4453 142.707 31.418 142.996 31.3633V33.9297C142.332 34.1328 141.648 34.2344 140.945 34.2344C138.57 34.2344 137.359 33.0352 137.312 30.6367V23.8047H135.461V21.3203H137.312V18.2031H140.699ZM154.305 34H150.906V21.3203H154.305V34ZM150.707 18.0391C150.707 17.5312 150.875 17.1133 151.211 16.7852C151.555 16.457 152.02 16.293 152.605 16.293C153.184 16.293 153.645 16.457 153.988 16.7852C154.332 17.1133 154.504 17.5312 154.504 18.0391C154.504 18.5547 154.328 18.9766 153.977 19.3047C153.633 19.6328 153.176 19.7969 152.605 19.7969C152.035 19.7969 151.574 19.6328 151.223 19.3047C150.879 18.9766 150.707 18.5547 150.707 18.0391ZM161.16 18.2031V21.3203H163.328V23.8047H161.16V30.1328C161.16 30.6016 161.25 30.9375 161.43 31.1406C161.609 31.3438 161.953 31.4453 162.461 31.4453C162.836 31.4453 163.168 31.418 163.457 31.3633V33.9297C162.793 34.1328 162.109 34.2344 161.406 34.2344C159.031 34.2344 157.82 33.0352 157.773 30.6367V23.8047H155.922V21.3203H157.773V18.2031H161.16ZM170.664 27.543C170.664 26.2852 170.906 25.1641 171.391 24.1797C171.875 23.1953 172.57 22.4336 173.477 21.8945C174.391 21.3555 175.449 21.0859 176.652 21.0859C178.363 21.0859 179.758 21.6094 180.836 22.6562C181.922 23.7031 182.527 25.125 182.652 26.9219L182.676 27.7891C182.676 29.7344 182.133 31.2969 181.047 32.4766C179.961 33.6484 178.504 34.2344 176.676 34.2344C174.848 34.2344 173.387 33.6484 172.293 32.4766C171.207 31.3047 170.664 29.7109 170.664 27.6953V27.543ZM174.051 27.7891C174.051 28.9922 174.277 29.9141 174.73 30.5547C175.184 31.1875 175.832 31.5039 176.676 31.5039C177.496 31.5039 178.137 31.1914 178.598 30.5664C179.059 29.9336 179.289 28.9258 179.289 27.543C179.289 26.3633 179.059 25.4492 178.598 24.8008C178.137 24.1523 177.488 23.8281 176.652 23.8281C175.824 23.8281 175.184 24.1523 174.73 24.8008C174.277 25.4414 174.051 26.4375 174.051 27.7891ZM187.879 21.3203L187.984 22.7852C188.891 21.6523 190.105 21.0859 191.629 21.0859C192.973 21.0859 193.973 21.4805 194.629 22.2695C195.285 23.0586 195.621 24.2383 195.637 25.8086V34H192.25V25.8906C192.25 25.1719 192.094 24.6523 191.781 24.332C191.469 24.0039 190.949 23.8398 190.223 23.8398C189.27 23.8398 188.555 24.2461 188.078 25.0586V34H184.691V21.3203H187.879Z" fill="#252323"/>
<path fill-rule="evenodd" clip-rule="evenodd" d="M22.3809 8.19049C21.504 9.12848 21 10.5722 21 12.4481V79.1755C21 81.0515 21.504 82.4952 22.4137 83.4005L22.6514 83.6004L60.2185 46.2115V45.3714L22.6186 7.99066L22.3809 8.19049V8.19049Z" fill="url(#paint0_linear)"/>
<path fill-rule="evenodd" clip-rule="evenodd" d="M72.7163 58.7234L60.1857 46.2482V45.3755L72.7204 32.9003L72.9908 33.0675L87.8161 41.4522C92.0613 43.8339 92.0613 47.7571 87.8161 50.1714L72.9908 58.5562C72.9867 58.5562 72.7163 58.7234 72.7163 58.7234V58.7234Z" fill="url(#paint1_linear)"/>
<path fill-rule="evenodd" clip-rule="evenodd" d="M72.9868 58.5562L60.1857 45.8118L22.3809 83.4372C23.7618 84.9136 26.0852 85.0808 28.6831 83.6371L72.9868 58.5562Z" fill="url(#paint2_linear)"/>
<path fill-rule="evenodd" clip-rule="evenodd" d="M72.9868 33.0718L28.6831 8.02357C26.0893 6.54726 23.7618 6.7471 22.3809 8.2234L60.1816 45.8121L72.9868 33.0718Z" fill="url(#paint3_linear)"/>
<path opacity="0.2" fill-rule="evenodd" clip-rule="evenodd" d="M72.7163 58.287L28.7158 83.1681C26.2573 84.5751 24.065 84.4772 22.6513 83.2007L22.4137 83.4373L22.6513 83.6371C24.065 84.9095 26.2573 85.0114 28.7158 83.6045L73.0195 58.5562L72.7163 58.287V58.287Z" fill="black"/>
<path opacity="0.12" fill-rule="evenodd" clip-rule="evenodd" d="M87.8121 49.735L72.6836 58.287L72.9541 58.5562L87.7793 50.1714C89.9019 48.9642 90.9468 47.3901 90.9468 45.8118C90.8116 47.2555 89.7339 48.6298 87.8121 49.735V49.735Z" fill="black"/>
<path opacity="0.25" fill-rule="evenodd" clip-rule="evenodd" d="M28.6831 8.45965L87.8121 41.8927C89.7339 42.9652 90.8115 44.3722 90.9796 45.8159C90.9796 44.2417 89.9347 42.6635 87.8121 41.4563L28.6831 8.02329C24.4379 5.609 21 7.61955 21 12.4481V12.8845C21 8.05591 24.4379 6.07799 28.6831 8.45965Z" fill="white"/>
<path fill-rule="evenodd" clip-rule="evenodd" d="M106.006 55.3492C106.006 46.8886 112.831 40 120.95 40C125.439 40 128.633 41.8367 131.043 44.2287L128.205 47.1856C126.483 45.5005 124.147 44.1932 120.947 44.1932C115.018 44.1932 110.383 49.1676 110.383 55.346C110.383 61.5244 115.018 66.5052 120.944 66.5052C124.788 66.5052 126.975 64.8977 128.379 63.4321C129.528 62.2345 130.281 60.514 130.572 58.1543H120.95V53.9708H134.494C134.636 54.7197 134.711 55.6171 134.711 56.5888C134.711 59.7296 133.883 63.6258 131.222 66.3987C128.633 69.2071 125.33 70.7049 120.947 70.7049C112.824 70.7049 106 63.8227 106 55.3557L106.006 55.3492ZM145.658 50.9333C140.414 50.9333 136.132 55.091 136.132 60.8142C136.132 66.5084 140.41 70.6952 145.658 70.6952C150.906 70.6952 155.178 66.502 155.178 60.811C155.178 55.0877 150.903 50.93 145.658 50.9333V50.9333ZM145.658 66.8086C142.787 66.8086 140.305 64.3392 140.305 60.8174C140.305 57.2602 142.783 54.8263 145.658 54.8263C148.53 54.8263 151.008 57.257 151.008 60.8174C151.008 64.336 148.533 66.8086 145.658 66.8086ZM166.429 50.9333C161.184 50.9333 156.909 55.091 156.909 60.8142C156.909 66.5084 161.184 70.6952 166.429 70.6952C171.674 70.6952 175.949 66.502 175.949 60.811C175.949 55.0877 171.677 50.93 166.429 50.9333V50.9333ZM166.429 66.8086C163.557 66.8086 161.076 64.3392 161.076 60.8174C161.076 57.2602 163.554 54.8263 166.429 54.8263C169.301 54.8263 171.782 57.257 171.782 60.8174C171.782 64.336 169.301 66.8086 166.429 66.8086ZM191.921 51.5337V53.1412H191.778C190.846 51.9759 189.049 50.9301 186.788 50.9301C182.045 50.9301 177.693 55.275 177.693 60.8562C177.693 66.3922 182.042 70.7016 186.788 70.7016C189.049 70.7016 190.846 69.6557 191.778 68.4582H191.921V69.8785C191.921 73.6585 189.982 75.6824 186.856 75.6824C184.303 75.6824 182.723 73.7715 182.076 72.1671L178.445 73.7392C179.486 76.3571 182.256 79.5787 186.853 79.5787C191.735 79.5787 195.867 76.5798 195.867 69.2813V51.5305L191.921 51.5337ZM187.144 66.8086C184.272 66.8086 181.859 64.2972 181.859 60.8562C181.859 57.3764 184.269 54.8295 187.144 54.8295C189.982 54.8295 192.209 57.3732 192.209 60.8562C192.212 64.2972 189.985 66.8086 187.144 66.8086ZM198.745 41.0491H202.915V70.1012H198.745V41.0491ZM214.343 66.8086C212.224 66.8086 210.712 65.795 209.749 63.8163L222.431 58.3448L221.994 57.2214C221.208 55.0167 218.797 50.9333 213.875 50.9333C208.99 50.9333 204.929 54.9392 204.929 60.8174C204.929 66.3535 208.953 70.6984 214.343 70.6984C218.692 70.6984 221.208 67.932 222.248 66.318L219.014 64.0745C217.933 65.724 216.459 66.8119 214.343 66.8086V66.8086ZM214.018 54.752C215.669 54.752 217.069 55.6139 217.537 56.847L209.055 60.5172C208.95 56.6985 211.896 54.752 214.018 54.752V54.752Z" fill="#303133"/>
<path fill-rule="evenodd" clip-rule="evenodd" d="M240.727 41.0491H230.758V70.1012H234.919V59.0969H240.73C245.343 59.0969 249.878 55.6171 249.878 50.0714C249.878 44.5353 245.346 41.0523 240.736 41.0523L240.727 41.0491ZM240.835 55.0522H234.919V45.0906H240.835C243.946 45.0906 245.717 47.7795 245.717 50.0714C245.717 52.3245 243.946 55.0522 240.835 55.0522V55.0522ZM256.331 70.1012V41.0491H252.17V70.1012H256.331ZM275.02 70.0496V58.9129C275.02 53.7546 271.321 50.8784 266.547 50.8784C263.539 50.8784 260.42 52.2632 259.128 55.3266L262.821 56.9309C263.61 55.3266 265.079 54.8004 266.625 54.8004C268.775 54.8004 270.962 56.1465 270.996 58.5417V58.8419C270.243 58.3932 268.632 57.7186 266.656 57.7186C262.675 57.7186 258.623 59.9975 258.623 64.2585C258.623 68.1483 261.888 70.65 265.547 70.65C268.347 70.65 269.887 69.3426 270.853 67.8126H270.996V70.056H275.017L275.02 70.0496ZM266.052 66.8022C264.688 66.8022 262.786 66.092 262.786 64.3392C262.786 62.0957 265.156 61.2306 267.201 61.2306C269.032 61.2306 269.89 61.6406 271.005 62.2023C270.686 64.8105 268.57 66.7699 266.052 66.8022V66.8022ZM289.651 51.5143L284.88 64.1068H284.738L279.787 51.5143H275.305L282.727 69.1199L278.492 78.9105H282.832L294.273 51.5143H289.651Z" fill="#303133"/>
<defs>
<linearGradient id="paint0_linear" x1="56.8452" y1="11.7309" x2="-3.29286" y2="27.8311" gradientUnits="userSpaceOnUse">
<stop stop-color="#00A0FF"/>
<stop offset="0.007" stop-color="#00A1FF"/>
<stop offset="0.26" stop-color="#00BEFF"/>
<stop offset="0.512" stop-color="#00D2FF"/>
<stop offset="0.76" stop-color="#00DFFF"/>
<stop offset="1" stop-color="#00E3FF"/>
</linearGradient>
<linearGradient id="paint1_linear" x1="93.3402" y1="45.8137" x2="19.9682" y2="45.8137" gradientUnits="userSpaceOnUse">
<stop stop-color="#FFE000"/>
<stop offset="0.409" stop-color="#FFBD00"/>
<stop offset="0.775" stop-color="#FFA500"/>
<stop offset="1" stop-color="#FF9C00"/>
</linearGradient>
<linearGradient id="paint2_linear" x1="66.026" y1="52.7448" x2="18.0552" y2="133.868" gradientUnits="userSpaceOnUse">
<stop stop-color="#FF3A44"/>
<stop offset="1" stop-color="#C31162"/>
</linearGradient>
<linearGradient id="paint3_linear" x1="12.8645" y1="-14.006" x2="34.2656" y2="22.2246" gradientUnits="userSpaceOnUse">
<stop stop-color="#32A071"/>
<stop offset="0.069" stop-color="#2DA771"/>
<stop offset="0.476" stop-color="#15CF74"/>
<stop offset="0.801" stop-color="#06E775"/>
<stop offset="1" stop-color="#00F076"/>
</linearGradient>
</defs>
</svg>
