<svg width="309" height="94" viewBox="0 0 309 94" fill="none" xmlns="http://www.w3.org/2000/svg">
<path d="M10 0.5H299C304.247 0.5 308.5 4.7533 308.5 10V84C308.5 89.2467 304.247 93.5 299 93.5H10C4.7533 93.5 0.5 89.2467 0.5 84V10C0.5 4.75329 4.7533 0.5 10 0.5Z" fill="#F7F6F6" stroke="black"/>
<path d="M122.023 38.8438C121.391 39.6016 120.496 40.1914 119.34 40.6133C118.184 41.0273 116.902 41.2344 115.496 41.2344C114.02 41.2344 112.723 40.9141 111.605 40.2734C110.496 39.625 109.637 38.6875 109.027 37.4609C108.426 36.2344 108.117 34.793 108.102 33.1367V31.9766C108.102 30.2734 108.387 28.8008 108.957 27.5586C109.535 26.3086 110.363 25.3555 111.441 24.6992C112.527 24.0352 113.797 23.7031 115.25 23.7031C117.273 23.7031 118.855 24.1875 119.996 25.1562C121.137 26.1172 121.812 27.5195 122.023 29.3633H118.602C118.445 28.3867 118.098 27.6719 117.559 27.2188C117.027 26.7656 116.293 26.5391 115.355 26.5391C114.16 26.5391 113.25 26.9883 112.625 27.8867C112 28.7852 111.684 30.1211 111.676 31.8945V32.9844C111.676 34.7734 112.016 36.125 112.695 37.0391C113.375 37.9531 114.371 38.4102 115.684 38.4102C117.004 38.4102 117.945 38.1289 118.508 37.5664V34.625H115.309V32.0352H122.023V38.8438ZM130.496 41.2344C128.637 41.2344 127.121 40.6641 125.949 39.5234C124.785 38.3828 124.203 36.8633 124.203 34.9648V34.6367C124.203 33.3633 124.449 32.2266 124.941 31.2266C125.434 30.2188 126.129 29.4453 127.027 28.9062C127.934 28.3594 128.965 28.0859 130.121 28.0859C131.855 28.0859 133.219 28.6328 134.211 29.7266C135.211 30.8203 135.711 32.3711 135.711 34.3789V35.7617H127.637C127.746 36.5898 128.074 37.2539 128.621 37.7539C129.176 38.2539 129.875 38.5039 130.719 38.5039C132.023 38.5039 133.043 38.0312 133.777 37.0859L135.441 38.9492C134.934 39.668 134.246 40.2305 133.379 40.6367C132.512 41.0352 131.551 41.2344 130.496 41.2344ZM130.109 30.8281C129.438 30.8281 128.891 31.0547 128.469 31.5078C128.055 31.9609 127.789 32.6094 127.672 33.4531H132.383V33.1836C132.367 32.4336 132.164 31.8555 131.773 31.4492C131.383 31.0352 130.828 30.8281 130.109 30.8281ZM141.699 25.2031V28.3203H143.867V30.8047H141.699V37.1328C141.699 37.6016 141.789 37.9375 141.969 38.1406C142.148 38.3438 142.492 38.4453 143 38.4453C143.375 38.4453 143.707 38.418 143.996 38.3633V40.9297C143.332 41.1328 142.648 41.2344 141.945 41.2344C139.57 41.2344 138.359 40.0352 138.312 37.6367V30.8047H136.461V28.3203H138.312V25.2031H141.699ZM155.305 41H151.906V28.3203H155.305V41ZM151.707 25.0391C151.707 24.5312 151.875 24.1133 152.211 23.7852C152.555 23.457 153.02 23.293 153.605 23.293C154.184 23.293 154.645 23.457 154.988 23.7852C155.332 24.1133 155.504 24.5312 155.504 25.0391C155.504 25.5547 155.328 25.9766 154.977 26.3047C154.633 26.6328 154.176 26.7969 153.605 26.7969C153.035 26.7969 152.574 26.6328 152.223 26.3047C151.879 25.9766 151.707 25.5547 151.707 25.0391ZM162.16 25.2031V28.3203H164.328V30.8047H162.16V37.1328C162.16 37.6016 162.25 37.9375 162.43 38.1406C162.609 38.3438 162.953 38.4453 163.461 38.4453C163.836 38.4453 164.168 38.418 164.457 38.3633V40.9297C163.793 41.1328 163.109 41.2344 162.406 41.2344C160.031 41.2344 158.82 40.0352 158.773 37.6367V30.8047H156.922V28.3203H158.773V25.2031H162.16ZM171.664 34.543C171.664 33.2852 171.906 32.1641 172.391 31.1797C172.875 30.1953 173.57 29.4336 174.477 28.8945C175.391 28.3555 176.449 28.0859 177.652 28.0859C179.363 28.0859 180.758 28.6094 181.836 29.6562C182.922 30.7031 183.527 32.125 183.652 33.9219L183.676 34.7891C183.676 36.7344 183.133 38.2969 182.047 39.4766C180.961 40.6484 179.504 41.2344 177.676 41.2344C175.848 41.2344 174.387 40.6484 173.293 39.4766C172.207 38.3047 171.664 36.7109 171.664 34.6953V34.543ZM175.051 34.7891C175.051 35.9922 175.277 36.9141 175.73 37.5547C176.184 38.1875 176.832 38.5039 177.676 38.5039C178.496 38.5039 179.137 38.1914 179.598 37.5664C180.059 36.9336 180.289 35.9258 180.289 34.543C180.289 33.3633 180.059 32.4492 179.598 31.8008C179.137 31.1523 178.488 30.8281 177.652 30.8281C176.824 30.8281 176.184 31.1523 175.73 31.8008C175.277 32.4414 175.051 33.4375 175.051 34.7891ZM188.879 28.3203L188.984 29.7852C189.891 28.6523 191.105 28.0859 192.629 28.0859C193.973 28.0859 194.973 28.4805 195.629 29.2695C196.285 30.0586 196.621 31.2383 196.637 32.8086V41H193.25V32.8906C193.25 32.1719 193.094 31.6523 192.781 31.332C192.469 31.0039 191.949 30.8398 191.223 30.8398C190.27 30.8398 189.555 31.2461 189.078 32.0586V41H185.691V28.3203H188.879Z" fill="#696868"/>
<path d="M129.535 67.7656C128.586 68.9023 127.244 69.7871 125.51 70.4199C123.775 71.041 121.854 71.3516 119.744 71.3516C117.529 71.3516 115.584 70.8711 113.908 69.9102C112.244 68.9375 110.955 67.5312 110.041 65.6914C109.139 63.8516 108.676 61.6895 108.652 59.2051V57.4648C108.652 54.9102 109.08 52.7012 109.936 50.8379C110.803 48.9629 112.045 47.5332 113.662 46.5488C115.291 45.5527 117.195 45.0547 119.375 45.0547C122.41 45.0547 124.783 45.7812 126.494 47.2344C128.205 48.6758 129.219 50.7793 129.535 53.5449H124.402C124.168 52.0801 123.646 51.0078 122.838 50.3281C122.041 49.6484 120.939 49.3086 119.533 49.3086C117.74 49.3086 116.375 49.9824 115.438 51.3301C114.5 52.6777 114.025 54.6816 114.014 57.3418V58.9766C114.014 61.6602 114.523 63.6875 115.543 65.0586C116.562 66.4297 118.057 67.1152 120.025 67.1152C122.006 67.1152 123.418 66.6934 124.262 65.8496V61.4375H119.463V57.5527H129.535V67.7656ZM132.699 61.3145C132.699 59.4277 133.062 57.7461 133.789 56.2695C134.516 54.793 135.559 53.6504 136.918 52.8418C138.289 52.0332 139.877 51.6289 141.682 51.6289C144.248 51.6289 146.34 52.4141 147.957 53.9844C149.586 55.5547 150.494 57.6875 150.682 60.3828L150.717 61.6836C150.717 64.6016 149.902 66.9453 148.273 68.7148C146.645 70.4727 144.459 71.3516 141.717 71.3516C138.975 71.3516 136.783 70.4727 135.143 68.7148C133.514 66.957 132.699 64.5664 132.699 61.543V61.3145ZM137.779 61.6836C137.779 63.4883 138.119 64.8711 138.799 65.832C139.479 66.7812 140.451 67.2559 141.717 67.2559C142.947 67.2559 143.908 66.7871 144.6 65.8496C145.291 64.9004 145.637 63.3887 145.637 61.3145C145.637 59.5449 145.291 58.1738 144.6 57.2012C143.908 56.2285 142.936 55.7422 141.682 55.7422C140.439 55.7422 139.479 56.2285 138.799 57.2012C138.119 58.1621 137.779 59.6562 137.779 61.6836ZM153.055 61.3145C153.055 59.4277 153.418 57.7461 154.145 56.2695C154.871 54.793 155.914 53.6504 157.273 52.8418C158.645 52.0332 160.232 51.6289 162.037 51.6289C164.604 51.6289 166.695 52.4141 168.312 53.9844C169.941 55.5547 170.85 57.6875 171.037 60.3828L171.072 61.6836C171.072 64.6016 170.258 66.9453 168.629 68.7148C167 70.4727 164.814 71.3516 162.072 71.3516C159.33 71.3516 157.139 70.4727 155.498 68.7148C153.869 66.957 153.055 64.5664 153.055 61.543V61.3145ZM158.135 61.6836C158.135 63.4883 158.475 64.8711 159.154 65.832C159.834 66.7812 160.807 67.2559 162.072 67.2559C163.303 67.2559 164.264 66.7871 164.955 65.8496C165.646 64.9004 165.992 63.3887 165.992 61.3145C165.992 59.5449 165.646 58.1738 164.955 57.2012C164.264 56.2285 163.291 55.7422 162.037 55.7422C160.795 55.7422 159.834 56.2285 159.154 57.2012C158.475 58.1621 158.135 59.6562 158.135 61.6836ZM173.463 61.3496C173.463 58.4316 174.154 56.082 175.537 54.3008C176.932 52.5195 178.807 51.6289 181.162 51.6289C183.248 51.6289 184.871 52.3438 186.031 53.7734L186.242 51.9805H190.848V70.3672C190.848 72.0312 190.467 73.4785 189.705 74.709C188.955 75.9395 187.895 76.877 186.523 77.5215C185.152 78.166 183.547 78.4883 181.707 78.4883C180.312 78.4883 178.953 78.207 177.629 77.6445C176.305 77.0938 175.303 76.3789 174.623 75.5L176.873 72.4062C178.139 73.8242 179.674 74.5332 181.479 74.5332C182.826 74.5332 183.875 74.1699 184.625 73.4434C185.375 72.7285 185.75 71.709 185.75 70.3848V69.3652C184.578 70.6895 183.037 71.3516 181.127 71.3516C178.842 71.3516 176.99 70.4609 175.572 68.6797C174.166 66.8867 173.463 64.5137 173.463 61.5605V61.3496ZM178.543 61.7188C178.543 63.4414 178.889 64.7949 179.58 65.7793C180.271 66.752 181.221 67.2383 182.428 67.2383C183.975 67.2383 185.082 66.6582 185.75 65.498V57.5C185.07 56.3398 183.975 55.7598 182.463 55.7598C181.244 55.7598 180.283 56.2578 179.58 57.2539C178.889 58.25 178.543 59.7383 178.543 61.7188ZM200.129 71H195.031V44H200.129V71ZM213.084 71.3516C210.295 71.3516 208.021 70.4961 206.264 68.7852C204.518 67.0742 203.645 64.7949 203.645 61.9473V61.4551C203.645 59.5449 204.014 57.8398 204.752 56.3398C205.49 54.8281 206.533 53.668 207.881 52.8594C209.24 52.0391 210.787 51.6289 212.521 51.6289C215.123 51.6289 217.168 52.4492 218.656 54.0898C220.156 55.7305 220.906 58.0566 220.906 61.0684V63.1426H208.795C208.959 64.3848 209.451 65.3809 210.271 66.1309C211.104 66.8809 212.152 67.2559 213.418 67.2559C215.375 67.2559 216.904 66.5469 218.006 65.1289L220.502 67.9238C219.74 69.002 218.709 69.8457 217.408 70.4551C216.107 71.0527 214.666 71.3516 213.084 71.3516ZM212.504 55.7422C211.496 55.7422 210.676 56.082 210.043 56.7617C209.422 57.4414 209.023 58.4141 208.848 59.6797H215.914V59.2754C215.891 58.1504 215.586 57.2832 215 56.6738C214.414 56.0527 213.582 55.7422 212.504 55.7422ZM238.379 61.9824V71H233.105V45.4062H243.09C245.012 45.4062 246.699 45.7578 248.152 46.4609C249.617 47.1641 250.742 48.166 251.527 49.4668C252.312 50.7559 252.705 52.2266 252.705 53.8789C252.705 56.3867 251.844 58.3672 250.121 59.8203C248.41 61.2617 246.037 61.9824 243.002 61.9824H238.379ZM238.379 57.7109H243.09C244.484 57.7109 245.545 57.3828 246.271 56.7266C247.01 56.0703 247.379 55.1328 247.379 53.9141C247.379 52.6602 247.01 51.6465 246.271 50.873C245.533 50.0996 244.514 49.7012 243.213 49.6777H238.379V57.7109ZM261.371 71H256.273V44H261.371V71ZM276.594 71C276.359 70.543 276.189 69.9746 276.084 69.2949C274.854 70.666 273.254 71.3516 271.285 71.3516C269.422 71.3516 267.875 70.8125 266.645 69.7344C265.426 68.6562 264.816 67.2969 264.816 65.6562C264.816 63.6406 265.561 62.0938 267.049 61.0156C268.549 59.9375 270.711 59.3926 273.535 59.3809H275.873V58.291C275.873 57.4121 275.645 56.709 275.188 56.1816C274.742 55.6543 274.033 55.3906 273.061 55.3906C272.205 55.3906 271.531 55.5957 271.039 56.0059C270.559 56.416 270.318 56.9785 270.318 57.6934H265.238C265.238 56.5918 265.578 55.5723 266.258 54.6348C266.938 53.6973 267.898 52.9648 269.141 52.4375C270.383 51.8984 271.777 51.6289 273.324 51.6289C275.668 51.6289 277.525 52.2207 278.896 53.4043C280.279 54.5762 280.971 56.2285 280.971 58.3613V66.6055C280.982 68.4102 281.234 69.7754 281.727 70.7012V71H276.594ZM272.393 67.4668C273.143 67.4668 273.834 67.3027 274.467 66.9746C275.1 66.6348 275.568 66.1836 275.873 65.6211V62.3516H273.975C271.432 62.3516 270.078 63.2305 269.914 64.9883L269.896 65.2871C269.896 65.9199 270.119 66.4414 270.564 66.8516C271.01 67.2617 271.619 67.4668 272.393 67.4668ZM291.693 63.8105L295.209 51.9805H300.658L293.012 73.9531L292.59 74.9551C291.453 77.4395 289.578 78.6816 286.965 78.6816C286.227 78.6816 285.477 78.5703 284.715 78.3477V74.498L285.488 74.5156C286.449 74.5156 287.164 74.3691 287.633 74.0762C288.113 73.7832 288.488 73.2969 288.758 72.6172L289.355 71.0527L282.693 51.9805H288.16L291.693 63.8105Z" fill="black"/>
<path fill-rule="evenodd" clip-rule="evenodd" d="M90.488 43.7981C92.7497 44.8894 92.7497 48.1106 90.488 49.2019L62.5979 62.6588L51.5185 47.6069L63.2418 30.6519L90.488 43.7981ZM62.3411 30.2173L50.8991 46.7654L25.7082 12.5421L62.3411 30.2173ZM50.3054 47.6242L23.8071 11.6248L18.7242 9.17235C16.7322 8.21124 14.4205 9.66258 14.4205 11.8743V81.1257C14.4205 83.3374 16.7322 84.7888 18.7242 83.8277L28.5514 79.086L50.3054 47.6242ZM50.9247 48.4656L30.354 78.2163L61.6933 63.0953L50.9247 48.4656Z" fill="#434040"/>
</svg>
