<svg width="309" height="94" viewBox="0 0 309 94" fill="none" xmlns="http://www.w3.org/2000/svg">
<path d="M10 0.5H299C304.247 0.5 308.5 4.7533 308.5 10V84C308.5 89.2467 304.247 93.5 299 93.5H10C4.7533 93.5 0.5 89.2467 0.5 84V10C0.5 4.75329 4.7533 0.5 10 0.5Z" stroke="black"/>
<path fill-rule="evenodd" clip-rule="evenodd" d="M22.3809 8.19049C21.504 9.12848 21 10.5722 21 12.4481V79.1755C21 81.0515 21.504 82.4952 22.4137 83.4005L22.6514 83.6004L60.2185 46.2115V45.3714L22.6186 7.99066L22.3809 8.19049V8.19049Z" fill="url(#paint0_linear)"/>
<path fill-rule="evenodd" clip-rule="evenodd" d="M72.7163 58.7234L60.1857 46.2482V45.3755L72.7204 32.9003L72.9909 33.0675L87.8161 41.4522C92.0613 43.8339 92.0613 47.7571 87.8161 50.1714L72.9909 58.5562C72.9868 58.5562 72.7163 58.7234 72.7163 58.7234V58.7234Z" fill="url(#paint1_linear)"/>
<path fill-rule="evenodd" clip-rule="evenodd" d="M72.9868 58.5562L60.1857 45.8118L22.3809 83.4372C23.7618 84.9136 26.0852 85.0808 28.6831 83.6371L72.9868 58.5562Z" fill="url(#paint2_linear)"/>
<path fill-rule="evenodd" clip-rule="evenodd" d="M72.9868 33.0718L28.6831 8.02357C26.0893 6.54726 23.7618 6.7471 22.3809 8.2234L60.1816 45.8121L72.9868 33.0718Z" fill="url(#paint3_linear)"/>
<path opacity="0.2" fill-rule="evenodd" clip-rule="evenodd" d="M72.7163 58.287L28.7158 83.1681C26.2573 84.5751 24.065 84.4772 22.6513 83.2007L22.4137 83.4373L22.6513 83.6371C24.065 84.9095 26.2573 85.0114 28.7158 83.6045L73.0195 58.5562L72.7163 58.287V58.287Z" fill="black"/>
<path opacity="0.12" fill-rule="evenodd" clip-rule="evenodd" d="M87.8121 49.735L72.6836 58.287L72.9541 58.5562L87.7793 50.1714C89.9019 48.9642 90.9468 47.3901 90.9468 45.8118C90.8116 47.2555 89.7339 48.6298 87.8121 49.735V49.735Z" fill="black"/>
<path opacity="0.25" fill-rule="evenodd" clip-rule="evenodd" d="M28.6831 8.45965L87.8121 41.8927C89.7339 42.9652 90.8115 44.3722 90.9796 45.8159C90.9796 44.2417 89.9347 42.6635 87.8121 41.4563L28.6831 8.02329C24.4379 5.609 21 7.61955 21 12.4481V12.8845C21 8.05591 24.4379 6.07799 28.6831 8.45965Z" fill="white"/>
<path d="M105.393 56V35.3828H111.213C113.007 35.3828 114.592 35.7793 115.971 36.5723C117.349 37.3652 118.411 38.4933 119.157 39.9565C119.912 41.4198 120.294 43.1001 120.304 44.9976V46.3145C120.304 48.2591 119.926 49.9631 119.171 51.4263C118.425 52.8895 117.354 54.0129 115.957 54.7964C114.569 55.5799 112.95 55.9811 111.1 56H105.393ZM108.112 37.6201V53.7769H110.972C113.068 53.7769 114.696 53.1255 115.857 51.8228C117.028 50.52 117.613 48.665 117.613 46.2578V45.0542C117.613 42.7131 117.061 40.8958 115.957 39.6025C114.861 38.2998 113.304 37.639 111.284 37.6201H108.112ZM123.32 48.1978C123.32 46.6968 123.612 45.3468 124.198 44.1479C124.792 42.9491 125.614 42.0239 126.662 41.3726C127.719 40.7212 128.923 40.3955 130.272 40.3955C132.359 40.3955 134.044 41.1177 135.328 42.562C136.621 44.0063 137.268 45.9274 137.268 48.3252V48.5093C137.268 50.0008 136.98 51.3413 136.404 52.5308C135.837 53.7108 135.021 54.6312 133.954 55.292C132.897 55.9528 131.679 56.2832 130.301 56.2832C128.224 56.2832 126.539 55.561 125.246 54.1167C123.962 52.6724 123.32 50.7607 123.32 48.3818V48.1978ZM125.954 48.5093C125.954 50.2085 126.345 51.5726 127.129 52.6016C127.922 53.6305 128.979 54.145 130.301 54.145C131.632 54.145 132.689 53.6258 133.473 52.5874C134.256 51.5396 134.648 50.0763 134.648 48.1978C134.648 46.5174 134.247 45.158 133.444 44.1196C132.651 43.0718 131.594 42.5479 130.272 42.5479C128.979 42.5479 127.936 43.0623 127.143 44.0913C126.35 45.1203 125.954 46.5929 125.954 48.5093ZM154.118 52.3892L157.063 40.6787H159.683L155.223 56H153.099L149.375 44.3887L145.75 56H143.625L139.179 40.6787H141.785L144.801 52.1484L148.369 40.6787H150.479L154.118 52.3892ZM164.837 40.6787L164.922 42.6045C166.093 41.1318 167.622 40.3955 169.51 40.3955C172.748 40.3955 174.381 42.2222 174.41 45.8755V56H171.79V45.8613C171.781 44.7568 171.526 43.9403 171.025 43.4116C170.535 42.883 169.765 42.6187 168.717 42.6187C167.868 42.6187 167.122 42.8452 166.48 43.2983C165.838 43.7515 165.338 44.3462 164.979 45.0825V56H162.359V40.6787H164.837ZM181.207 56H178.587V34.25H181.207V56ZM184.718 48.1978C184.718 46.6968 185.011 45.3468 185.596 44.1479C186.191 42.9491 187.012 42.0239 188.06 41.3726C189.117 40.7212 190.321 40.3955 191.671 40.3955C193.757 40.3955 195.442 41.1177 196.726 42.562C198.019 44.0063 198.666 45.9274 198.666 48.3252V48.5093C198.666 50.0008 198.378 51.3413 197.802 52.5308C197.236 53.7108 196.419 54.6312 195.353 55.292C194.295 55.9528 193.077 56.2832 191.699 56.2832C189.622 56.2832 187.937 55.561 186.644 54.1167C185.36 52.6724 184.718 50.7607 184.718 48.3818V48.1978ZM187.352 48.5093C187.352 50.2085 187.744 51.5726 188.527 52.6016C189.32 53.6305 190.378 54.145 191.699 54.145C193.03 54.145 194.088 53.6258 194.871 52.5874C195.655 51.5396 196.046 50.0763 196.046 48.1978C196.046 46.5174 195.645 45.158 194.843 44.1196C194.05 43.0718 192.993 42.5479 191.671 42.5479C190.378 42.5479 189.334 43.0623 188.542 44.0913C187.749 45.1203 187.352 46.5929 187.352 48.5093ZM211.41 56C211.259 55.6979 211.136 55.1598 211.042 54.3857C209.824 55.6507 208.37 56.2832 206.681 56.2832C205.17 56.2832 203.929 55.8584 202.957 55.0088C201.994 54.1497 201.512 53.0641 201.512 51.752C201.512 50.1566 202.116 48.9199 203.325 48.042C204.542 47.1546 206.251 46.7109 208.451 46.7109H211V45.5073C211 44.5916 210.726 43.8647 210.178 43.3267C209.631 42.7791 208.824 42.5054 207.757 42.5054C206.822 42.5054 206.039 42.7414 205.406 43.2134C204.774 43.6854 204.458 44.2565 204.458 44.9268H201.824C201.824 44.1621 202.093 43.4258 202.631 42.7178C203.178 42.0003 203.915 41.4339 204.84 41.0186C205.774 40.6032 206.799 40.3955 207.913 40.3955C209.678 40.3955 211.061 40.8392 212.062 41.7266C213.062 42.6045 213.581 43.8175 213.619 45.3657V52.4175C213.619 53.8241 213.799 54.9427 214.157 55.7734V56H211.41ZM207.063 54.0034C207.884 54.0034 208.663 53.791 209.399 53.3662C210.136 52.9414 210.669 52.3892 211 51.7095V48.5659H208.946C205.737 48.5659 204.132 49.5052 204.132 51.3838C204.132 52.2051 204.406 52.847 204.953 53.3096C205.501 53.7721 206.204 54.0034 207.063 54.0034ZM217.088 48.2119C217.088 45.8613 217.645 43.9733 218.759 42.5479C219.873 41.113 221.332 40.3955 223.135 40.3955C224.928 40.3955 226.349 41.0091 227.397 42.2363V34.25H230.017V56H227.609L227.482 54.3574C226.434 55.6413 224.976 56.2832 223.106 56.2832C221.332 56.2832 219.883 55.5563 218.759 54.1025C217.645 52.6488 217.088 50.7513 217.088 48.4102V48.2119ZM219.708 48.5093C219.708 50.2463 220.067 51.6056 220.784 52.5874C221.502 53.5692 222.493 54.0601 223.758 54.0601C225.419 54.0601 226.632 53.3143 227.397 51.8228V44.7852C226.613 43.3408 225.41 42.6187 223.786 42.6187C222.502 42.6187 221.502 43.1143 220.784 44.1055C220.067 45.0967 219.708 46.5646 219.708 48.5093ZM243.766 40.6787L243.851 42.6045C245.022 41.1318 246.551 40.3955 248.439 40.3955C251.677 40.3955 253.31 42.2222 253.338 45.8755V56H250.719V45.8613C250.709 44.7568 250.454 43.9403 249.954 43.4116C249.463 42.883 248.694 42.6187 247.646 42.6187C246.796 42.6187 246.051 42.8452 245.409 43.2983C244.767 43.7515 244.266 44.3462 243.908 45.0825V56H241.288V40.6787H243.766ZM256.595 48.1978C256.595 46.6968 256.888 45.3468 257.473 44.1479C258.068 42.9491 258.889 42.0239 259.937 41.3726C260.994 40.7212 262.198 40.3955 263.548 40.3955C265.634 40.3955 267.319 41.1177 268.603 42.562C269.896 44.0063 270.543 45.9274 270.543 48.3252V48.5093C270.543 50.0008 270.255 51.3413 269.679 52.5308C269.113 53.7108 268.296 54.6312 267.229 55.292C266.172 55.9528 264.954 56.2832 263.576 56.2832C261.499 56.2832 259.814 55.561 258.521 54.1167C257.237 52.6724 256.595 50.7607 256.595 48.3818V48.1978ZM259.229 48.5093C259.229 50.2085 259.621 51.5726 260.404 52.6016C261.197 53.6305 262.255 54.145 263.576 54.145C264.907 54.145 265.965 53.6258 266.748 52.5874C267.532 51.5396 267.923 50.0763 267.923 48.1978C267.923 46.5174 267.522 45.158 266.72 44.1196C265.927 43.0718 264.869 42.5479 263.548 42.5479C262.255 42.5479 261.211 43.0623 260.418 44.0913C259.625 45.1203 259.229 46.5929 259.229 48.5093ZM287.394 52.3892L290.339 40.6787H292.958L288.498 56H286.374L282.65 44.3887L279.025 56H276.901L272.455 40.6787H275.06L278.076 52.1484L281.645 40.6787H283.754L287.394 52.3892Z" fill="white"/>
<defs>
<linearGradient id="paint0_linear" x1="56.8452" y1="11.7309" x2="-3.29286" y2="27.8311" gradientUnits="userSpaceOnUse">
<stop stop-color="#00A0FF"/>
<stop offset="0.007" stop-color="#00A1FF"/>
<stop offset="0.26" stop-color="#00BEFF"/>
<stop offset="0.512" stop-color="#00D2FF"/>
<stop offset="0.76" stop-color="#00DFFF"/>
<stop offset="1" stop-color="#00E3FF"/>
</linearGradient>
<linearGradient id="paint1_linear" x1="93.3402" y1="45.8137" x2="19.9682" y2="45.8137" gradientUnits="userSpaceOnUse">
<stop stop-color="#FFE000"/>
<stop offset="0.409" stop-color="#FFBD00"/>
<stop offset="0.775" stop-color="#FFA500"/>
<stop offset="1" stop-color="#FF9C00"/>
</linearGradient>
<linearGradient id="paint2_linear" x1="66.026" y1="52.7448" x2="18.0552" y2="133.868" gradientUnits="userSpaceOnUse">
<stop stop-color="#FF3A44"/>
<stop offset="1" stop-color="#C31162"/>
</linearGradient>
<linearGradient id="paint3_linear" x1="12.8645" y1="-14.006" x2="34.2656" y2="22.2246" gradientUnits="userSpaceOnUse">
<stop stop-color="#32A071"/>
<stop offset="0.069" stop-color="#2DA771"/>
<stop offset="0.476" stop-color="#15CF74"/>
<stop offset="0.801" stop-color="#06E775"/>
<stop offset="1" stop-color="#00F076"/>
</linearGradient>
</defs>
</svg>
