<svg width="309" height="94" viewBox="0 0 309 94" fill="none" xmlns="http://www.w3.org/2000/svg">
<path d="M0.5 10C0.5 4.75329 4.7533 0.5 10 0.5H299C304.247 0.5 308.5 4.75329 308.5 10V84C308.5 89.2467 304.247 93.5 299 93.5H10C4.7533 93.5 0.5 89.2467 0.5 84V10Z" stroke="black"/>
<path fill-rule="evenodd" clip-rule="evenodd" d="M22.3809 8.19049C21.504 9.12848 21 10.5722 21 12.4481V79.1755C21 81.0515 21.504 82.4952 22.4137 83.4005L22.6514 83.6004L60.2185 46.2115V45.3714L22.6186 7.99066L22.3809 8.19049Z" fill="url(#paint0_linear)"/>
<path fill-rule="evenodd" clip-rule="evenodd" d="M72.7163 58.7234L60.1857 46.2482V45.3755L72.7204 32.9003L72.9909 33.0675L87.8161 41.4522C92.0613 43.8339 92.0613 47.7571 87.8161 50.1714L72.9909 58.5562C72.9868 58.5562 72.7163 58.7234 72.7163 58.7234Z" fill="url(#paint1_linear)"/>
<path fill-rule="evenodd" clip-rule="evenodd" d="M72.9868 58.5562L60.1857 45.8118L22.3809 83.4372C23.7618 84.9136 26.0852 85.0808 28.6831 83.6371L72.9868 58.5562Z" fill="url(#paint2_linear)"/>
<path fill-rule="evenodd" clip-rule="evenodd" d="M72.9868 33.0718L28.6831 8.02357C26.0893 6.54726 23.7618 6.7471 22.3809 8.2234L60.1816 45.8121L72.9868 33.0718Z" fill="url(#paint3_linear)"/>
<path opacity="0.2" fill-rule="evenodd" clip-rule="evenodd" d="M72.7163 58.287L28.7158 83.1681C26.2573 84.5751 24.065 84.4772 22.6513 83.2007L22.4137 83.4373L22.6513 83.6371C24.065 84.9095 26.2573 85.0114 28.7158 83.6045L73.0195 58.5562L72.7163 58.287Z" fill="black"/>
<path opacity="0.12" fill-rule="evenodd" clip-rule="evenodd" d="M87.8121 49.735L72.6836 58.287L72.9541 58.5562L87.7793 50.1714C89.9019 48.9642 90.9468 47.3901 90.9468 45.8118C90.8116 47.2555 89.7339 48.6298 87.8121 49.735Z" fill="black"/>
<path opacity="0.25" fill-rule="evenodd" clip-rule="evenodd" d="M28.6831 8.45965L87.8121 41.8927C89.7339 42.9652 90.8115 44.3722 90.9796 45.8159C90.9796 44.2417 89.9346 42.6635 87.8121 41.4563L28.6831 8.02329C24.4379 5.609 21 7.61955 21 12.4481V12.8845C21 8.05591 24.4379 6.07799 28.6831 8.45965Z" fill="white"/>
<path d="M117.245 47.5747H109.089V56H104.841V35.3828H118.265V38.8237H109.089V44.1479H117.245V47.5747ZM128.701 44.5161C128.144 44.4406 127.653 44.4028 127.228 44.4028C125.68 44.4028 124.665 44.9268 124.184 45.9746V56H120.091V40.6787H123.957L124.07 42.5054C124.892 41.0988 126.029 40.3955 127.483 40.3955C127.936 40.3955 128.361 40.4569 128.757 40.5796L128.701 44.5161ZM137.452 56.2832C135.205 56.2832 133.374 55.5941 131.958 54.2158C130.551 52.8376 129.848 51.0015 129.848 48.7075V48.311C129.848 46.7723 130.145 45.3988 130.74 44.1904C131.334 42.9727 132.175 42.0381 133.26 41.3867C134.355 40.7259 135.601 40.3955 136.999 40.3955C139.094 40.3955 140.742 41.0563 141.94 42.3779C143.149 43.6995 143.753 45.5734 143.753 47.9995V49.6704H133.997C134.129 50.6711 134.525 51.4735 135.186 52.0776C135.856 52.6818 136.701 52.9839 137.721 52.9839C139.297 52.9839 140.529 52.4128 141.417 51.2705L143.427 53.522C142.814 54.3905 141.983 55.0701 140.935 55.561C139.887 56.0425 138.726 56.2832 137.452 56.2832ZM136.984 43.709C136.173 43.709 135.512 43.9827 135.002 44.5303C134.502 45.0778 134.181 45.8613 134.039 46.8809H139.731V46.5552C139.713 45.6489 139.467 44.9504 138.995 44.4595C138.523 43.9591 137.853 43.709 136.984 43.709ZM153.141 56.2832C150.894 56.2832 149.063 55.5941 147.647 54.2158C146.24 52.8376 145.537 51.0015 145.537 48.7075V48.311C145.537 46.7723 145.834 45.3988 146.429 44.1904C147.024 42.9727 147.864 42.0381 148.95 41.3867C150.045 40.7259 151.291 40.3955 152.688 40.3955C154.784 40.3955 156.431 41.0563 157.63 42.3779C158.838 43.6995 159.442 45.5734 159.442 47.9995V49.6704H149.686C149.818 50.6711 150.215 51.4735 150.875 52.0776C151.546 52.6818 152.391 52.9839 153.41 52.9839C154.987 52.9839 156.219 52.4128 157.106 51.2705L159.117 53.522C158.503 54.3905 157.672 55.0701 156.625 55.561C155.577 56.0425 154.416 56.2832 153.141 56.2832ZM152.674 43.709C151.862 43.709 151.201 43.9827 150.691 44.5303C150.191 45.0778 149.87 45.8613 149.729 46.8809H155.421V46.5552C155.402 45.6489 155.157 44.9504 154.685 44.4595C154.213 43.9591 153.542 43.709 152.674 43.709ZM169.27 56V35.3828H175.613C177.426 35.3828 179.045 35.7935 180.47 36.6147C181.905 37.4266 183.024 38.5877 183.826 40.0981C184.629 41.5991 185.03 43.3078 185.03 45.2241V46.1729C185.03 48.0892 184.633 49.7931 183.84 51.2847C183.057 52.7762 181.948 53.9326 180.513 54.7539C179.078 55.5752 177.459 55.9906 175.656 56H169.27ZM173.518 38.8237V52.5874H175.571C177.232 52.5874 178.502 52.0446 179.38 50.959C180.258 49.8734 180.706 48.3205 180.725 46.3003V45.21C180.725 43.1143 180.291 41.5283 179.422 40.4521C178.554 39.3665 177.284 38.8237 175.613 38.8237H173.518ZM187.225 48.1978C187.225 46.6779 187.517 45.3232 188.103 44.1338C188.688 42.9443 189.528 42.0239 190.623 41.3726C191.728 40.7212 193.007 40.3955 194.46 40.3955C196.528 40.3955 198.213 41.028 199.516 42.293C200.828 43.5579 201.559 45.276 201.71 47.4473L201.739 48.4951C201.739 50.8457 201.083 52.7337 199.771 54.1592C198.458 55.5752 196.698 56.2832 194.489 56.2832C192.28 56.2832 190.514 55.5752 189.193 54.1592C187.881 52.7432 187.225 50.8174 187.225 48.3818V48.1978ZM191.317 48.4951C191.317 49.9489 191.591 51.0628 192.138 51.8369C192.686 52.6016 193.469 52.9839 194.489 52.9839C195.48 52.9839 196.254 52.6063 196.811 51.8511C197.368 51.0864 197.646 49.8687 197.646 48.1978C197.646 46.7723 197.368 45.6678 196.811 44.8843C196.254 44.1007 195.471 43.709 194.46 43.709C193.46 43.709 192.686 44.1007 192.138 44.8843C191.591 45.6584 191.317 46.862 191.317 48.4951ZM217.584 50.4351L219.595 40.6787H223.545L219.637 56H216.21L213.308 46.3569L210.405 56H206.992L203.084 40.6787H207.035L209.031 50.4209L211.835 40.6787H214.794L217.584 50.4351ZM229.351 40.6787L229.479 42.4487C230.574 41.0799 232.042 40.3955 233.882 40.3955C235.506 40.3955 236.714 40.8722 237.507 41.8257C238.3 42.7791 238.706 44.2046 238.725 46.1021V56H234.633V46.2012C234.633 45.3327 234.444 44.7049 234.066 44.3179C233.689 43.9214 233.061 43.7231 232.183 43.7231C231.031 43.7231 230.168 44.214 229.592 45.1958V56H225.5V40.6787H229.351ZM246.159 56H242.053V34.25H246.159V56ZM248.906 48.1978C248.906 46.6779 249.199 45.3232 249.784 44.1338C250.369 42.9443 251.21 42.0239 252.305 41.3726C253.409 40.7212 254.688 40.3955 256.142 40.3955C258.209 40.3955 259.895 41.028 261.197 42.293C262.509 43.5579 263.241 45.276 263.392 47.4473L263.42 48.4951C263.42 50.8457 262.764 52.7337 261.452 54.1592C260.14 55.5752 258.379 56.2832 256.17 56.2832C253.961 56.2832 252.196 55.5752 250.875 54.1592C249.562 52.7432 248.906 50.8174 248.906 48.3818V48.1978ZM252.999 48.4951C252.999 49.9489 253.272 51.0628 253.82 51.8369C254.367 52.6016 255.151 52.9839 256.17 52.9839C257.162 52.9839 257.936 52.6063 258.493 51.8511C259.05 51.0864 259.328 49.8687 259.328 48.1978C259.328 46.7723 259.05 45.6678 258.493 44.8843C257.936 44.1007 257.152 43.709 256.142 43.709C255.141 43.709 254.367 44.1007 253.82 44.8843C253.272 45.6584 252.999 46.862 252.999 48.4951ZM274.819 56C274.631 55.6318 274.494 55.174 274.409 54.6265C273.417 55.731 272.129 56.2832 270.543 56.2832C269.042 56.2832 267.796 55.849 266.805 54.9805C265.823 54.112 265.332 53.0169 265.332 51.6953C265.332 50.0716 265.931 48.8255 267.13 47.957C268.339 47.0885 270.08 46.6496 272.355 46.6401H274.239V45.7622C274.239 45.0542 274.055 44.4878 273.687 44.063C273.328 43.6382 272.757 43.4258 271.973 43.4258C271.284 43.4258 270.741 43.591 270.345 43.9214C269.958 44.2518 269.764 44.7049 269.764 45.2808H265.672C265.672 44.3934 265.946 43.5721 266.493 42.8169C267.041 42.0617 267.815 41.4717 268.815 41.0469C269.816 40.6126 270.939 40.3955 272.186 40.3955C274.074 40.3955 275.57 40.8722 276.674 41.8257C277.788 42.7697 278.345 44.1007 278.345 45.8188V52.46C278.355 53.9137 278.558 55.0135 278.954 55.7593V56H274.819ZM271.435 53.1538C272.039 53.1538 272.596 53.0216 273.106 52.7573C273.616 52.4836 273.993 52.1201 274.239 51.667V49.0332H272.709C270.661 49.0332 269.571 49.7412 269.438 51.1572L269.424 51.3979C269.424 51.9077 269.604 52.3278 269.962 52.6582C270.321 52.9886 270.812 53.1538 271.435 53.1538ZM280.852 48.2261C280.852 45.8377 281.385 43.9355 282.452 42.5195C283.528 41.1035 284.996 40.3955 286.855 40.3955C288.347 40.3955 289.579 40.9525 290.551 42.0664V34.25H294.658V56H290.962L290.764 54.3716C289.744 55.646 288.432 56.2832 286.827 56.2832C285.024 56.2832 283.575 55.5752 282.48 54.1592C281.394 52.7337 280.852 50.756 280.852 48.2261ZM284.944 48.5234C284.944 49.9583 285.194 51.0581 285.694 51.8228C286.195 52.5874 286.922 52.9697 287.875 52.9697C289.14 52.9697 290.032 52.4364 290.551 51.3696V45.3232C290.042 44.2565 289.159 43.7231 287.903 43.7231C285.93 43.7231 284.944 45.3232 284.944 48.5234Z" fill="white"/>
<defs>
<linearGradient id="paint0_linear" x1="56.8452" y1="11.7309" x2="-3.29286" y2="27.8311" gradientUnits="userSpaceOnUse">
<stop stop-color="#00A0FF"/>
<stop offset="0.007" stop-color="#00A1FF"/>
<stop offset="0.26" stop-color="#00BEFF"/>
<stop offset="0.512" stop-color="#00D2FF"/>
<stop offset="0.76" stop-color="#00DFFF"/>
<stop offset="1" stop-color="#00E3FF"/>
</linearGradient>
<linearGradient id="paint1_linear" x1="93.3402" y1="45.8137" x2="19.9682" y2="45.8137" gradientUnits="userSpaceOnUse">
<stop stop-color="#FFE000"/>
<stop offset="0.409" stop-color="#FFBD00"/>
<stop offset="0.775" stop-color="#FFA500"/>
<stop offset="1" stop-color="#FF9C00"/>
</linearGradient>
<linearGradient id="paint2_linear" x1="66.026" y1="52.7448" x2="18.0552" y2="133.868" gradientUnits="userSpaceOnUse">
<stop stop-color="#FF3A44"/>
<stop offset="1" stop-color="#C31162"/>
</linearGradient>
<linearGradient id="paint3_linear" x1="12.8645" y1="-14.006" x2="34.2656" y2="22.2246" gradientUnits="userSpaceOnUse">
<stop stop-color="#32A071"/>
<stop offset="0.069" stop-color="#2DA771"/>
<stop offset="0.476" stop-color="#15CF74"/>
<stop offset="0.801" stop-color="#06E775"/>
<stop offset="1" stop-color="#00F076"/>
</linearGradient>
</defs>
</svg>
