<svg width="309" height="94" viewBox="0 0 309 94" fill="none" xmlns="http://www.w3.org/2000/svg">
<path d="M10 0.5H299C304.247 0.5 308.5 4.7533 308.5 10V84C308.5 89.2467 304.247 93.5 299 93.5H10C4.7533 93.5 0.5 89.2467 0.5 84V10C0.5 4.75329 4.7533 0.5 10 0.5Z" stroke="black"/>
<path fill-rule="evenodd" clip-rule="evenodd" d="M22.3809 8.19049C21.504 9.12848 21 10.5722 21 12.4481V79.1755C21 81.0515 21.504 82.4952 22.4137 83.4005L22.6514 83.6004L60.2185 46.2115V45.3714L22.6186 7.99066L22.3809 8.19049V8.19049Z" fill="url(#paint0_linear)"/>
<path fill-rule="evenodd" clip-rule="evenodd" d="M72.7163 58.7234L60.1857 46.2482V45.3755L72.7204 32.9003L72.9909 33.0675L87.8161 41.4522C92.0613 43.8339 92.0613 47.7571 87.8161 50.1714L72.9909 58.5562C72.9868 58.5562 72.7163 58.7234 72.7163 58.7234V58.7234Z" fill="url(#paint1_linear)"/>
<path fill-rule="evenodd" clip-rule="evenodd" d="M72.9868 58.5562L60.1857 45.8118L22.3809 83.4372C23.7618 84.9136 26.0852 85.0808 28.6831 83.6371L72.9868 58.5562Z" fill="url(#paint2_linear)"/>
<path fill-rule="evenodd" clip-rule="evenodd" d="M72.9868 33.0718L28.6831 8.02357C26.0893 6.54726 23.7618 6.7471 22.3809 8.2234L60.1816 45.8121L72.9868 33.0718Z" fill="url(#paint3_linear)"/>
<path opacity="0.2" fill-rule="evenodd" clip-rule="evenodd" d="M72.7163 58.287L28.7158 83.1681C26.2573 84.5751 24.065 84.4772 22.6513 83.2007L22.4137 83.4373L22.6513 83.6371C24.065 84.9095 26.2573 85.0114 28.7158 83.6045L73.0195 58.5562L72.7163 58.287V58.287Z" fill="black"/>
<path opacity="0.12" fill-rule="evenodd" clip-rule="evenodd" d="M87.8121 49.735L72.6836 58.287L72.9541 58.5562L87.7793 50.1714C89.9019 48.9642 90.9468 47.3901 90.9468 45.8118C90.8116 47.2555 89.7339 48.6298 87.8121 49.735V49.735Z" fill="black"/>
<path opacity="0.25" fill-rule="evenodd" clip-rule="evenodd" d="M28.6831 8.45965L87.8121 41.8927C89.7339 42.9652 90.8115 44.3722 90.9796 45.8159C90.9796 44.2417 89.9347 42.6635 87.8121 41.4563L28.6831 8.02329C24.4379 5.609 21 7.61955 21 12.4481V12.8845C21 8.05591 24.4379 6.07799 28.6831 8.45965Z" fill="white"/>
<defs>
<linearGradient id="paint0_linear" x1="56.8452" y1="11.7309" x2="-3.29286" y2="27.8311" gradientUnits="userSpaceOnUse">
<stop stop-color="#00A0FF"/>
<stop offset="0.007" stop-color="#00A1FF"/>
<stop offset="0.26" stop-color="#00BEFF"/>
<stop offset="0.512" stop-color="#00D2FF"/>
<stop offset="0.76" stop-color="#00DFFF"/>
<stop offset="1" stop-color="#00E3FF"/>
</linearGradient>
<linearGradient id="paint1_linear" x1="93.3402" y1="45.8137" x2="19.9682" y2="45.8137" gradientUnits="userSpaceOnUse">
<stop stop-color="#FFE000"/>
<stop offset="0.409" stop-color="#FFBD00"/>
<stop offset="0.775" stop-color="#FFA500"/>
<stop offset="1" stop-color="#FF9C00"/>
</linearGradient>
<linearGradient id="paint2_linear" x1="66.026" y1="52.7448" x2="18.0552" y2="133.868" gradientUnits="userSpaceOnUse">
<stop stop-color="#FF3A44"/>
<stop offset="1" stop-color="#C31162"/>
</linearGradient>
<linearGradient id="paint3_linear" x1="12.8645" y1="-14.006" x2="34.2656" y2="22.2246" gradientUnits="userSpaceOnUse">
<stop stop-color="#32A071"/>
<stop offset="0.069" stop-color="#2DA771"/>
<stop offset="0.476" stop-color="#15CF74"/>
<stop offset="0.801" stop-color="#06E775"/>
<stop offset="1" stop-color="#00F076"/>
</linearGradient>
</defs>
</svg>
