<svg width="1272" height="1157" viewBox="0 0 1272 1157" fill="none" xmlns="http://www.w3.org/2000/svg">
<mask id="path-1-inside-1" fill="white">
<path fill-rule="evenodd" clip-rule="evenodd" d="M1116.54 343.542L1147.19 296.855L1092.54 308.363C1020.38 221.611 892.713 202.357 797.604 267.241C696.561 336.173 670.529 473.964 739.461 575.007C808.393 676.05 946.185 702.081 1047.23 633.15C1142.34 568.266 1170.99 442.372 1116.54 343.542Z"/>
</mask>
<path fill-rule="evenodd" clip-rule="evenodd" d="M1116.54 343.542L1147.19 296.855L1092.54 308.363C1020.38 221.611 892.713 202.357 797.604 267.241C696.561 336.173 670.529 473.964 739.461 575.007C808.393 676.05 946.185 702.081 1047.23 633.15C1142.34 568.266 1170.99 442.372 1116.54 343.542Z" fill="#007531"/>
<path fill-rule="evenodd" clip-rule="evenodd" d="M1116.54 343.542L1147.19 296.855L1092.54 308.363C1020.38 221.611 892.713 202.357 797.604 267.241C696.561 336.173 670.529 473.964 739.461 575.007C808.393 676.05 946.185 702.081 1047.23 633.15C1142.34 568.266 1170.99 442.372 1116.54 343.542Z" fill="url(#paint0_linear)"/>
<path d="M1147.19 296.855L1148.02 297.404L1149.35 295.377L1146.98 295.876L1147.19 296.855ZM1116.54 343.542L1115.7 342.994L1115.37 343.497L1115.66 344.025L1116.54 343.542ZM1092.54 308.363L1091.77 309.002L1092.15 309.466L1092.74 309.342L1092.54 308.363ZM1146.35 296.306L1115.7 342.994L1117.37 344.091L1148.02 297.404L1146.35 296.306ZM1092.74 309.342L1147.39 297.833L1146.98 295.876L1092.33 307.384L1092.74 309.342ZM798.167 268.067C892.847 203.476 1019.94 222.643 1091.77 309.002L1093.3 307.724C1020.82 220.579 892.58 201.238 797.04 266.415L798.167 268.067ZM740.287 574.444C671.667 473.857 697.581 336.687 798.167 268.067L797.04 266.415C695.541 335.658 669.392 474.072 738.635 575.571L740.287 574.444ZM1046.66 632.324C946.077 700.944 808.908 675.03 740.287 574.444L738.635 575.571C807.878 677.07 946.292 703.219 1047.79 633.976L1046.66 632.324ZM1115.66 344.025C1169.86 442.407 1141.34 567.733 1046.66 632.324L1047.79 633.976C1143.33 568.798 1172.11 442.336 1117.41 343.06L1115.66 344.025Z" fill="#007531" mask="url(#path-1-inside-1)"/>
<path d="M59.1908 281.896L59.4818 281.974L59.6867 281.753C136.273 199.235 264.509 186.973 355.747 256.77C452.677 330.921 471.143 469.609 396.992 566.539C322.841 663.469 184.152 681.935 87.2223 607.784C-4.01544 537.988 -25.7344 411.01 33.8694 315.501L34.0289 315.246L33.8775 314.985L6.41519 267.75L59.1908 281.896Z" fill="#007531"/>
<path d="M59.1908 281.896L59.4818 281.974L59.6867 281.753C136.273 199.235 264.509 186.973 355.747 256.77C452.677 330.921 471.143 469.609 396.992 566.539C322.841 663.469 184.152 681.935 87.2223 607.784C-4.01544 537.988 -25.7344 411.01 33.8694 315.501L34.0289 315.246L33.8775 314.985L6.41519 267.75L59.1908 281.896Z" fill="url(#paint1_linear)"/>
<path d="M59.1908 281.896L59.4818 281.974L59.6867 281.753C136.273 199.235 264.509 186.973 355.747 256.77C452.677 330.921 471.143 469.609 396.992 566.539C322.841 663.469 184.152 681.935 87.2223 607.784C-4.01544 537.988 -25.7344 411.01 33.8694 315.501L34.0289 315.246L33.8775 314.985L6.41519 267.75L59.1908 281.896Z" stroke="#007531"/>
<mask id="path-4-inside-2" fill="white">
<path fill-rule="evenodd" clip-rule="evenodd" d="M611.482 55.5872L591.034 3.61384L568.902 54.8923C456.415 63.7729 367.03 156.941 365.151 272.059C363.155 394.359 460.681 495.121 582.981 497.117C705.281 499.113 806.042 401.587 808.038 279.287C809.917 164.169 723.619 68.1336 611.482 55.5872Z"/>
</mask>
<path fill-rule="evenodd" clip-rule="evenodd" d="M611.482 55.5872L591.034 3.61384L568.902 54.8923C456.415 63.7729 367.03 156.941 365.151 272.059C363.155 394.359 460.681 495.121 582.981 497.117C705.281 499.113 806.042 401.587 808.038 279.287C809.917 164.169 723.619 68.1336 611.482 55.5872Z" fill="#007531"/>
<path fill-rule="evenodd" clip-rule="evenodd" d="M611.482 55.5872L591.034 3.61384L568.902 54.8923C456.415 63.7729 367.03 156.941 365.151 272.059C363.155 394.359 460.681 495.121 582.981 497.117C705.281 499.113 806.042 401.587 808.038 279.287C809.917 164.169 723.619 68.1336 611.482 55.5872Z" fill="url(#paint2_linear)"/>
<path d="M591.034 3.61384L591.965 3.24773L591.077 0.991213L590.116 3.21756L591.034 3.61384ZM611.482 55.5872L610.551 55.9533L610.772 56.514L611.371 56.581L611.482 55.5872ZM568.902 54.8923L568.98 55.8892L569.581 55.8418L569.82 55.2886L568.902 54.8923ZM590.104 3.97995L610.551 55.9533L612.413 55.2211L591.965 3.24773L590.104 3.97995ZM569.82 55.2886L591.953 4.01012L590.116 3.21756L567.984 54.4961L569.82 55.2886ZM366.151 272.076C368.021 157.478 457.003 64.7296 568.98 55.8892L568.823 53.8954C455.827 62.8162 366.038 156.404 364.151 272.043L366.151 272.076ZM582.997 496.117C461.249 494.13 364.164 393.823 366.151 272.076L364.151 272.043C362.146 394.895 460.112 496.112 582.964 498.117L582.997 496.117ZM807.038 279.271C805.051 401.018 704.745 498.104 582.997 496.117L582.964 498.117C705.816 500.121 807.033 402.155 809.038 279.303L807.038 279.271ZM611.371 56.581C723 69.0706 808.908 164.673 807.038 279.271L809.038 279.303C810.925 163.665 724.238 67.1965 611.593 54.5934L611.371 56.581Z" fill="#007531" mask="url(#path-4-inside-2)"/>
<mask id="path-6-inside-3" fill="white">
<path fill-rule="evenodd" clip-rule="evenodd" d="M159.432 885.713L124.32 929.146L179.841 923.09C243.077 1016.54 368.222 1048.31 469.272 993.13C576.627 934.511 616.135 799.962 557.516 692.607C498.897 585.253 364.348 545.744 256.994 604.364C155.943 659.54 115.005 781.991 159.432 885.713Z"/>
</mask>
<path fill-rule="evenodd" clip-rule="evenodd" d="M159.432 885.713L124.32 929.146L179.841 923.09C243.077 1016.54 368.222 1048.31 469.272 993.13C576.627 934.511 616.135 799.962 557.516 692.607C498.897 585.253 364.348 545.744 256.994 604.364C155.943 659.54 115.005 781.991 159.432 885.713Z" fill="#007531"/>
<path fill-rule="evenodd" clip-rule="evenodd" d="M159.432 885.713L124.32 929.146L179.841 923.09C243.077 1016.54 368.222 1048.31 469.272 993.13C576.627 934.511 616.135 799.962 557.516 692.607C498.897 585.253 364.348 545.744 256.994 604.364C155.943 659.54 115.005 781.991 159.432 885.713Z" fill="url(#paint3_linear)"/>
<path d="M124.32 929.146L123.542 928.518L122.017 930.403L124.428 930.14L124.32 929.146ZM159.432 885.713L160.21 886.342L160.589 885.873L160.351 885.32L159.432 885.713ZM179.841 923.09L180.669 922.53L180.332 922.031L179.733 922.096L179.841 923.09ZM125.097 929.775L160.21 886.342L158.655 885.085L123.542 928.518L125.097 929.775ZM179.733 922.096L124.211 928.152L124.428 930.14L179.95 924.084L179.733 922.096ZM468.793 992.252C368.199 1047.18 243.619 1015.56 180.669 922.53L179.013 923.651C242.535 1017.53 368.244 1049.43 469.751 994.007L468.793 992.252ZM556.638 693.087C614.993 799.957 575.663 933.898 468.793 992.252L469.751 994.007C577.591 935.124 617.277 799.968 558.394 692.128L556.638 693.087ZM257.473 605.241C364.343 546.887 498.284 586.217 556.638 693.087L558.394 692.128C499.51 584.289 364.354 544.602 256.514 603.486L257.473 605.241ZM160.351 885.32C116.125 782.067 156.879 660.169 257.473 605.241L256.514 603.486C155.007 658.912 113.884 781.915 158.513 886.107L160.351 885.32Z" fill="#007531" mask="url(#path-6-inside-3)"/>
<mask id="path-8-inside-4" fill="white">
<path fill-rule="evenodd" clip-rule="evenodd" d="M916.559 981.476L972.155 998.177L946.344 950.555C1021.59 855.728 1006.75 717.752 912.587 641.14C817.706 563.947 678.212 578.285 601.019 673.166C523.825 768.048 538.164 907.542 633.045 984.735C717.327 1053.3 836.81 1049.65 916.559 981.476Z"/>
</mask>
<path fill-rule="evenodd" clip-rule="evenodd" d="M916.559 981.476L972.155 998.177L946.344 950.555C1021.59 855.728 1006.75 717.752 912.587 641.14C817.706 563.947 678.212 578.285 601.019 673.166C523.825 768.048 538.164 907.542 633.045 984.735C717.327 1053.3 836.81 1049.65 916.559 981.476Z" fill="#007531"/>
<path fill-rule="evenodd" clip-rule="evenodd" d="M916.559 981.476L972.155 998.177L946.344 950.555C1021.59 855.728 1006.75 717.752 912.587 641.14C817.706 563.947 678.212 578.285 601.019 673.166C523.825 768.048 538.164 907.542 633.045 984.735C717.327 1053.3 836.81 1049.65 916.559 981.476Z" fill="url(#paint4_linear)"/>
<path d="M972.155 998.177L971.867 999.135L974.19 999.833L973.034 997.701L972.155 998.177ZM916.559 981.476L916.847 980.519L916.324 980.362L915.909 980.716L916.559 981.476ZM946.344 950.555L945.56 949.934L945.15 950.451L945.464 951.032L946.344 950.555ZM972.443 997.22L916.847 980.519L916.272 982.434L971.867 999.135L972.443 997.22ZM945.464 951.032L971.276 998.654L973.034 997.701L947.223 950.079L945.464 951.032ZM911.956 641.916C1005.7 718.181 1020.46 855.535 945.56 949.934L947.127 951.177C1022.71 855.921 1007.81 717.322 913.218 640.364L911.956 641.916ZM601.794 673.798C678.639 579.345 817.503 565.071 911.956 641.916L913.218 640.364C817.909 562.822 677.785 577.226 600.243 672.535L601.794 673.798ZM633.676 983.959C539.223 907.114 524.949 768.25 601.794 673.798L600.243 672.535C522.701 767.845 537.104 907.969 632.414 985.511L633.676 983.959ZM915.909 980.716C836.521 1048.58 717.576 1052.22 633.676 983.959L632.414 985.511C717.077 1054.39 837.099 1050.72 917.209 982.236L915.909 980.716Z" fill="#007531" mask="url(#path-8-inside-4)"/>
<circle opacity="0.7" cx="553.474" cy="582.158" r="278.423" fill="white" fill-opacity="0.5"/>
<circle cx="559.802" cy="575.83" r="221.473" fill="white"/>
<path d="M564.624 481.576C564.624 478.294 565.023 475.681 565.82 473.736C566.616 471.791 568.07 469.88 570.179 468.005C572.312 466.107 573.73 464.572 574.433 463.4C575.136 462.205 575.487 460.951 575.487 459.638C575.487 455.677 573.659 453.697 570.003 453.697C568.269 453.697 566.874 454.236 565.82 455.314C564.788 456.369 564.249 457.834 564.202 459.709H554.007C554.054 455.232 555.495 451.728 558.331 449.197C561.191 446.666 565.081 445.4 570.003 445.4C574.972 445.4 578.827 446.607 581.57 449.021C584.312 451.412 585.683 454.798 585.683 459.181C585.683 461.173 585.237 463.06 584.347 464.841C583.456 466.599 581.898 468.556 579.671 470.712L576.823 473.419C575.042 475.13 574.023 477.134 573.765 479.431L573.624 481.576H564.624ZM563.605 492.369C563.605 490.798 564.132 489.509 565.187 488.501C566.265 487.47 567.636 486.955 569.3 486.955C570.964 486.955 572.323 487.47 573.378 488.501C574.456 489.509 574.995 490.798 574.995 492.369C574.995 493.916 574.468 495.193 573.413 496.201C572.382 497.209 571.011 497.712 569.3 497.712C567.589 497.712 566.206 497.209 565.152 496.201C564.12 495.193 563.605 493.916 563.605 492.369Z" fill="#007531"/>
<path d="M461.742 579.047C461.742 577.719 461.273 576.703 460.336 576C459.398 575.281 457.711 574.531 455.273 573.75C452.836 572.953 450.906 572.172 449.484 571.406C445.609 569.312 443.672 566.492 443.672 562.945C443.672 561.102 444.188 559.461 445.219 558.023C446.266 556.57 447.758 555.438 449.695 554.625C451.648 553.812 453.836 553.406 456.258 553.406C458.695 553.406 460.867 553.852 462.773 554.742C464.68 555.617 466.156 556.859 467.203 558.469C468.266 560.078 468.797 561.906 468.797 563.953H461.766C461.766 562.391 461.273 561.18 460.289 560.32C459.305 559.445 457.922 559.008 456.141 559.008C454.422 559.008 453.086 559.375 452.133 560.109C451.18 560.828 450.703 561.781 450.703 562.969C450.703 564.078 451.258 565.008 452.367 565.758C453.492 566.508 455.141 567.211 457.312 567.867C461.312 569.07 464.227 570.562 466.055 572.344C467.883 574.125 468.797 576.344 468.797 579C468.797 581.953 467.68 584.273 465.445 585.961C463.211 587.633 460.203 588.469 456.422 588.469C453.797 588.469 451.406 587.992 449.25 587.039C447.094 586.07 445.445 584.75 444.305 583.078C443.18 581.406 442.617 579.469 442.617 577.266H449.672C449.672 581.031 451.922 582.914 456.422 582.914C458.094 582.914 459.398 582.578 460.336 581.906C461.273 581.219 461.742 580.266 461.742 579.047ZM472.078 575.086C472.078 572.57 472.562 570.328 473.531 568.359C474.5 566.391 475.891 564.867 477.703 563.789C479.531 562.711 481.648 562.172 484.055 562.172C487.477 562.172 490.266 563.219 492.422 565.312C494.594 567.406 495.805 570.25 496.055 573.844L496.102 575.578C496.102 579.469 495.016 582.594 492.844 584.953C490.672 587.297 487.758 588.469 484.102 588.469C480.445 588.469 477.523 587.297 475.336 584.953C473.164 582.609 472.078 579.422 472.078 575.391V575.086ZM478.852 575.578C478.852 577.984 479.305 579.828 480.211 581.109C481.117 582.375 482.414 583.008 484.102 583.008C485.742 583.008 487.023 582.383 487.945 581.133C488.867 579.867 489.328 577.852 489.328 575.086C489.328 572.727 488.867 570.898 487.945 569.602C487.023 568.305 485.727 567.656 484.055 567.656C482.398 567.656 481.117 568.305 480.211 569.602C479.305 570.883 478.852 572.875 478.852 575.578ZM515.461 585.422C513.789 587.453 511.477 588.469 508.523 588.469C505.805 588.469 503.727 587.688 502.289 586.125C500.867 584.562 500.141 582.273 500.109 579.258V562.641H506.883V579.023C506.883 581.664 508.086 582.984 510.492 582.984C512.789 582.984 514.367 582.188 515.227 580.594V562.641H522.023V588H515.648L515.461 585.422ZM535.242 556.406V562.641H539.578V567.609H535.242V580.266C535.242 581.203 535.422 581.875 535.781 582.281C536.141 582.688 536.828 582.891 537.844 582.891C538.594 582.891 539.258 582.836 539.836 582.727V587.859C538.508 588.266 537.141 588.469 535.734 588.469C530.984 588.469 528.562 586.07 528.469 581.273V567.609H524.766V562.641H528.469V556.406H535.242ZM549.961 565.406C551.758 563.25 554.016 562.172 556.734 562.172C562.234 562.172 565.023 565.367 565.102 571.758V588H558.328V571.945C558.328 570.492 558.016 569.422 557.391 568.734C556.766 568.031 555.727 567.68 554.273 567.68C552.289 567.68 550.852 568.445 549.961 569.977V588H543.188V552H549.961V565.406ZM583.383 576.117H570.188V570.656H583.383V576.117ZM615.844 578.156L620.438 553.875H627.445L619.875 588H612.797L607.242 565.172L601.688 588H594.609L587.039 553.875H594.047L598.664 578.109L604.289 553.875H610.242L615.844 578.156ZM641.742 588.469C638.023 588.469 634.992 587.328 632.648 585.047C630.32 582.766 629.156 579.727 629.156 575.93V575.273C629.156 572.727 629.648 570.453 630.633 568.453C631.617 566.438 633.008 564.891 634.805 563.812C636.617 562.719 638.68 562.172 640.992 562.172C644.461 562.172 647.188 563.266 649.172 565.453C651.172 567.641 652.172 570.742 652.172 574.758V577.523H636.023C636.242 579.18 636.898 580.508 637.992 581.508C639.102 582.508 640.5 583.008 642.188 583.008C644.797 583.008 646.836 582.062 648.305 580.172L651.633 583.898C650.617 585.336 649.242 586.461 647.508 587.273C645.773 588.07 643.852 588.469 641.742 588.469ZM640.969 567.656C639.625 567.656 638.531 568.109 637.688 569.016C636.859 569.922 636.328 571.219 636.094 572.906H645.516V572.367C645.484 570.867 645.078 569.711 644.297 568.898C643.516 568.07 642.406 567.656 640.969 567.656ZM669.773 580.992C669.773 580.164 669.359 579.516 668.531 579.047C667.719 578.562 666.406 578.133 664.594 577.758C658.562 576.492 655.547 573.93 655.547 570.07C655.547 567.82 656.477 565.945 658.336 564.445C660.211 562.93 662.656 562.172 665.672 562.172C668.891 562.172 671.461 562.93 673.383 564.445C675.32 565.961 676.289 567.93 676.289 570.352H669.516C669.516 569.383 669.203 568.586 668.578 567.961C667.953 567.32 666.977 567 665.648 567C664.508 567 663.625 567.258 663 567.773C662.375 568.289 662.062 568.945 662.062 569.742C662.062 570.492 662.414 571.102 663.117 571.57C663.836 572.023 665.039 572.422 666.727 572.766C668.414 573.094 669.836 573.469 670.992 573.891C674.57 575.203 676.359 577.477 676.359 580.711C676.359 583.023 675.367 584.898 673.383 586.336C671.398 587.758 668.836 588.469 665.695 588.469C663.57 588.469 661.68 588.094 660.023 587.344C658.383 586.578 657.094 585.539 656.156 584.227C655.219 582.898 654.75 581.469 654.75 579.938H661.172C661.234 581.141 661.68 582.062 662.508 582.703C663.336 583.344 664.445 583.664 665.836 583.664C667.133 583.664 668.109 583.422 668.766 582.938C669.438 582.438 669.773 581.789 669.773 580.992ZM688.852 556.406V562.641H693.188V567.609H688.852V580.266C688.852 581.203 689.031 581.875 689.391 582.281C689.75 582.688 690.438 582.891 691.453 582.891C692.203 582.891 692.867 582.836 693.445 582.727V587.859C692.117 588.266 690.75 588.469 689.344 588.469C684.594 588.469 682.172 586.07 682.078 581.273V567.609H678.375V562.641H682.078V556.406H688.852Z" fill="#007531"/>
<path d="M119.573 429.324H114.632L101.956 409.148V429.324H97.0146V400.886H101.956L114.671 421.14V400.886H119.573V429.324ZM124.065 418.562C124.065 416.492 124.476 414.63 125.296 412.976C126.116 411.309 127.269 410.033 128.753 409.148C130.237 408.25 131.943 407.8 133.87 407.8C136.722 407.8 139.033 408.718 140.804 410.554C142.588 412.39 143.551 414.825 143.694 417.859L143.714 418.972C143.714 421.056 143.31 422.918 142.503 424.558C141.709 426.199 140.563 427.468 139.065 428.367C137.581 429.265 135.862 429.714 133.909 429.714C130.927 429.714 128.538 428.725 126.741 426.746C124.957 424.753 124.065 422.104 124.065 418.796V418.562ZM128.812 418.972C128.812 421.147 129.261 422.852 130.159 424.089C131.058 425.313 132.308 425.925 133.909 425.925C135.511 425.925 136.754 425.3 137.64 424.05C138.538 422.8 138.987 420.971 138.987 418.562C138.987 416.427 138.525 414.734 137.601 413.484C136.689 412.234 135.446 411.609 133.87 411.609C132.321 411.609 131.09 412.227 130.179 413.464C129.267 414.688 128.812 416.524 128.812 418.972ZM158.792 412.527C158.167 412.423 157.522 412.371 156.858 412.371C154.684 412.371 153.219 413.204 152.464 414.871V429.324H147.718V408.191H152.249L152.366 410.554C153.512 408.718 155.101 407.8 157.132 407.8C157.809 407.8 158.369 407.891 158.812 408.074L158.792 412.527ZM168.714 403.054V408.191H172.444V411.707H168.714V423.503C168.714 424.311 168.87 424.897 169.183 425.261C169.508 425.613 170.081 425.789 170.901 425.789C171.448 425.789 172.002 425.724 172.562 425.593V429.265C171.481 429.565 170.439 429.714 169.437 429.714C165.791 429.714 163.968 427.703 163.968 423.679V411.707H160.491V408.191H163.968V403.054H168.714ZM180.765 410.496C182.314 408.699 184.274 407.8 186.644 407.8C191.149 407.8 193.434 410.372 193.499 415.515V429.324H188.753V415.691C188.753 414.233 188.434 413.204 187.796 412.605C187.171 411.993 186.246 411.687 185.022 411.687C183.121 411.687 181.702 412.533 180.765 414.226V429.324H176.019V399.324H180.765V410.496ZM207.522 419.148H197.269V415.32H207.522V419.148ZM228.519 416.628H216.839V425.378H230.491V429.324H211.897V400.886H230.354V404.871H216.839V412.722H228.519V416.628ZM246.683 429.324C246.474 428.92 246.292 428.263 246.136 427.351C244.625 428.927 242.776 429.714 240.589 429.714C238.466 429.714 236.735 429.109 235.394 427.898C234.052 426.687 233.382 425.19 233.382 423.406C233.382 421.153 234.215 419.428 235.882 418.23C237.562 417.019 239.957 416.414 243.069 416.414H245.979V415.027C245.979 413.933 245.673 413.061 245.062 412.41C244.45 411.746 243.519 411.414 242.269 411.414C241.188 411.414 240.302 411.687 239.612 412.234C238.922 412.768 238.577 413.451 238.577 414.285H233.831C233.831 413.126 234.215 412.045 234.983 411.043C235.752 410.027 236.793 409.233 238.108 408.66C239.437 408.087 240.914 407.8 242.542 407.8C245.016 407.8 246.989 408.425 248.46 409.675C249.931 410.912 250.687 412.657 250.726 414.91V424.441C250.726 426.342 250.992 427.859 251.526 428.992V429.324H246.683ZM241.468 425.906C242.405 425.906 243.284 425.678 244.104 425.222C244.938 424.766 245.563 424.154 245.979 423.386V419.402H243.421C241.663 419.402 240.341 419.708 239.456 420.32C238.571 420.932 238.128 421.798 238.128 422.918C238.128 423.829 238.427 424.558 239.026 425.105C239.638 425.639 240.452 425.906 241.468 425.906ZM267.542 423.582C267.542 422.735 267.19 422.091 266.487 421.648C265.797 421.205 264.645 420.815 263.03 420.476C261.416 420.138 260.068 419.708 258.987 419.187C256.617 418.041 255.433 416.381 255.433 414.207C255.433 412.384 256.201 410.86 257.737 409.636C259.274 408.412 261.227 407.8 263.597 407.8C266.123 407.8 268.16 408.425 269.71 409.675C271.272 410.925 272.054 412.546 272.054 414.539H267.308C267.308 413.627 266.969 412.872 266.292 412.273C265.615 411.661 264.716 411.355 263.597 411.355C262.555 411.355 261.702 411.596 261.038 412.078C260.387 412.559 260.062 413.204 260.062 414.011C260.062 414.74 260.367 415.307 260.979 415.71C261.591 416.114 262.828 416.524 264.69 416.941C266.552 417.345 268.011 417.833 269.065 418.406C270.133 418.966 270.921 419.643 271.429 420.437C271.95 421.231 272.21 422.195 272.21 423.328C272.21 425.229 271.422 426.772 269.847 427.957C268.271 429.128 266.207 429.714 263.655 429.714C261.923 429.714 260.381 429.402 259.026 428.777C257.672 428.152 256.617 427.293 255.862 426.199C255.107 425.105 254.729 423.927 254.729 422.664H259.339C259.404 423.783 259.827 424.649 260.608 425.261C261.39 425.86 262.425 426.16 263.714 426.16C264.964 426.16 265.914 425.925 266.565 425.457C267.216 424.975 267.542 424.35 267.542 423.582ZM282.308 403.054V408.191H286.038V411.707H282.308V423.503C282.308 424.311 282.464 424.897 282.776 425.261C283.102 425.613 283.675 425.789 284.495 425.789C285.042 425.789 285.595 425.724 286.155 425.593V429.265C285.075 429.565 284.033 429.714 283.03 429.714C279.384 429.714 277.562 427.703 277.562 423.679V411.707H274.085V408.191H277.562V403.054H282.308Z" fill="white"/>
<path d="M218.922 846.676C218.922 845.426 218.479 844.462 217.593 843.785C216.721 843.108 215.139 842.424 212.847 841.734C210.556 841.044 208.733 840.276 207.379 839.43C204.788 837.802 203.492 835.68 203.492 833.062C203.492 830.771 204.423 828.883 206.285 827.398C208.16 825.914 210.588 825.172 213.57 825.172C215.549 825.172 217.314 825.536 218.863 826.266C220.413 826.995 221.63 828.036 222.515 829.391C223.401 830.732 223.843 832.223 223.843 833.863H218.922C218.922 832.379 218.453 831.22 217.515 830.387C216.591 829.54 215.263 829.117 213.531 829.117C211.916 829.117 210.66 829.462 209.761 830.152C208.876 830.842 208.433 831.806 208.433 833.043C208.433 834.085 208.915 834.957 209.879 835.66C210.842 836.35 212.431 837.027 214.644 837.691C216.858 838.342 218.635 839.091 219.976 839.938C221.317 840.771 222.301 841.734 222.926 842.828C223.551 843.909 223.863 845.178 223.863 846.637C223.863 849.007 222.952 850.895 221.129 852.301C219.319 853.694 216.858 854.391 213.746 854.391C211.689 854.391 209.794 854.013 208.062 853.258C206.343 852.49 205.002 851.435 204.039 850.094C203.088 848.753 202.613 847.19 202.613 845.406H207.554C207.554 847.021 208.088 848.271 209.156 849.156C210.224 850.042 211.754 850.484 213.746 850.484C215.465 850.484 216.754 850.139 217.613 849.449C218.485 848.746 218.922 847.822 218.922 846.676ZM226.851 843.238C226.851 841.168 227.261 839.306 228.082 837.652C228.902 835.986 230.054 834.71 231.539 833.824C233.023 832.926 234.729 832.477 236.656 832.477C239.508 832.477 241.819 833.395 243.59 835.23C245.373 837.066 246.337 839.501 246.48 842.535L246.5 843.648C246.5 845.732 246.096 847.594 245.289 849.234C244.495 850.875 243.349 852.145 241.851 853.043C240.367 853.941 238.648 854.391 236.695 854.391C233.713 854.391 231.324 853.401 229.527 851.422C227.743 849.43 226.851 846.78 226.851 843.473V843.238ZM231.597 843.648C231.597 845.823 232.047 847.529 232.945 848.766C233.843 849.99 235.093 850.602 236.695 850.602C238.297 850.602 239.54 849.977 240.426 848.727C241.324 847.477 241.773 845.647 241.773 843.238C241.773 841.103 241.311 839.41 240.386 838.16C239.475 836.91 238.232 836.285 236.656 836.285C235.107 836.285 233.876 836.904 232.965 838.141C232.053 839.365 231.597 841.201 231.597 843.648ZM263.316 851.93C261.923 853.57 259.944 854.391 257.379 854.391C255.087 854.391 253.349 853.72 252.164 852.379C250.992 851.038 250.406 849.098 250.406 846.559V832.867H255.152V846.5C255.152 849.182 256.265 850.523 258.492 850.523C260.797 850.523 262.353 849.697 263.16 848.043V832.867H267.906V854H263.433L263.316 851.93ZM278.687 827.73V832.867H282.418V836.383H278.687V848.18C278.687 848.987 278.843 849.573 279.156 849.938C279.482 850.289 280.054 850.465 280.875 850.465C281.422 850.465 281.975 850.4 282.535 850.27V853.941C281.454 854.241 280.413 854.391 279.41 854.391C275.764 854.391 273.941 852.379 273.941 848.355V836.383H270.465V832.867H273.941V827.73H278.687ZM290.738 835.172C292.288 833.375 294.247 832.477 296.617 832.477C301.122 832.477 303.407 835.048 303.472 840.191V854H298.726V840.367C298.726 838.909 298.407 837.88 297.769 837.281C297.144 836.669 296.22 836.363 294.996 836.363C293.095 836.363 291.676 837.21 290.738 838.902V854H285.992V824H290.738V835.172ZM317.496 843.824H307.242V839.996H317.496V843.824ZM338.492 841.305H326.812V850.055H340.465V854H321.871V825.562H340.328V829.547H326.812V837.398H338.492V841.305ZM356.656 854C356.448 853.596 356.265 852.939 356.109 852.027C354.599 853.603 352.75 854.391 350.562 854.391C348.44 854.391 346.708 853.785 345.367 852.574C344.026 851.363 343.355 849.866 343.355 848.082C343.355 845.829 344.189 844.104 345.855 842.906C347.535 841.695 349.931 841.09 353.043 841.09H355.953V839.703C355.953 838.609 355.647 837.737 355.035 837.086C354.423 836.422 353.492 836.09 352.242 836.09C351.161 836.09 350.276 836.363 349.586 836.91C348.896 837.444 348.551 838.128 348.551 838.961H343.804C343.804 837.802 344.189 836.721 344.957 835.719C345.725 834.703 346.767 833.909 348.082 833.336C349.41 832.763 350.888 832.477 352.515 832.477C354.989 832.477 356.962 833.102 358.433 834.352C359.905 835.589 360.66 837.333 360.699 839.586V849.117C360.699 851.018 360.966 852.535 361.5 853.668V854H356.656ZM351.441 850.582C352.379 850.582 353.258 850.354 354.078 849.898C354.911 849.443 355.536 848.831 355.953 848.062V844.078H353.394C351.636 844.078 350.315 844.384 349.429 844.996C348.544 845.608 348.101 846.474 348.101 847.594C348.101 848.505 348.401 849.234 349 849.781C349.612 850.315 350.426 850.582 351.441 850.582ZM377.515 848.258C377.515 847.411 377.164 846.767 376.461 846.324C375.771 845.882 374.618 845.491 373.004 845.152C371.389 844.814 370.041 844.384 368.961 843.863C366.591 842.717 365.406 841.057 365.406 838.883C365.406 837.06 366.174 835.536 367.711 834.312C369.247 833.089 371.2 832.477 373.57 832.477C376.096 832.477 378.134 833.102 379.683 834.352C381.246 835.602 382.027 837.223 382.027 839.215H377.281C377.281 838.303 376.942 837.548 376.265 836.949C375.588 836.337 374.69 836.031 373.57 836.031C372.528 836.031 371.676 836.272 371.011 836.754C370.36 837.236 370.035 837.88 370.035 838.688C370.035 839.417 370.341 839.983 370.953 840.387C371.565 840.79 372.802 841.201 374.664 841.617C376.526 842.021 377.984 842.509 379.039 843.082C380.107 843.642 380.894 844.319 381.402 845.113C381.923 845.908 382.183 846.871 382.183 848.004C382.183 849.905 381.396 851.448 379.82 852.633C378.245 853.805 376.181 854.391 373.629 854.391C371.897 854.391 370.354 854.078 369 853.453C367.646 852.828 366.591 851.969 365.836 850.875C365.08 849.781 364.703 848.603 364.703 847.34H369.312C369.377 848.46 369.801 849.326 370.582 849.938C371.363 850.536 372.398 850.836 373.687 850.836C374.937 850.836 375.888 850.602 376.539 850.133C377.19 849.651 377.515 849.026 377.515 848.258ZM392.281 827.73V832.867H396.011V836.383H392.281V848.18C392.281 848.987 392.437 849.573 392.75 849.938C393.075 850.289 393.648 850.465 394.468 850.465C395.015 850.465 395.569 850.4 396.129 850.27V853.941C395.048 854.241 394.006 854.391 393.004 854.391C389.358 854.391 387.535 852.379 387.535 848.355V836.383H384.058V832.867H387.535V827.73H392.281Z" fill="white"/>
<path d="M507.581 239.49H502.639L489.963 219.314V239.49H485.022V211.052H489.963L502.678 231.306V211.052H507.581V239.49ZM512.073 228.728C512.073 226.658 512.483 224.796 513.303 223.142C514.124 221.475 515.276 220.199 516.76 219.314C518.245 218.415 519.95 217.966 521.877 217.966C524.729 217.966 527.04 218.884 528.811 220.72C530.595 222.556 531.558 224.991 531.702 228.025L531.721 229.138C531.721 231.221 531.318 233.083 530.51 234.724C529.716 236.365 528.57 237.634 527.073 238.533C525.588 239.431 523.87 239.88 521.916 239.88C518.935 239.88 516.545 238.891 514.749 236.912C512.965 234.919 512.073 232.27 512.073 228.962V228.728ZM516.819 229.138C516.819 231.313 517.268 233.018 518.166 234.255C519.065 235.479 520.315 236.091 521.916 236.091C523.518 236.091 524.762 235.466 525.647 234.216C526.545 232.966 526.995 231.137 526.995 228.728C526.995 226.593 526.532 224.9 525.608 223.65C524.696 222.4 523.453 221.775 521.877 221.775C520.328 221.775 519.097 222.393 518.186 223.63C517.275 224.854 516.819 226.69 516.819 229.138ZM546.799 222.693C546.174 222.589 545.53 222.537 544.866 222.537C542.691 222.537 541.226 223.37 540.471 225.037V239.49H535.725V218.357H540.256L540.374 220.72C541.519 218.884 543.108 217.966 545.139 217.966C545.816 217.966 546.376 218.057 546.819 218.24L546.799 222.693ZM556.721 213.22V218.357H560.452V221.872H556.721V233.669C556.721 234.477 556.877 235.063 557.19 235.427C557.515 235.779 558.088 235.955 558.909 235.955C559.456 235.955 560.009 235.889 560.569 235.759V239.431C559.488 239.731 558.446 239.88 557.444 239.88C553.798 239.88 551.975 237.869 551.975 233.845V221.872H548.499V218.357H551.975V213.22H556.721ZM568.772 220.662C570.321 218.865 572.281 217.966 574.651 217.966C579.156 217.966 581.441 220.538 581.506 225.681V239.49H576.76V225.857C576.76 224.399 576.441 223.37 575.803 222.771C575.178 222.159 574.254 221.853 573.03 221.853C571.129 221.853 569.709 222.699 568.772 224.392V239.49H564.026V209.49H568.772V220.662ZM619.045 232.458L623.42 211.052H628.323L621.76 239.49H617.034L611.624 218.728L606.096 239.49H601.35L594.788 211.052H599.69L604.104 232.419L609.534 211.052H613.674L619.045 232.458ZM640.159 239.88C637.151 239.88 634.709 238.936 632.834 237.048C630.972 235.147 630.041 232.621 630.041 229.47V228.884C630.041 226.775 630.445 224.893 631.252 223.24C632.073 221.573 633.219 220.277 634.69 219.353C636.161 218.428 637.802 217.966 639.612 217.966C642.489 217.966 644.709 218.884 646.272 220.72C647.847 222.556 648.635 225.154 648.635 228.513V230.427H634.827C634.97 232.172 635.549 233.552 636.565 234.568C637.594 235.583 638.883 236.091 640.432 236.091C642.607 236.091 644.377 235.212 645.745 233.455L648.303 235.896C647.457 237.159 646.324 238.142 644.905 238.845C643.499 239.535 641.916 239.88 640.159 239.88ZM639.592 221.775C638.29 221.775 637.235 222.231 636.428 223.142C635.634 224.053 635.126 225.323 634.905 226.951H643.948V226.599C643.844 225.011 643.42 223.813 642.678 223.005C641.936 222.185 640.907 221.775 639.592 221.775ZM664.182 233.747C664.182 232.901 663.831 232.257 663.127 231.814C662.437 231.371 661.285 230.981 659.67 230.642C658.056 230.303 656.708 229.874 655.627 229.353C653.258 228.207 652.073 226.547 652.073 224.372C652.073 222.55 652.841 221.026 654.377 219.802C655.914 218.578 657.867 217.966 660.237 217.966C662.763 217.966 664.801 218.591 666.35 219.841C667.913 221.091 668.694 222.712 668.694 224.705H663.948C663.948 223.793 663.609 223.038 662.932 222.439C662.255 221.827 661.357 221.521 660.237 221.521C659.195 221.521 658.342 221.762 657.678 222.244C657.027 222.725 656.702 223.37 656.702 224.177C656.702 224.906 657.008 225.473 657.62 225.876C658.232 226.28 659.469 226.69 661.331 227.107C663.193 227.511 664.651 227.999 665.706 228.572C666.773 229.132 667.561 229.809 668.069 230.603C668.59 231.397 668.85 232.361 668.85 233.494C668.85 235.395 668.062 236.938 666.487 238.122C664.911 239.294 662.847 239.88 660.295 239.88C658.564 239.88 657.021 239.568 655.666 238.943C654.312 238.318 653.258 237.458 652.502 236.365C651.747 235.271 651.37 234.093 651.37 232.83H655.979C656.044 233.949 656.467 234.815 657.249 235.427C658.03 236.026 659.065 236.326 660.354 236.326C661.604 236.326 662.555 236.091 663.206 235.622C663.857 235.141 664.182 234.516 664.182 233.747ZM678.948 213.22V218.357H682.678V221.872H678.948V233.669C678.948 234.477 679.104 235.063 679.416 235.427C679.742 235.779 680.315 235.955 681.135 235.955C681.682 235.955 682.235 235.889 682.795 235.759V239.431C681.715 239.731 680.673 239.88 679.67 239.88C676.025 239.88 674.202 237.869 674.202 233.845V221.872H670.725V218.357H674.202V213.22H678.948Z" fill="white"/>
<path d="M507.581 239.49V240.49H508.581V239.49H507.581ZM502.639 239.49L501.792 240.022L502.086 240.49H502.639V239.49ZM489.963 219.314L490.81 218.782L488.963 215.842V219.314H489.963ZM489.963 239.49V240.49H490.963V239.49H489.963ZM485.022 239.49H484.022V240.49H485.022V239.49ZM485.022 211.052V210.052H484.022V211.052H485.022ZM489.963 211.052L490.81 210.52L490.516 210.052H489.963V211.052ZM502.678 231.306L501.831 231.838L503.678 234.78V231.306H502.678ZM502.678 211.052V210.052H501.678V211.052H502.678ZM507.581 211.052H508.581V210.052H507.581V211.052ZM507.581 238.49H502.639V240.49H507.581V238.49ZM503.486 238.958L490.81 218.782L489.117 219.846L501.792 240.022L503.486 238.958ZM488.963 219.314V239.49H490.963V219.314H488.963ZM489.963 238.49H485.022V240.49H489.963V238.49ZM486.022 239.49V211.052H484.022V239.49H486.022ZM485.022 212.052H489.963V210.052H485.022V212.052ZM489.116 211.584L501.831 231.838L503.525 230.774L490.81 210.52L489.116 211.584ZM503.678 231.306V211.052H501.678V231.306H503.678ZM502.678 212.052H507.581V210.052H502.678V212.052ZM506.581 211.052V239.49H508.581V211.052H506.581ZM513.303 223.142L514.199 223.586L514.2 223.584L513.303 223.142ZM516.76 219.314L517.273 220.173L517.278 220.169L516.76 219.314ZM528.811 220.72L528.091 221.414L528.094 221.417L528.811 220.72ZM531.702 228.025L532.701 228.007L532.701 227.992L532.701 227.978L531.702 228.025ZM531.721 229.138H532.721V229.129L532.721 229.121L531.721 229.138ZM530.51 234.724L529.613 234.283L529.61 234.288L530.51 234.724ZM527.073 238.533L526.558 237.675L526.555 237.677L527.073 238.533ZM514.749 236.912L514.004 237.579L514.008 237.584L514.749 236.912ZM518.166 234.255L517.357 234.843L517.36 234.847L518.166 234.255ZM525.647 234.216L524.835 233.633L524.831 233.638L525.647 234.216ZM525.608 223.65L524.8 224.239L524.804 224.244L525.608 223.65ZM518.186 223.63L518.988 224.228L518.991 224.224L518.186 223.63ZM513.073 228.728C513.073 226.793 513.455 225.086 514.199 223.586L512.407 222.698C511.511 224.505 511.073 226.522 511.073 228.728H513.073ZM514.2 223.584C514.942 222.077 515.967 220.952 517.273 220.173L516.248 218.455C514.585 219.447 513.305 220.874 512.406 222.7L514.2 223.584ZM517.278 220.169C518.589 219.376 520.112 218.966 521.877 218.966V216.966C519.789 216.966 517.9 217.455 516.242 218.458L517.278 220.169ZM521.877 218.966C524.493 218.966 526.532 219.798 528.091 221.414L529.531 220.026C527.548 217.971 524.965 216.966 521.877 216.966V218.966ZM528.094 221.417C529.677 223.046 530.569 225.234 530.703 228.072L532.701 227.978C532.548 224.748 531.513 222.066 529.528 220.023L528.094 221.417ZM530.702 228.042L530.721 229.156L532.721 229.121L532.701 228.007L530.702 228.042ZM530.721 229.138C530.721 231.09 530.344 232.797 529.613 234.283L531.407 235.166C532.291 233.37 532.721 231.353 532.721 229.138H530.721ZM529.61 234.288C528.897 235.762 527.881 236.881 526.558 237.675L527.587 239.39C529.259 238.387 530.535 236.967 531.41 235.16L529.61 234.288ZM526.555 237.677C525.246 238.47 523.711 238.88 521.916 238.88V240.88C524.029 240.88 525.931 240.393 527.591 239.388L526.555 237.677ZM521.916 238.88C519.181 238.88 517.073 237.984 515.489 236.239L514.008 237.584C516.018 239.797 518.689 240.88 521.916 240.88V238.88ZM515.494 236.244C513.91 234.476 513.073 232.084 513.073 228.962H511.073C511.073 232.455 512.019 235.362 514.004 237.579L515.494 236.244ZM513.073 228.962V228.728H511.073V228.962H513.073ZM515.819 229.138C515.819 231.438 516.292 233.377 517.357 234.843L518.976 233.668C518.244 232.66 517.819 231.188 517.819 229.138H515.819ZM517.36 234.847C518.459 236.344 520.017 237.091 521.916 237.091V235.091C520.613 235.091 519.671 234.615 518.973 233.664L517.36 234.847ZM521.916 237.091C523.825 237.091 525.38 236.323 526.463 234.794L524.831 233.638C524.143 234.61 523.211 235.091 521.916 235.091V237.091ZM526.459 234.8C527.531 233.308 527.995 231.236 527.995 228.728H525.995C525.995 231.037 525.56 232.624 524.835 233.633L526.459 234.8ZM527.995 228.728C527.995 226.457 527.504 224.531 526.412 223.055L524.804 224.244C525.561 225.268 525.995 226.728 525.995 228.728H527.995ZM526.416 223.061C525.312 221.547 523.765 220.775 521.877 220.775V222.775C523.14 222.775 524.081 223.253 524.8 224.239L526.416 223.061ZM521.877 220.775C520.013 220.775 518.483 221.542 517.381 223.037L518.991 224.224C519.712 223.245 520.643 222.775 521.877 222.775V220.775ZM517.384 223.033C516.287 224.506 515.819 226.595 515.819 229.138H517.819C517.819 226.785 518.262 225.203 518.988 224.228L517.384 223.033ZM546.799 222.693L546.635 223.679L547.794 223.872L547.799 222.697L546.799 222.693ZM540.471 225.037L539.56 224.624L539.471 224.821V225.037H540.471ZM540.471 239.49V240.49H541.471V239.49H540.471ZM535.725 239.49H534.725V240.49H535.725V239.49ZM535.725 218.357V217.357H534.725V218.357H535.725ZM540.256 218.357L541.255 218.307L541.208 217.357H540.256V218.357ZM540.374 220.72L539.375 220.77L539.533 223.956L541.222 221.25L540.374 220.72ZM546.819 218.24L547.819 218.244L547.822 217.571L547.2 217.315L546.819 218.24ZM546.964 221.706C546.282 221.593 545.582 221.537 544.866 221.537V223.537C545.477 223.537 546.067 223.585 546.635 223.679L546.964 221.706ZM544.866 221.537C543.654 221.537 542.562 221.769 541.642 222.292C540.71 222.822 540.017 223.616 539.56 224.624L541.382 225.449C541.68 224.791 542.098 224.334 542.631 224.031C543.175 223.721 543.903 223.537 544.866 223.537V221.537ZM539.471 225.037V239.49H541.471V225.037H539.471ZM540.471 238.49H535.725V240.49H540.471V238.49ZM536.725 239.49V218.357H534.725V239.49H536.725ZM535.725 219.357H540.256V217.357H535.725V219.357ZM539.258 218.406L539.375 220.77L541.372 220.671L541.255 218.307L539.258 218.406ZM541.222 221.25C542.199 219.683 543.479 218.966 545.139 218.966V216.966C542.737 216.966 540.839 218.085 539.525 220.191L541.222 221.25ZM545.139 218.966C545.736 218.966 546.155 219.048 546.438 219.164L547.2 217.315C546.597 217.067 545.897 216.966 545.139 216.966V218.966ZM545.819 218.235L545.799 222.688L547.799 222.697L547.819 218.244L545.819 218.235ZM556.721 213.22H557.721V212.22H556.721V213.22ZM556.721 218.357H555.721V219.357H556.721V218.357ZM560.452 218.357H561.452V217.357H560.452V218.357ZM560.452 221.872V222.872H561.452V221.872H560.452ZM556.721 221.872V220.872H555.721V221.872H556.721ZM557.19 235.427L556.431 236.078L556.443 236.093L556.456 236.107L557.19 235.427ZM560.569 235.759H561.569V234.5L560.342 234.785L560.569 235.759ZM560.569 239.431L560.836 240.395L561.569 240.192V239.431H560.569ZM551.975 221.872H552.975V220.872H551.975V221.872ZM548.499 221.872H547.499V222.872H548.499V221.872ZM548.499 218.357V217.357H547.499V218.357H548.499ZM551.975 218.357V219.357H552.975V218.357H551.975ZM551.975 213.22V212.22H550.975V213.22H551.975ZM555.721 213.22V218.357H557.721V213.22H555.721ZM556.721 219.357H560.452V217.357H556.721V219.357ZM559.452 218.357V221.872H561.452V218.357H559.452ZM560.452 220.872H556.721V222.872H560.452V220.872ZM555.721 221.872V233.669H557.721V221.872H555.721ZM555.721 233.669C555.721 234.565 555.887 235.444 556.431 236.078L557.949 234.776C557.868 234.681 557.721 234.388 557.721 233.669H555.721ZM556.456 236.107C557.069 236.768 557.997 236.955 558.909 236.955V234.955C558.179 234.955 557.962 234.789 557.924 234.748L556.456 236.107ZM558.909 236.955C559.536 236.955 560.165 236.88 560.795 236.733L560.342 234.785C559.853 234.899 559.376 234.955 558.909 234.955V236.955ZM559.569 235.759V239.431H561.569V235.759H559.569ZM560.302 238.467C559.298 238.746 558.346 238.88 557.444 238.88V240.88C558.547 240.88 559.678 240.716 560.836 240.395L560.302 238.467ZM557.444 238.88C555.802 238.88 554.746 238.432 554.083 237.7C553.403 236.95 552.975 235.726 552.975 233.845H550.975C550.975 235.988 551.458 237.782 552.601 239.043C553.761 240.323 555.44 240.88 557.444 240.88V238.88ZM552.975 233.845V221.872H550.975V233.845H552.975ZM551.975 220.872H548.499V222.872H551.975V220.872ZM549.499 221.872V218.357H547.499V221.872H549.499ZM548.499 219.357H551.975V217.357H548.499V219.357ZM552.975 218.357V213.22H550.975V218.357H552.975ZM551.975 214.22H556.721V212.22H551.975V214.22ZM568.772 220.662H567.772V223.353L569.529 221.315L568.772 220.662ZM581.506 225.681H582.506L582.506 225.668L581.506 225.681ZM581.506 239.49V240.49H582.506V239.49H581.506ZM576.76 239.49H575.76V240.49H576.76V239.49ZM575.803 222.771L575.104 223.485L575.111 223.493L575.119 223.5L575.803 222.771ZM568.772 224.392L567.897 223.908L567.772 224.134V224.392H568.772ZM568.772 239.49V240.49H569.772V239.49H568.772ZM564.026 239.49H563.026V240.49H564.026V239.49ZM564.026 209.49V208.49H563.026V209.49H564.026ZM568.772 209.49H569.772V208.49H568.772V209.49ZM569.529 221.315C570.889 219.738 572.572 218.966 574.651 218.966V216.966C571.99 216.966 569.754 217.992 568.015 220.009L569.529 221.315ZM574.651 218.966C576.712 218.966 578.098 219.548 578.996 220.559C579.916 221.595 580.475 223.247 580.506 225.694L582.506 225.668C582.472 222.972 581.856 220.767 580.491 219.231C579.104 217.67 577.095 216.966 574.651 216.966V218.966ZM580.506 225.681V239.49H582.506V225.681H580.506ZM581.506 238.49H576.76V240.49H581.506V238.49ZM577.76 239.49V225.857H575.76V239.49H577.76ZM577.76 225.857C577.76 224.298 577.427 222.923 576.488 222.042L575.119 223.5C575.456 223.816 575.76 224.499 575.76 225.857H577.76ZM576.503 222.056C575.627 221.199 574.41 220.853 573.03 220.853V222.853C574.098 222.853 574.729 223.119 575.104 223.485L576.503 222.056ZM573.03 220.853C571.926 220.853 570.914 221.1 570.027 221.629C569.142 222.157 568.437 222.933 567.897 223.908L569.647 224.877C570.045 224.158 570.518 223.665 571.052 223.347C571.584 223.029 572.232 222.853 573.03 222.853V220.853ZM567.772 224.392V239.49H569.772V224.392H567.772ZM568.772 238.49H564.026V240.49H568.772V238.49ZM565.026 239.49V209.49H563.026V239.49H565.026ZM564.026 210.49H568.772V208.49H564.026V210.49ZM567.772 209.49V220.662H569.772V209.49H567.772ZM619.045 232.458L618.075 232.702L620.025 232.659L619.045 232.458ZM623.42 211.052V210.052H622.604L622.441 210.852L623.42 211.052ZM628.323 211.052L629.297 211.277L629.58 210.052H628.323V211.052ZM621.76 239.49V240.49H622.556L622.735 239.715L621.76 239.49ZM617.034 239.49L616.066 239.742L616.261 240.49H617.034V239.49ZM611.624 218.728L612.591 218.476L611.634 214.802L610.657 218.471L611.624 218.728ZM606.096 239.49V240.49H606.865L607.063 239.747L606.096 239.49ZM601.35 239.49L600.376 239.715L600.555 240.49H601.35V239.49ZM594.788 211.052V210.052H593.531L593.813 211.277L594.788 211.052ZM599.69 211.052L600.669 210.85L600.504 210.052H599.69V211.052ZM604.104 232.419L603.125 232.622L605.073 232.666L604.104 232.419ZM609.534 211.052V210.052H608.756L608.564 210.806L609.534 211.052ZM613.674 211.052L614.644 210.809L614.454 210.052H613.674V211.052ZM620.025 232.659L624.4 211.252L622.441 210.852L618.066 232.258L620.025 232.659ZM623.42 212.052H628.323V210.052H623.42V212.052ZM627.348 210.827L620.786 239.265L622.735 239.715L629.297 211.277L627.348 210.827ZM621.76 238.49H617.034V240.49H621.76V238.49ZM618.001 239.238L612.591 218.476L610.656 218.98L616.066 239.742L618.001 239.238ZM610.657 218.471L605.13 239.232L607.063 239.747L612.59 218.985L610.657 218.471ZM606.096 238.49H601.35V240.49H606.096V238.49ZM602.324 239.265L595.762 210.827L593.813 211.277L600.376 239.715L602.324 239.265ZM594.788 212.052H599.69V210.052H594.788V212.052ZM598.711 211.254L603.125 232.622L605.083 232.217L600.669 210.85L598.711 211.254ZM605.073 232.666L610.503 211.298L608.564 210.806L603.135 232.173L605.073 232.666ZM609.534 212.052H613.674V210.052H609.534V212.052ZM612.704 211.296L618.075 232.702L620.015 232.215L614.644 210.809L612.704 211.296ZM632.834 237.048L632.12 237.748L632.125 237.753L632.834 237.048ZM631.252 223.24L630.355 222.798L630.354 222.801L631.252 223.24ZM634.69 219.353L634.158 218.506L634.69 219.353ZM646.272 220.72L645.51 221.368L645.513 221.371L646.272 220.72ZM648.635 230.427V231.427H649.635V230.427H648.635ZM634.827 230.427V229.427H633.741L633.83 230.509L634.827 230.427ZM636.565 234.568L635.858 235.275L635.862 235.279L636.565 234.568ZM645.745 233.455L646.435 232.731L645.635 231.967L644.955 232.841L645.745 233.455ZM648.303 235.896L649.134 236.453L649.602 235.753L648.994 235.172L648.303 235.896ZM644.905 238.845L645.345 239.743L645.349 239.741L644.905 238.845ZM636.428 223.142L635.68 222.479L635.674 222.485L636.428 223.142ZM634.905 226.951L633.914 226.816L633.76 227.951H634.905V226.951ZM643.948 226.951V227.951H644.948V226.951H643.948ZM643.948 226.599H644.948V226.566L644.946 226.534L643.948 226.599ZM642.678 223.005L641.937 223.676L641.942 223.682L642.678 223.005ZM640.159 238.88C637.379 238.88 635.206 238.017 633.544 236.344L632.125 237.753C634.213 239.855 636.922 240.88 640.159 240.88V238.88ZM633.549 236.349C631.903 234.668 631.041 232.411 631.041 229.47H629.041C629.041 232.831 630.042 235.626 632.12 237.748L633.549 236.349ZM631.041 229.47V228.884H629.041V229.47H631.041ZM631.041 228.884C631.041 226.905 631.42 225.177 632.151 223.678L630.354 222.801C629.471 224.61 629.041 226.645 629.041 228.884H631.041ZM632.15 223.681C632.894 222.169 633.918 221.019 635.222 220.2L634.158 218.506C632.519 219.536 631.251 220.977 630.355 222.798L632.15 223.681ZM635.222 220.2C636.527 219.38 637.982 218.966 639.612 218.966V216.966C637.622 216.966 635.795 217.477 634.158 218.506L635.222 220.2ZM639.612 218.966C642.259 218.966 644.175 219.799 645.51 221.368L647.033 220.072C645.244 217.969 642.72 216.966 639.612 216.966V218.966ZM645.513 221.371C646.882 222.966 647.635 225.3 647.635 228.513H649.635C649.635 225.007 648.813 222.146 647.031 220.069L645.513 221.371ZM647.635 228.513V230.427H649.635V228.513H647.635ZM648.635 229.427H634.827V231.427H648.635V229.427ZM633.83 230.509C633.988 232.436 634.64 234.057 635.858 235.275L637.272 233.861C636.458 233.047 635.952 231.908 635.823 230.345L633.83 230.509ZM635.862 235.279C637.092 236.494 638.641 237.091 640.432 237.091V235.091C639.125 235.091 638.095 234.673 637.268 233.856L635.862 235.279ZM640.432 237.091C642.924 237.091 644.983 236.063 646.534 234.068L644.955 232.841C643.772 234.362 642.289 235.091 640.432 235.091V237.091ZM645.054 234.178L647.613 236.619L648.994 235.172L646.435 232.731L645.054 234.178ZM647.472 235.339C646.727 236.451 645.731 237.32 644.461 237.949L645.349 239.741C646.917 238.964 648.186 237.867 649.134 236.453L647.472 235.339ZM644.464 237.947C643.211 238.562 641.783 238.88 640.159 238.88V240.88C642.05 240.88 643.786 240.508 645.345 239.743L644.464 237.947ZM639.592 220.775C638.026 220.775 636.691 221.337 635.68 222.479L637.177 223.805C637.78 223.124 638.554 222.775 639.592 222.775V220.775ZM635.674 222.485C634.713 223.588 634.152 225.062 633.914 226.816L635.896 227.085C636.1 225.584 636.555 224.519 637.182 223.799L635.674 222.485ZM634.905 227.951H643.948V225.951H634.905V227.951ZM644.948 226.951V226.599H642.948V226.951H644.948ZM644.946 226.534C644.833 224.817 644.367 223.365 643.414 222.329L641.942 223.682C642.473 224.26 642.854 225.204 642.95 226.664L644.946 226.534ZM643.42 222.334C642.452 221.265 641.132 220.775 639.592 220.775V222.775C640.683 222.775 641.42 223.105 641.937 223.676L643.42 222.334ZM663.127 231.814L662.587 232.656L662.595 232.66L663.127 231.814ZM655.627 229.353L655.192 230.253L655.193 230.254L655.627 229.353ZM654.377 219.802L655.001 220.584L654.377 219.802ZM666.35 219.841L665.722 220.62L665.725 220.622L666.35 219.841ZM668.694 224.705V225.705H669.694V224.705H668.694ZM663.948 224.705H662.948V225.705H663.948V224.705ZM662.932 222.439L662.262 223.181L662.27 223.188L662.932 222.439ZM657.678 222.244L657.091 221.434L657.083 221.44L657.678 222.244ZM661.331 227.107L661.112 228.083L661.119 228.084L661.331 227.107ZM665.706 228.572L665.228 229.45L665.235 229.454L665.241 229.457L665.706 228.572ZM668.069 230.603L667.226 231.142L667.233 231.151L668.069 230.603ZM666.487 238.122L667.084 238.925L667.088 238.922L666.487 238.122ZM651.37 232.83V231.83H650.37V232.83H651.37ZM655.979 232.83L656.977 232.771L656.923 231.83H655.979V232.83ZM657.249 235.427L656.632 236.214L656.64 236.221L657.249 235.427ZM663.206 235.622L663.79 236.434L663.8 236.426L663.206 235.622ZM665.182 233.747C665.182 232.565 664.661 231.598 663.66 230.968L662.595 232.66C663 232.916 663.182 233.237 663.182 233.747H665.182ZM663.667 230.972C662.816 230.426 661.514 230.007 659.876 229.663L659.465 231.621C661.056 231.954 662.058 232.316 662.587 232.656L663.667 230.972ZM659.876 229.663C658.313 229.336 657.048 228.928 656.062 228.452L655.193 230.254C656.368 230.82 657.799 231.271 659.465 231.621L659.876 229.663ZM656.063 228.453C654.986 227.932 654.246 227.327 653.775 226.668C653.312 226.018 653.073 225.266 653.073 224.372H651.073C651.073 225.653 651.426 226.818 652.147 227.829C652.862 228.83 653.899 229.628 655.192 230.253L656.063 228.453ZM653.073 224.372C653.073 222.88 653.681 221.635 655.001 220.584L653.754 219.02C652.001 220.417 651.073 222.219 651.073 224.372H653.073ZM655.001 220.584C656.325 219.529 658.045 218.966 660.237 218.966V216.966C657.689 216.966 655.502 217.628 653.754 219.02L655.001 220.584ZM660.237 218.966C662.597 218.966 664.394 219.548 665.722 220.62L666.978 219.063C665.207 217.635 662.929 216.966 660.237 216.966V218.966ZM665.725 220.622C667.052 221.683 667.694 223.018 667.694 224.705H669.694C669.694 222.407 668.773 220.499 666.975 219.06L665.725 220.622ZM668.694 223.705H663.948V225.705H668.694V223.705ZM664.948 224.705C664.948 223.509 664.488 222.48 663.595 221.69L662.27 223.188C662.73 223.595 662.948 224.077 662.948 224.705H664.948ZM663.603 221.697C662.702 220.883 661.546 220.521 660.237 220.521V222.521C661.168 222.521 661.808 222.771 662.262 223.181L663.603 221.697ZM660.237 220.521C659.041 220.521 657.967 220.799 657.091 221.434L658.265 223.053C658.718 222.725 659.349 222.521 660.237 222.521V220.521ZM657.083 221.44C656.178 222.109 655.702 223.052 655.702 224.177H657.702C657.702 223.688 657.876 223.341 658.273 223.047L657.083 221.44ZM655.702 224.177C655.702 225.245 656.178 226.124 657.069 226.711L658.17 225.042C657.837 224.822 657.702 224.568 657.702 224.177H655.702ZM657.069 226.711C657.854 227.229 659.263 227.669 661.112 228.083L661.549 226.131C659.674 225.711 658.609 225.331 658.17 225.042L657.069 226.711ZM661.119 228.084C662.936 228.478 664.291 228.941 665.228 229.45L666.183 227.693C665.011 227.056 663.45 226.543 661.542 226.13L661.119 228.084ZM665.241 229.457C666.197 229.959 666.835 230.529 667.226 231.142L668.911 230.064C668.287 229.088 667.35 228.305 666.17 227.686L665.241 229.457ZM667.233 231.151C667.627 231.753 667.85 232.518 667.85 233.494H669.85C669.85 232.204 669.552 231.041 668.905 230.055L667.233 231.151ZM667.85 233.494C667.85 235.067 667.221 236.319 665.886 237.323L667.088 238.922C668.904 237.556 669.85 235.722 669.85 233.494H667.85ZM665.89 237.32C664.532 238.33 662.697 238.88 660.295 238.88V240.88C662.998 240.88 665.29 240.259 667.084 238.925L665.89 237.32ZM660.295 238.88C658.685 238.88 657.289 238.59 656.086 238.035L655.247 239.851C656.753 240.545 658.442 240.88 660.295 240.88V238.88ZM656.086 238.035C654.874 237.476 653.967 236.725 653.325 235.796L651.68 236.933C652.549 238.191 653.751 239.16 655.247 239.851L656.086 238.035ZM653.325 235.796C652.679 234.861 652.37 233.879 652.37 232.83H650.37C650.37 234.306 650.815 235.681 651.68 236.933L653.325 235.796ZM651.37 233.83H655.979V231.83H651.37V233.83ZM654.981 232.888C655.06 234.252 655.594 235.401 656.632 236.214L657.865 234.64C657.341 234.229 657.028 233.646 656.977 232.771L654.981 232.888ZM656.64 236.221C657.643 236.99 658.913 237.326 660.354 237.326V235.326C659.217 235.326 658.416 235.062 657.857 234.634L656.64 236.221ZM660.354 237.326C661.705 237.326 662.898 237.077 663.79 236.434L662.621 234.811C662.212 235.106 661.503 235.326 660.354 235.326V237.326ZM663.8 236.426C664.69 235.768 665.182 234.852 665.182 233.747H663.182C663.182 234.179 663.023 234.513 662.611 234.819L663.8 236.426ZM678.948 213.22H679.948V212.22H678.948V213.22ZM678.948 218.357H677.948V219.357H678.948V218.357ZM682.678 218.357H683.678V217.357H682.678V218.357ZM682.678 221.872V222.872H683.678V221.872H682.678ZM678.948 221.872V220.872H677.948V221.872H678.948ZM679.416 235.427L678.657 236.078L678.67 236.093L678.683 236.107L679.416 235.427ZM682.795 235.759H683.795V234.5L682.569 234.785L682.795 235.759ZM682.795 239.431L683.062 240.395L683.795 240.192V239.431H682.795ZM674.202 221.872H675.202V220.872H674.202V221.872ZM670.725 221.872H669.725V222.872H670.725V221.872ZM670.725 218.357V217.357H669.725V218.357H670.725ZM674.202 218.357V219.357H675.202V218.357H674.202ZM674.202 213.22V212.22H673.202V213.22H674.202ZM677.948 213.22V218.357H679.948V213.22H677.948ZM678.948 219.357H682.678V217.357H678.948V219.357ZM681.678 218.357V221.872H683.678V218.357H681.678ZM682.678 220.872H678.948V222.872H682.678V220.872ZM677.948 221.872V233.669H679.948V221.872H677.948ZM677.948 233.669C677.948 234.565 678.114 235.444 678.657 236.078L680.176 234.776C680.094 234.681 679.948 234.388 679.948 233.669H677.948ZM678.683 236.107C679.295 236.768 680.224 236.955 681.135 236.955V234.955C680.406 234.955 680.189 234.789 680.15 234.748L678.683 236.107ZM681.135 236.955C681.762 236.955 682.392 236.88 683.022 236.733L682.569 234.785C682.079 234.899 681.602 234.955 681.135 234.955V236.955ZM681.795 235.759V239.431H683.795V235.759H681.795ZM682.528 238.467C681.524 238.746 680.573 238.88 679.67 238.88V240.88C680.773 240.88 681.905 240.716 683.062 240.395L682.528 238.467ZM679.67 238.88C678.028 238.88 676.973 238.432 676.31 237.7C675.63 236.95 675.202 235.726 675.202 233.845H673.202C673.202 235.988 673.685 237.782 674.828 239.043C675.988 240.323 677.667 240.88 679.67 240.88V238.88ZM675.202 233.845V221.872H673.202V233.845H675.202ZM674.202 220.872H670.725V222.872H674.202V220.872ZM671.725 221.872V218.357H669.725V221.872H671.725ZM670.725 219.357H674.202V217.357H670.725V219.357ZM675.202 218.357V213.22H673.202V218.357H675.202ZM674.202 214.22H678.948V212.22H674.202V214.22Z" fill="white"/>
<path d="M853.753 441.979H848.812L836.136 421.804V441.979H831.195V413.542H836.136L848.851 433.796V413.542H853.753V441.979ZM858.245 431.218C858.245 429.147 858.656 427.285 859.476 425.632C860.296 423.965 861.449 422.689 862.933 421.804C864.417 420.905 866.123 420.456 868.05 420.456C870.902 420.456 873.213 421.374 874.984 423.21C876.768 425.046 877.731 427.481 877.874 430.515L877.894 431.628C877.894 433.711 877.49 435.573 876.683 437.214C875.889 438.854 874.743 440.124 873.245 441.022C871.761 441.921 870.042 442.37 868.089 442.37C865.107 442.37 862.718 441.38 860.921 439.401C859.137 437.409 858.245 434.759 858.245 431.452V431.218ZM862.992 431.628C862.992 433.802 863.441 435.508 864.339 436.745C865.238 437.969 866.488 438.581 868.089 438.581C869.691 438.581 870.934 437.956 871.82 436.706C872.718 435.456 873.167 433.627 873.167 431.218C873.167 429.082 872.705 427.39 871.781 426.14C870.869 424.89 869.626 424.265 868.05 424.265C866.501 424.265 865.27 424.883 864.359 426.12C863.447 427.344 862.992 429.18 862.992 431.628ZM892.972 425.182C892.347 425.078 891.702 425.026 891.038 425.026C888.864 425.026 887.399 425.86 886.644 427.526V441.979H881.898V420.847H886.429L886.546 423.21C887.692 421.374 889.281 420.456 891.312 420.456C891.989 420.456 892.549 420.547 892.992 420.729L892.972 425.182ZM902.894 415.71V420.847H906.624V424.362H902.894V436.159C902.894 436.966 903.05 437.552 903.363 437.917C903.688 438.268 904.261 438.444 905.081 438.444C905.628 438.444 906.182 438.379 906.742 438.249V441.921C905.661 442.22 904.619 442.37 903.617 442.37C899.971 442.37 898.148 440.358 898.148 436.335V424.362H894.671V420.847H898.148V415.71H902.894ZM914.945 423.151C916.494 421.354 918.454 420.456 920.824 420.456C925.329 420.456 927.614 423.028 927.679 428.171V441.979H922.933V428.347C922.933 426.888 922.614 425.86 921.976 425.261C921.351 424.649 920.426 424.343 919.202 424.343C917.301 424.343 915.882 425.189 914.945 426.882V441.979H910.199V411.979H914.945V423.151ZM941.702 431.804H931.449V427.975H941.702V431.804ZM967.777 432.722C967.49 435.755 966.37 438.125 964.417 439.831C962.464 441.524 959.867 442.37 956.624 442.37C954.359 442.37 952.36 441.836 950.628 440.768C948.91 439.688 947.581 438.158 946.644 436.179C945.706 434.199 945.218 431.901 945.179 429.284V426.628C945.179 423.946 945.654 421.582 946.605 419.538C947.555 417.494 948.916 415.918 950.687 414.811C952.471 413.705 954.528 413.151 956.859 413.151C959.997 413.151 962.523 414.004 964.437 415.71C966.351 417.416 967.464 419.824 967.777 422.936H962.855C962.62 420.892 962.022 419.421 961.058 418.522C960.107 417.611 958.708 417.155 956.859 417.155C954.71 417.155 953.057 417.943 951.898 419.518C950.752 421.081 950.166 423.379 950.14 426.413V428.932C950.14 432.005 950.687 434.349 951.781 435.964C952.887 437.578 954.502 438.386 956.624 438.386C958.564 438.386 960.023 437.949 960.999 437.077C961.976 436.205 962.594 434.753 962.855 432.722H967.777ZM981.058 442.37C978.05 442.37 975.609 441.426 973.734 439.538C971.872 437.637 970.941 435.111 970.941 431.96V431.374C970.941 429.265 971.344 427.383 972.152 425.729C972.972 424.063 974.118 422.767 975.589 421.843C977.061 420.918 978.701 420.456 980.511 420.456C983.389 420.456 985.609 421.374 987.171 423.21C988.747 425.046 989.535 427.643 989.535 431.003V432.917H975.726C975.869 434.662 976.449 436.042 977.464 437.057C978.493 438.073 979.782 438.581 981.331 438.581C983.506 438.581 985.277 437.702 986.644 435.944L989.202 438.386C988.356 439.649 987.223 440.632 985.804 441.335C984.398 442.025 982.816 442.37 981.058 442.37ZM980.492 424.265C979.189 424.265 978.135 424.72 977.327 425.632C976.533 426.543 976.025 427.813 975.804 429.44H984.847V429.089C984.743 427.5 984.32 426.302 983.577 425.495C982.835 424.675 981.807 424.265 980.492 424.265ZM997.64 420.847L997.777 423.288C999.339 421.4 1001.39 420.456 1003.93 420.456C1008.33 420.456 1010.57 422.975 1010.65 428.015V441.979H1005.9V428.288C1005.9 426.947 1005.61 425.957 1005.02 425.319C1004.45 424.668 1003.51 424.343 1002.19 424.343C1000.28 424.343 998.851 425.209 997.913 426.94V441.979H993.167V420.847H997.64ZM1021.45 415.71V420.847H1025.18V424.362H1021.45V436.159C1021.45 436.966 1021.6 437.552 1021.92 437.917C1022.24 438.268 1022.82 438.444 1023.64 438.444C1024.18 438.444 1024.74 438.379 1025.3 438.249V441.921C1024.22 442.22 1023.17 442.37 1022.17 442.37C1018.53 442.37 1016.7 440.358 1016.7 436.335V424.362H1013.23V420.847H1016.7V415.71H1021.45ZM1039.89 425.182C1039.26 425.078 1038.62 425.026 1037.95 425.026C1035.78 425.026 1034.31 425.86 1033.56 427.526V441.979H1028.81V420.847H1033.34L1033.46 423.21C1034.61 421.374 1036.19 420.456 1038.23 420.456C1038.9 420.456 1039.46 420.547 1039.91 420.729L1039.89 425.182ZM1054.93 441.979C1054.72 441.576 1054.53 440.918 1054.38 440.007C1052.87 441.582 1051.02 442.37 1048.83 442.37C1046.71 442.37 1044.98 441.765 1043.64 440.554C1042.29 439.343 1041.62 437.845 1041.62 436.061C1041.62 433.809 1042.46 432.084 1044.12 430.886C1045.8 429.675 1048.2 429.069 1051.31 429.069H1054.22V427.682C1054.22 426.589 1053.92 425.716 1053.3 425.065C1052.69 424.401 1051.76 424.069 1050.51 424.069C1049.43 424.069 1048.54 424.343 1047.85 424.89C1047.16 425.423 1046.82 426.107 1046.82 426.94H1042.07C1042.07 425.781 1042.46 424.701 1043.23 423.698C1043.99 422.682 1045.04 421.888 1046.35 421.315C1047.68 420.742 1049.16 420.456 1050.78 420.456C1053.26 420.456 1055.23 421.081 1056.7 422.331C1058.17 423.568 1058.93 425.313 1058.97 427.565V437.097C1058.97 438.998 1059.24 440.515 1059.77 441.647V441.979H1054.93ZM1049.71 438.561C1050.65 438.561 1051.53 438.334 1052.35 437.878C1053.18 437.422 1053.81 436.81 1054.22 436.042V432.057H1051.66C1049.91 432.057 1048.58 432.363 1047.7 432.975C1046.81 433.587 1046.37 434.453 1046.37 435.573C1046.37 436.485 1046.67 437.214 1047.27 437.761C1047.88 438.294 1048.69 438.561 1049.71 438.561ZM1068.99 441.979H1064.24V411.979H1068.99V441.979Z" fill="white"/>
<path d="M853.753 441.979V442.979H854.753V441.979H853.753ZM848.812 441.979L847.965 442.511L848.259 442.979H848.812V441.979ZM836.136 421.804L836.983 421.272L835.136 418.332V421.804H836.136ZM836.136 441.979V442.979H837.136V441.979H836.136ZM831.195 441.979H830.195V442.979H831.195V441.979ZM831.195 413.542V412.542H830.195V413.542H831.195ZM836.136 413.542L836.983 413.01L836.689 412.542H836.136V413.542ZM848.851 433.796L848.004 434.327L849.851 437.27V433.796H848.851ZM848.851 413.542V412.542H847.851V413.542H848.851ZM853.753 413.542H854.753V412.542H853.753V413.542ZM853.753 440.979H848.812V442.979H853.753V440.979ZM849.659 441.447L836.983 421.272L835.289 422.336L847.965 442.511L849.659 441.447ZM835.136 421.804V441.979H837.136V421.804H835.136ZM836.136 440.979H831.195V442.979H836.136V440.979ZM832.195 441.979V413.542H830.195V441.979H832.195ZM831.195 414.542H836.136V412.542H831.195V414.542ZM835.289 414.074L848.004 434.327L849.698 433.264L836.983 413.01L835.289 414.074ZM849.851 433.796V413.542H847.851V433.796H849.851ZM848.851 414.542H853.753V412.542H848.851V414.542ZM852.753 413.542V441.979H854.753V413.542H852.753ZM859.476 425.632L860.372 426.076L860.373 426.073L859.476 425.632ZM862.933 421.804L863.445 422.662L863.451 422.659L862.933 421.804ZM874.984 423.21L874.264 423.904L874.267 423.907L874.984 423.21ZM877.874 430.515L878.874 430.497L878.874 430.482L878.873 430.467L877.874 430.515ZM877.894 431.628H878.894V431.619L878.894 431.61L877.894 431.628ZM876.683 437.214L875.786 436.772L875.783 436.778L876.683 437.214ZM873.245 441.022L872.731 440.165L872.728 440.167L873.245 441.022ZM860.921 439.401L860.176 440.068L860.181 440.073L860.921 439.401ZM864.339 436.745L863.53 437.333L863.533 437.337L864.339 436.745ZM871.82 436.706L871.008 436.122L871.004 436.128L871.82 436.706ZM871.781 426.14L870.973 426.729L870.977 426.734L871.781 426.14ZM864.359 426.12L865.161 426.717L865.164 426.713L864.359 426.12ZM859.245 431.218C859.245 429.283 859.628 427.576 860.372 426.076L858.58 425.187C857.683 426.995 857.245 429.012 857.245 431.218H859.245ZM860.373 426.073C861.115 424.566 862.139 423.441 863.445 422.662L862.421 420.945C860.758 421.937 859.478 423.364 858.579 425.19L860.373 426.073ZM863.451 422.659C864.762 421.865 866.285 421.456 868.05 421.456V419.456C865.961 419.456 864.073 419.945 862.415 420.948L863.451 422.659ZM868.05 421.456C870.665 421.456 872.705 422.287 874.264 423.904L875.703 422.516C873.721 420.46 871.138 419.456 868.05 419.456V421.456ZM874.267 423.907C875.85 425.536 876.742 427.724 876.875 430.562L878.873 430.467C878.721 427.238 877.686 424.555 875.701 422.513L874.267 423.907ZM876.875 430.532L876.894 431.645L878.894 431.61L878.874 430.497L876.875 430.532ZM876.894 431.628C876.894 433.579 876.517 435.287 875.786 436.772L877.58 437.655C878.464 435.859 878.894 433.843 878.894 431.628H876.894ZM875.783 436.778C875.069 438.252 874.054 439.371 872.731 440.165L873.76 441.88C875.432 440.877 876.708 439.457 877.583 437.649L875.783 436.778ZM872.728 440.167C871.418 440.959 869.883 441.37 868.089 441.37V443.37C870.201 443.37 872.104 442.882 873.763 441.878L872.728 440.167ZM868.089 441.37C865.353 441.37 863.246 440.474 861.662 438.729L860.181 440.073C862.19 442.287 864.862 443.37 868.089 443.37V441.37ZM861.666 438.734C860.083 436.966 859.245 434.574 859.245 431.452H857.245C857.245 434.945 858.192 437.852 860.176 440.068L861.666 438.734ZM859.245 431.452V431.218H857.245V431.452H859.245ZM861.992 431.628C861.992 433.927 862.465 435.866 863.53 437.333L865.148 436.157C864.416 435.15 863.992 433.677 863.992 431.628H861.992ZM863.533 437.337C864.632 438.833 866.19 439.581 868.089 439.581V437.581C866.786 437.581 865.844 437.104 865.145 436.153L863.533 437.337ZM868.089 439.581C869.998 439.581 871.553 438.813 872.636 437.284L871.004 436.128C870.316 437.099 869.384 437.581 868.089 437.581V439.581ZM872.632 437.29C873.704 435.798 874.167 433.726 874.167 431.218H872.167C872.167 433.527 871.732 435.114 871.008 436.122L872.632 437.29ZM874.167 431.218C874.167 428.947 873.676 427.021 872.585 425.545L870.977 426.734C871.734 427.758 872.167 429.218 872.167 431.218H874.167ZM872.589 425.55C871.485 424.037 869.938 423.265 868.05 423.265V425.265C869.313 425.265 870.253 425.742 870.973 426.729L872.589 425.55ZM868.05 423.265C866.186 423.265 864.656 424.031 863.554 425.527L865.164 426.713C865.885 425.735 866.815 425.265 868.05 425.265V423.265ZM863.557 425.523C862.46 426.996 861.992 429.085 861.992 431.628H863.992C863.992 429.275 864.435 427.692 865.161 426.717L863.557 425.523ZM892.972 425.182L892.808 426.169L893.967 426.362L893.972 425.187L892.972 425.182ZM886.644 427.526L885.733 427.114L885.644 427.31V427.526H886.644ZM886.644 441.979V442.979H887.644V441.979H886.644ZM881.898 441.979H880.898V442.979H881.898V441.979ZM881.898 420.847V419.847H880.898V420.847H881.898ZM886.429 420.847L887.428 420.797L887.381 419.847H886.429V420.847ZM886.546 423.21L885.547 423.259L885.705 426.446L887.395 423.739L886.546 423.21ZM892.992 420.729L893.992 420.734L893.995 420.061L893.372 419.805L892.992 420.729ZM893.136 424.196C892.455 424.082 891.755 424.026 891.038 424.026V426.026C891.65 426.026 892.239 426.074 892.808 426.169L893.136 424.196ZM891.038 424.026C889.827 424.026 888.735 424.258 887.814 424.782C886.883 425.312 886.19 426.105 885.733 427.114L887.555 427.939C887.853 427.281 888.27 426.824 888.803 426.52C889.348 426.211 890.075 426.026 891.038 426.026V424.026ZM885.644 427.526V441.979H887.644V427.526H885.644ZM886.644 440.979H881.898V442.979H886.644V440.979ZM882.898 441.979V420.847H880.898V441.979H882.898ZM881.898 421.847H886.429V419.847H881.898V421.847ZM885.43 420.896L885.547 423.259L887.545 423.16L887.428 420.797L885.43 420.896ZM887.395 423.739C888.372 422.173 889.652 421.456 891.312 421.456V419.456C888.909 419.456 887.012 420.575 885.698 422.68L887.395 423.739ZM891.312 421.456C891.908 421.456 892.328 421.538 892.611 421.654L893.372 419.805C892.77 419.557 892.07 419.456 891.312 419.456V421.456ZM891.992 420.725L891.972 425.178L893.972 425.187L893.992 420.734L891.992 420.725ZM902.894 415.71H903.894V414.71H902.894V415.71ZM902.894 420.847H901.894V421.847H902.894V420.847ZM906.624 420.847H907.624V419.847H906.624V420.847ZM906.624 424.362V425.362H907.624V424.362H906.624ZM902.894 424.362V423.362H901.894V424.362H902.894ZM903.363 437.917L902.603 438.568L902.616 438.582L902.629 438.596L903.363 437.917ZM906.742 438.249H907.742V436.99L906.515 437.275L906.742 438.249ZM906.742 441.921L907.009 442.884L907.742 442.681V441.921H906.742ZM898.148 424.362H899.148V423.362H898.148V424.362ZM894.671 424.362H893.671V425.362H894.671V424.362ZM894.671 420.847V419.847H893.671V420.847H894.671ZM898.148 420.847V421.847H899.148V420.847H898.148ZM898.148 415.71V414.71H897.148V415.71H898.148ZM901.894 415.71V420.847H903.894V415.71H901.894ZM902.894 421.847H906.624V419.847H902.894V421.847ZM905.624 420.847V424.362H907.624V420.847H905.624ZM906.624 423.362H902.894V425.362H906.624V423.362ZM901.894 424.362V436.159H903.894V424.362H901.894ZM901.894 436.159C901.894 437.055 902.06 437.934 902.603 438.568L904.122 437.266C904.04 437.171 903.894 436.878 903.894 436.159H901.894ZM902.629 438.596C903.242 439.258 904.17 439.444 905.081 439.444V437.444C904.352 437.444 904.135 437.279 904.096 437.237L902.629 438.596ZM905.081 439.444C905.708 439.444 906.338 439.37 906.968 439.223L906.515 437.275C906.026 437.389 905.548 437.444 905.081 437.444V439.444ZM905.742 438.249V441.921H907.742V438.249H905.742ZM906.475 440.957C905.471 441.235 904.519 441.37 903.617 441.37V443.37C904.719 443.37 905.851 443.205 907.009 442.884L906.475 440.957ZM903.617 441.37C901.975 441.37 900.919 440.922 900.256 440.19C899.576 439.439 899.148 438.215 899.148 436.335H897.148C897.148 438.478 897.631 440.271 898.774 441.533C899.934 442.813 901.613 443.37 903.617 443.37V441.37ZM899.148 436.335V424.362H897.148V436.335H899.148ZM898.148 423.362H894.671V425.362H898.148V423.362ZM895.671 424.362V420.847H893.671V424.362H895.671ZM894.671 421.847H898.148V419.847H894.671V421.847ZM899.148 420.847V415.71H897.148V420.847H899.148ZM898.148 416.71H902.894V414.71H898.148V416.71ZM914.945 423.151H913.945V425.842L915.702 423.804L914.945 423.151ZM927.679 428.171H928.679L928.679 428.158L927.679 428.171ZM927.679 441.979V442.979H928.679V441.979H927.679ZM922.933 441.979H921.933V442.979H922.933V441.979ZM921.976 425.261L921.276 425.975L921.284 425.982L921.292 425.99L921.976 425.261ZM914.945 426.882L914.07 426.397L913.945 426.623V426.882H914.945ZM914.945 441.979V442.979H915.945V441.979H914.945ZM910.199 441.979H909.199V442.979H910.199V441.979ZM910.199 411.979V410.979H909.199V411.979H910.199ZM914.945 411.979H915.945V410.979H914.945V411.979ZM915.702 423.804C917.062 422.227 918.745 421.456 920.824 421.456V419.456C918.163 419.456 915.927 420.481 914.187 422.498L915.702 423.804ZM920.824 421.456C922.884 421.456 924.27 422.038 925.169 423.049C926.089 424.084 926.648 425.737 926.679 428.183L928.679 428.158C928.645 425.461 928.029 423.257 926.664 421.72C925.277 420.16 923.268 419.456 920.824 419.456V421.456ZM926.679 428.171V441.979H928.679V428.171H926.679ZM927.679 440.979H922.933V442.979H927.679V440.979ZM923.933 441.979V428.347H921.933V441.979H923.933ZM923.933 428.347C923.933 426.788 923.599 425.413 922.66 424.532L921.292 425.99C921.628 426.306 921.933 426.989 921.933 428.347H923.933ZM922.676 424.546C921.8 423.689 920.582 423.343 919.202 423.343V425.343C920.271 425.343 920.902 425.609 921.276 425.975L922.676 424.546ZM919.202 423.343C918.099 423.343 917.087 423.59 916.2 424.119C915.314 424.647 914.61 425.423 914.07 426.397L915.819 427.366C916.217 426.648 916.691 426.154 917.224 425.836C917.757 425.519 918.405 425.343 919.202 425.343V423.343ZM913.945 426.882V441.979H915.945V426.882H913.945ZM914.945 440.979H910.199V442.979H914.945V440.979ZM911.199 441.979V411.979H909.199V441.979H911.199ZM910.199 412.979H914.945V410.979H910.199V412.979ZM913.945 411.979V423.151H915.945V411.979H913.945ZM941.702 431.804V432.804H942.702V431.804H941.702ZM931.449 431.804H930.449V432.804H931.449V431.804ZM931.449 427.975V426.975H930.449V427.975H931.449ZM941.702 427.975H942.702V426.975H941.702V427.975ZM941.702 430.804H931.449V432.804H941.702V430.804ZM932.449 431.804V427.975H930.449V431.804H932.449ZM931.449 428.975H941.702V426.975H931.449V428.975ZM940.702 427.975V431.804H942.702V427.975H940.702ZM967.777 432.722L968.772 432.816L968.876 431.722H967.777V432.722ZM964.417 439.831L965.072 440.587L965.075 440.584L964.417 439.831ZM950.628 440.768L950.096 441.615L950.103 441.62L950.628 440.768ZM945.179 429.284H944.179V429.292L944.179 429.299L945.179 429.284ZM950.687 414.811L950.16 413.962L950.157 413.963L950.687 414.811ZM967.777 422.936V423.936H968.882L968.772 422.836L967.777 422.936ZM962.855 422.936L961.861 423.05L961.963 423.936H962.855V422.936ZM961.058 418.522L960.366 419.244L960.376 419.254L961.058 418.522ZM951.898 419.518L951.092 418.926L951.091 418.927L951.898 419.518ZM950.14 426.413L949.14 426.404V426.413H950.14ZM951.781 435.964L950.953 436.525L950.956 436.529L951.781 435.964ZM962.855 432.722V431.722H961.975L961.863 432.594L962.855 432.722ZM966.781 432.628C966.514 435.454 965.487 437.569 963.76 439.078L965.075 440.584C967.254 438.681 968.466 436.057 968.772 432.816L966.781 432.628ZM963.762 439.075C962.034 440.573 959.689 441.37 956.624 441.37V443.37C960.044 443.37 962.895 442.474 965.072 440.587L963.762 439.075ZM956.624 441.37C954.522 441.37 952.71 440.877 951.153 439.917L950.103 441.62C952.01 442.795 954.195 443.37 956.624 443.37V441.37ZM951.161 439.922C949.616 438.95 948.41 437.572 947.548 435.751L945.74 436.607C946.752 438.744 948.203 440.425 950.096 441.615L951.161 439.922ZM947.548 435.751C946.682 433.923 946.216 431.771 946.179 429.269L944.179 429.299C944.22 432.032 944.731 434.476 945.74 436.607L947.548 435.751ZM946.179 429.284V426.628H944.179V429.284H946.179ZM946.179 426.628C946.179 424.064 946.633 421.849 947.512 419.96L945.698 419.116C944.676 421.315 944.179 423.827 944.179 426.628H946.179ZM947.512 419.96C948.387 418.076 949.623 416.655 951.217 415.659L950.157 413.963C948.209 415.181 946.723 416.911 945.698 419.116L947.512 419.96ZM951.214 415.661C952.823 414.663 954.693 414.151 956.859 414.151V412.151C954.363 412.151 952.119 412.746 950.16 413.962L951.214 415.661ZM956.859 414.151C959.809 414.151 962.079 414.948 963.772 416.456L965.102 414.963C962.966 413.06 960.185 412.151 956.859 412.151V414.151ZM963.772 416.456C965.459 417.961 966.488 420.116 966.782 423.036L968.772 422.836C968.44 419.533 967.242 416.871 965.102 414.963L963.772 416.456ZM967.777 421.936H962.855V423.936H967.777V421.936ZM963.848 422.822C963.601 420.668 962.952 418.921 961.74 417.791L960.376 419.254C961.091 419.92 961.64 421.116 961.861 423.05L963.848 422.822ZM961.75 417.801C960.549 416.649 958.861 416.155 956.859 416.155V418.155C958.555 418.155 959.666 418.573 960.366 419.244L961.75 417.801ZM956.859 416.155C954.429 416.155 952.46 417.066 951.092 418.926L952.703 420.111C953.653 418.82 954.992 418.155 956.859 418.155V416.155ZM951.091 418.927C949.769 420.73 949.167 423.271 949.14 426.404L951.14 426.422C951.165 423.487 951.735 421.432 952.704 420.11L951.091 418.927ZM949.14 426.413V428.932H951.14V426.413H949.14ZM949.14 428.932C949.14 432.099 949.699 434.674 950.953 436.525L952.609 435.403C951.674 434.024 951.14 431.912 951.14 428.932H949.14ZM950.956 436.529C952.267 438.442 954.205 439.386 956.624 439.386V437.386C954.799 437.386 953.508 436.715 952.605 435.398L950.956 436.529ZM956.624 439.386C958.695 439.386 960.435 438.922 961.666 437.823L960.333 436.331C959.611 436.977 958.434 437.386 956.624 437.386V439.386ZM961.666 437.823C962.899 436.721 963.572 434.991 963.847 432.849L961.863 432.594C961.617 434.515 961.053 435.688 960.333 436.331L961.666 437.823ZM962.855 433.722H967.777V431.722H962.855V433.722ZM973.734 439.538L973.019 440.238L973.024 440.243L973.734 439.538ZM972.152 425.729L971.255 425.288L971.253 425.291L972.152 425.729ZM975.589 421.843L975.057 420.996L975.589 421.843ZM987.171 423.21L986.41 423.858L986.412 423.861L987.171 423.21ZM989.535 432.917V433.917H990.535V432.917H989.535ZM975.726 432.917V431.917H974.64L974.729 432.999L975.726 432.917ZM977.464 437.057L976.757 437.765L976.762 437.769L977.464 437.057ZM986.644 435.944L987.334 435.221L986.534 434.457L985.855 435.33L986.644 435.944ZM989.202 438.386L990.033 438.942L990.502 438.243L989.893 437.662L989.202 438.386ZM985.804 441.335L986.245 442.233L986.248 442.231L985.804 441.335ZM977.327 425.632L976.579 424.969L976.574 424.975L977.327 425.632ZM975.804 429.44L974.813 429.306L974.659 430.44H975.804V429.44ZM984.847 429.44V430.44H985.847V429.44H984.847ZM984.847 429.089H985.847V429.056L985.845 429.023L984.847 429.089ZM983.577 425.495L982.836 426.166L982.841 426.172L983.577 425.495ZM981.058 441.37C978.279 441.37 976.105 440.507 974.443 438.833L973.024 440.243C975.112 442.345 977.822 443.37 981.058 443.37V441.37ZM974.448 438.838C972.802 437.158 971.941 434.901 971.941 431.96H969.941C969.941 435.321 970.941 438.116 973.019 440.238L974.448 438.838ZM971.941 431.96V431.374H969.941V431.96H971.941ZM971.941 431.374C971.941 429.394 972.319 427.666 973.05 426.168L971.253 425.291C970.37 427.1 969.941 429.135 969.941 431.374H971.941ZM973.049 426.171C973.793 424.659 974.818 423.508 976.121 422.689L975.057 420.996C973.418 422.026 972.151 423.467 971.255 425.288L973.049 426.171ZM976.121 422.689C977.426 421.869 978.881 421.456 980.511 421.456V419.456C978.521 419.456 976.695 419.967 975.057 420.996L976.121 422.689ZM980.511 421.456C983.158 421.456 985.074 422.289 986.41 423.858L987.933 422.562C986.143 420.459 983.619 419.456 980.511 419.456V421.456ZM986.412 423.861C987.781 425.456 988.535 427.79 988.535 431.003H990.535C990.535 427.497 989.712 424.635 987.93 422.559L986.412 423.861ZM988.535 431.003V432.917H990.535V431.003H988.535ZM989.535 431.917H975.726V433.917H989.535V431.917ZM974.729 432.999C974.887 434.926 975.539 436.547 976.757 437.765L978.171 436.35C977.358 435.537 976.851 434.397 976.723 432.835L974.729 432.999ZM976.762 437.769C977.992 438.984 979.54 439.581 981.331 439.581V437.581C980.024 437.581 978.994 437.163 978.167 436.346L976.762 437.769ZM981.331 439.581C983.823 439.581 985.882 438.553 987.433 436.558L985.855 435.33C984.671 436.851 983.189 437.581 981.331 437.581V439.581ZM985.954 436.668L988.512 439.109L989.893 437.662L987.334 435.221L985.954 436.668ZM988.372 437.829C987.627 438.941 986.63 439.81 985.36 440.439L986.248 442.231C987.817 441.454 989.086 440.356 990.033 438.942L988.372 437.829ZM985.364 440.437C984.11 441.052 982.682 441.37 981.058 441.37V443.37C982.95 443.37 984.685 442.998 986.245 442.233L985.364 440.437ZM980.492 423.265C978.926 423.265 977.59 423.827 976.579 424.969L978.076 426.295C978.679 425.614 979.453 425.265 980.492 425.265V423.265ZM976.574 424.975C975.613 426.077 975.052 427.552 974.813 429.306L976.795 429.575C976.999 428.073 977.454 427.009 978.081 426.289L976.574 424.975ZM975.804 430.44H984.847V428.44H975.804V430.44ZM985.847 429.44V429.089H983.847V429.44H985.847ZM985.845 429.023C985.732 427.307 985.267 425.855 984.314 424.818L982.841 426.172C983.373 426.75 983.753 427.693 983.849 429.154L985.845 429.023ZM984.319 424.824C983.351 423.755 982.031 423.265 980.492 423.265V425.265C981.582 425.265 982.319 425.595 982.836 426.166L984.319 424.824ZM997.64 420.847L998.638 420.791L998.586 419.847H997.64V420.847ZM997.777 423.288L996.778 423.344L996.921 425.891L998.547 423.926L997.777 423.288ZM1010.65 428.015H1011.65V428.007L1011.65 427.999L1010.65 428.015ZM1010.65 441.979V442.979H1011.65V441.979H1010.65ZM1005.9 441.979H1004.9V442.979H1005.9V441.979ZM1005.02 425.319L1004.27 425.98L1004.28 425.988L1004.29 425.996L1005.02 425.319ZM997.913 426.94L997.034 426.464L996.913 426.687V426.94H997.913ZM997.913 441.979V442.979H998.913V441.979H997.913ZM993.167 441.979H992.167V442.979H993.167V441.979ZM993.167 420.847V419.847H992.167V420.847H993.167ZM996.642 420.902L996.778 423.344L998.775 423.232L998.638 420.791L996.642 420.902ZM998.547 423.926C999.912 422.276 1001.68 421.456 1003.93 421.456V419.456C1001.1 419.456 998.767 420.523 997.006 422.65L998.547 423.926ZM1003.93 421.456C1005.94 421.456 1007.29 422.024 1008.16 423.01C1009.06 424.02 1009.61 425.635 1009.65 428.03L1011.65 427.999C1011.61 425.355 1011 423.19 1009.66 421.681C1008.29 420.147 1006.32 419.456 1003.93 419.456V421.456ZM1009.65 428.015V441.979H1011.65V428.015H1009.65ZM1010.65 440.979H1005.9V442.979H1010.65V440.979ZM1006.9 441.979V428.288H1004.9V441.979H1006.9ZM1006.9 428.288C1006.9 426.829 1006.59 425.544 1005.76 424.643L1004.29 425.996C1004.63 426.371 1004.9 427.065 1004.9 428.288H1006.9ZM1005.77 424.659C1004.93 423.701 1003.64 423.343 1002.19 423.343V425.343C1003.37 425.343 1003.97 425.636 1004.27 425.98L1005.77 424.659ZM1002.19 423.343C1001.08 423.343 1000.06 423.596 999.167 424.137C998.277 424.678 997.572 425.471 997.034 426.464L998.793 427.416C999.193 426.678 999.669 426.172 1000.2 425.847C1000.74 425.522 1001.39 425.343 1002.19 425.343V423.343ZM996.913 426.94V441.979H998.913V426.94H996.913ZM997.913 440.979H993.167V442.979H997.913V440.979ZM994.167 441.979V420.847H992.167V441.979H994.167ZM993.167 421.847H997.64V419.847H993.167V421.847ZM1021.45 415.71H1022.45V414.71H1021.45V415.71ZM1021.45 420.847H1020.45V421.847H1021.45V420.847ZM1025.18 420.847H1026.18V419.847H1025.18V420.847ZM1025.18 424.362V425.362H1026.18V424.362H1025.18ZM1021.45 424.362V423.362H1020.45V424.362H1021.45ZM1021.92 437.917L1021.16 438.568L1021.17 438.582L1021.18 438.596L1021.92 437.917ZM1025.3 438.249H1026.3V436.99L1025.07 437.275L1025.3 438.249ZM1025.3 441.921L1025.56 442.884L1026.3 442.681V441.921H1025.3ZM1016.7 424.362H1017.7V423.362H1016.7V424.362ZM1013.23 424.362H1012.23V425.362H1013.23V424.362ZM1013.23 420.847V419.847H1012.23V420.847H1013.23ZM1016.7 420.847V421.847H1017.7V420.847H1016.7ZM1016.7 415.71V414.71H1015.7V415.71H1016.7ZM1020.45 415.71V420.847H1022.45V415.71H1020.45ZM1021.45 421.847H1025.18V419.847H1021.45V421.847ZM1024.18 420.847V424.362H1026.18V420.847H1024.18ZM1025.18 423.362H1021.45V425.362H1025.18V423.362ZM1020.45 424.362V436.159H1022.45V424.362H1020.45ZM1020.45 436.159C1020.45 437.055 1020.61 437.934 1021.16 438.568L1022.68 437.266C1022.6 437.171 1022.45 436.878 1022.45 436.159H1020.45ZM1021.18 438.596C1021.8 439.258 1022.72 439.444 1023.64 439.444V437.444C1022.91 437.444 1022.69 437.279 1022.65 437.237L1021.18 438.596ZM1023.64 439.444C1024.26 439.444 1024.89 439.37 1025.52 439.223L1025.07 437.275C1024.58 437.389 1024.1 437.444 1023.64 437.444V439.444ZM1024.3 438.249V441.921H1026.3V438.249H1024.3ZM1025.03 440.957C1024.03 441.235 1023.07 441.37 1022.17 441.37V443.37C1023.27 443.37 1024.41 443.205 1025.56 442.884L1025.03 440.957ZM1022.17 441.37C1020.53 441.37 1019.47 440.922 1018.81 440.19C1018.13 439.439 1017.7 438.215 1017.7 436.335H1015.7C1015.7 438.478 1016.19 440.271 1017.33 441.533C1018.49 442.813 1020.17 443.37 1022.17 443.37V441.37ZM1017.7 436.335V424.362H1015.7V436.335H1017.7ZM1016.7 423.362H1013.23V425.362H1016.7V423.362ZM1014.23 424.362V420.847H1012.23V424.362H1014.23ZM1013.23 421.847H1016.7V419.847H1013.23V421.847ZM1017.7 420.847V415.71H1015.7V420.847H1017.7ZM1016.7 416.71H1021.45V414.71H1016.7V416.71ZM1039.89 425.182L1039.72 426.169L1040.88 426.362L1040.89 425.187L1039.89 425.182ZM1033.56 427.526L1032.65 427.114L1032.56 427.31V427.526H1033.56ZM1033.56 441.979V442.979H1034.56V441.979H1033.56ZM1028.81 441.979H1027.81V442.979H1028.81V441.979ZM1028.81 420.847V419.847H1027.81V420.847H1028.81ZM1033.34 420.847L1034.34 420.797L1034.29 419.847H1033.34V420.847ZM1033.46 423.21L1032.46 423.259L1032.62 426.446L1034.31 423.739L1033.46 423.21ZM1039.91 420.729L1040.91 420.734L1040.91 420.061L1040.29 419.805L1039.91 420.729ZM1040.05 424.196C1039.37 424.082 1038.67 424.026 1037.95 424.026V426.026C1038.56 426.026 1039.15 426.074 1039.72 426.169L1040.05 424.196ZM1037.95 424.026C1036.74 424.026 1035.65 424.258 1034.73 424.782C1033.8 425.312 1033.1 426.105 1032.65 427.114L1034.47 427.939C1034.77 427.281 1035.18 426.824 1035.72 426.52C1036.26 426.211 1036.99 426.026 1037.95 426.026V424.026ZM1032.56 427.526V441.979H1034.56V427.526H1032.56ZM1033.56 440.979H1028.81V442.979H1033.56V440.979ZM1029.81 441.979V420.847H1027.81V441.979H1029.81ZM1028.81 421.847H1033.34V419.847H1028.81V421.847ZM1032.34 420.896L1032.46 423.259L1034.46 423.16L1034.34 420.797L1032.34 420.896ZM1034.31 423.739C1035.29 422.173 1036.57 421.456 1038.23 421.456V419.456C1035.82 419.456 1033.93 420.575 1032.61 422.68L1034.31 423.739ZM1038.23 421.456C1038.82 421.456 1039.24 421.538 1039.52 421.654L1040.29 419.805C1039.68 419.557 1038.98 419.456 1038.23 419.456V421.456ZM1038.91 420.725L1038.89 425.178L1040.89 425.187L1040.91 420.734L1038.91 420.725ZM1054.93 441.979L1054.04 442.438L1054.32 442.979H1054.93V441.979ZM1054.38 440.007L1055.36 439.838L1055.03 437.883L1053.66 439.315L1054.38 440.007ZM1043.64 440.554L1042.97 441.296L1043.64 440.554ZM1044.12 430.886L1044.71 431.698L1044.71 431.697L1044.12 430.886ZM1054.22 429.069V430.069H1055.22V429.069H1054.22ZM1053.3 425.065L1052.57 425.743L1052.58 425.75L1053.3 425.065ZM1047.85 424.89L1048.47 425.681L1048.48 425.673L1047.85 424.89ZM1046.82 426.94V427.94H1047.82V426.94H1046.82ZM1042.07 426.94H1041.07V427.94H1042.07V426.94ZM1043.23 423.698L1044.02 424.306L1044.02 424.301L1043.23 423.698ZM1046.35 421.315L1045.95 420.397L1045.95 420.399L1046.35 421.315ZM1056.7 422.331L1056.06 423.093L1056.06 423.096L1056.7 422.331ZM1058.97 427.565H1059.97V427.557L1059.97 427.548L1058.97 427.565ZM1059.77 441.647H1060.77V441.424L1060.67 441.221L1059.77 441.647ZM1059.77 441.979V442.979H1060.77V441.979H1059.77ZM1052.35 437.878L1051.87 437L1051.86 437.004L1052.35 437.878ZM1054.22 436.042L1055.1 436.519L1055.22 436.296V436.042H1054.22ZM1054.22 432.057H1055.22V431.057H1054.22V432.057ZM1047.27 437.761L1046.59 438.499L1046.6 438.507L1046.61 438.514L1047.27 437.761ZM1055.81 441.521C1055.68 441.26 1055.52 440.73 1055.36 439.838L1053.39 440.176C1053.55 441.106 1053.75 441.891 1054.04 442.438L1055.81 441.521ZM1053.66 439.315C1052.34 440.693 1050.75 441.37 1048.83 441.37V443.37C1051.29 443.37 1053.4 442.472 1055.1 440.699L1053.66 439.315ZM1048.83 441.37C1046.91 441.37 1045.43 440.828 1044.31 439.811L1042.97 441.296C1044.52 442.701 1046.51 443.37 1048.83 443.37V441.37ZM1044.31 439.811C1043.17 438.787 1042.62 437.558 1042.62 436.061H1040.62C1040.62 438.132 1041.42 439.898 1042.97 441.296L1044.31 439.811ZM1042.62 436.061C1042.62 434.094 1043.33 432.687 1044.71 431.698L1043.54 430.074C1041.58 431.48 1040.62 433.523 1040.62 436.061H1042.62ZM1044.71 431.697C1046.15 430.656 1048.31 430.069 1051.31 430.069V428.069C1048.09 428.069 1045.46 428.693 1043.54 430.074L1044.71 431.697ZM1051.31 430.069H1054.22V428.069H1051.31V430.069ZM1055.22 429.069V427.682H1053.22V429.069H1055.22ZM1055.22 427.682C1055.22 426.394 1054.86 425.256 1054.03 424.38L1052.58 425.75C1052.98 426.176 1053.22 426.783 1053.22 427.682H1055.22ZM1054.04 424.388C1053.17 423.449 1051.93 423.069 1050.51 423.069V425.069C1051.59 425.069 1052.21 425.354 1052.57 425.743L1054.04 424.388ZM1050.51 423.069C1049.26 423.069 1048.14 423.389 1047.23 424.106L1048.48 425.673C1048.95 425.296 1049.6 425.069 1050.51 425.069V423.069ZM1047.24 424.099C1046.32 424.811 1045.82 425.781 1045.82 426.94H1047.82C1047.82 426.433 1048.01 426.035 1048.47 425.68L1047.24 424.099ZM1046.82 425.94H1042.07V427.94H1046.82V425.94ZM1043.07 426.94C1043.07 426.021 1043.37 425.151 1044.02 424.306L1042.43 423.09C1041.54 424.25 1041.07 425.541 1041.07 426.94H1043.07ZM1044.02 424.301C1044.68 423.439 1045.57 422.745 1046.75 422.232L1045.95 420.399C1044.5 421.031 1043.31 421.926 1042.43 423.095L1044.02 424.301ZM1046.75 422.234C1047.94 421.721 1049.28 421.456 1050.78 421.456V419.456C1049.04 419.456 1047.42 419.764 1045.95 420.397L1046.75 422.234ZM1050.78 421.456C1053.09 421.456 1054.81 422.036 1056.06 423.093L1057.35 421.569C1055.65 420.126 1053.43 419.456 1050.78 419.456V421.456ZM1056.06 423.096C1057.27 424.115 1057.93 425.564 1057.97 427.583L1059.97 427.548C1059.92 425.061 1059.08 423.021 1057.35 421.565L1056.06 423.096ZM1057.97 427.565V437.097H1059.97V427.565H1057.97ZM1057.97 437.097C1057.97 439.076 1058.24 440.756 1058.86 442.074L1060.67 441.221C1060.23 440.273 1059.97 438.92 1059.97 437.097H1057.97ZM1058.77 441.647V441.979H1060.77V441.647H1058.77ZM1059.77 440.979H1054.93V442.979H1059.77V440.979ZM1049.71 439.561C1050.82 439.561 1051.86 439.29 1052.83 438.752L1051.86 437.004C1051.19 437.377 1050.48 437.561 1049.71 437.561V439.561ZM1052.83 438.755C1053.81 438.215 1054.58 437.471 1055.1 436.519L1053.34 435.565C1053.03 436.149 1052.55 436.629 1051.87 437L1052.83 438.755ZM1055.22 436.042V432.057H1053.22V436.042H1055.22ZM1054.22 431.057H1051.66V433.057H1054.22V431.057ZM1051.66 431.057C1049.82 431.057 1048.26 431.373 1047.13 432.153L1048.27 433.798C1048.91 433.354 1049.99 433.057 1051.66 433.057V431.057ZM1047.13 432.153C1045.96 432.96 1045.37 434.141 1045.37 435.573H1047.37C1047.37 434.766 1047.66 434.215 1048.27 433.798L1047.13 432.153ZM1045.37 435.573C1045.37 436.727 1045.76 437.738 1046.59 438.499L1047.94 437.022C1047.58 436.689 1047.37 436.242 1047.37 435.573H1045.37ZM1046.61 438.514C1047.45 439.244 1048.52 439.561 1049.71 439.561V437.561C1048.87 437.561 1048.31 437.345 1047.93 437.007L1046.61 438.514ZM1068.99 441.979V442.979H1069.99V441.979H1068.99ZM1064.24 441.979H1063.24V442.979H1064.24V441.979ZM1064.24 411.979V410.979H1063.24V411.979H1064.24ZM1068.99 411.979H1069.99V410.979H1068.99V411.979ZM1068.99 440.979H1064.24V442.979H1068.99V440.979ZM1065.24 441.979V411.979H1063.24V441.979H1065.24ZM1064.24 412.979H1068.99V410.979H1064.24V412.979ZM1067.99 411.979V441.979H1069.99V411.979H1067.99Z" fill="white"/>
<path d="M738.504 844.676C738.504 843.426 738.061 842.462 737.176 841.785C736.303 841.108 734.721 840.424 732.43 839.734C730.138 839.044 728.315 838.276 726.961 837.43C724.37 835.802 723.074 833.68 723.074 831.062C723.074 828.771 724.005 826.883 725.867 825.398C727.742 823.914 730.171 823.172 733.152 823.172C735.132 823.172 736.896 823.536 738.445 824.266C739.995 824.995 741.212 826.036 742.098 827.391C742.983 828.732 743.426 830.223 743.426 831.863H738.504C738.504 830.379 738.035 829.22 737.098 828.387C736.173 827.54 734.845 827.117 733.113 827.117C731.499 827.117 730.242 827.462 729.344 828.152C728.458 828.842 728.016 829.806 728.016 831.043C728.016 832.085 728.497 832.957 729.461 833.66C730.424 834.35 732.013 835.027 734.227 835.691C736.44 836.342 738.217 837.091 739.559 837.938C740.9 838.771 741.883 839.734 742.508 840.828C743.133 841.909 743.445 843.178 743.445 844.637C743.445 847.007 742.534 848.895 740.711 850.301C738.901 851.694 736.44 852.391 733.328 852.391C731.271 852.391 729.376 852.013 727.645 851.258C725.926 850.49 724.585 849.435 723.621 848.094C722.671 846.753 722.195 845.19 722.195 843.406H727.137C727.137 845.021 727.671 846.271 728.738 847.156C729.806 848.042 731.336 848.484 733.328 848.484C735.047 848.484 736.336 848.139 737.195 847.449C738.068 846.746 738.504 845.822 738.504 844.676ZM746.434 841.238C746.434 839.168 746.844 837.306 747.664 835.652C748.484 833.986 749.637 832.71 751.121 831.824C752.605 830.926 754.311 830.477 756.238 830.477C759.09 830.477 761.401 831.395 763.172 833.23C764.956 835.066 765.919 837.501 766.062 840.535L766.082 841.648C766.082 843.732 765.678 845.594 764.871 847.234C764.077 848.875 762.931 850.145 761.434 851.043C759.949 851.941 758.23 852.391 756.277 852.391C753.296 852.391 750.906 851.401 749.109 849.422C747.326 847.43 746.434 844.78 746.434 841.473V841.238ZM751.18 841.648C751.18 843.823 751.629 845.529 752.527 846.766C753.426 847.99 754.676 848.602 756.277 848.602C757.879 848.602 759.122 847.977 760.008 846.727C760.906 845.477 761.355 843.647 761.355 841.238C761.355 839.103 760.893 837.41 759.969 836.16C759.057 834.91 757.814 834.285 756.238 834.285C754.689 834.285 753.458 834.904 752.547 836.141C751.635 837.365 751.18 839.201 751.18 841.648ZM782.898 849.93C781.505 851.57 779.526 852.391 776.961 852.391C774.669 852.391 772.931 851.72 771.746 850.379C770.574 849.038 769.988 847.098 769.988 844.559V830.867H774.734V844.5C774.734 847.182 775.848 848.523 778.074 848.523C780.379 848.523 781.935 847.697 782.742 846.043V830.867H787.488V852H783.016L782.898 849.93ZM798.27 825.73V830.867H802V834.383H798.27V846.18C798.27 846.987 798.426 847.573 798.738 847.938C799.064 848.289 799.637 848.465 800.457 848.465C801.004 848.465 801.557 848.4 802.117 848.27V851.941C801.036 852.241 799.995 852.391 798.992 852.391C795.346 852.391 793.523 850.379 793.523 846.355V834.383H790.047V830.867H793.523V825.73H798.27ZM810.32 833.172C811.87 831.375 813.829 830.477 816.199 830.477C820.704 830.477 822.99 833.048 823.055 838.191V852H818.309V838.367C818.309 836.909 817.99 835.88 817.352 835.281C816.727 834.669 815.802 834.363 814.578 834.363C812.677 834.363 811.258 835.21 810.32 836.902V852H805.574V822H810.32V833.172ZM837.078 841.824H826.824V837.996H837.078V841.824ZM856.316 844.676C856.316 843.426 855.874 842.462 854.988 841.785C854.116 841.108 852.534 840.424 850.242 839.734C847.951 839.044 846.128 838.276 844.773 837.43C842.182 835.802 840.887 833.68 840.887 831.062C840.887 828.771 841.818 826.883 843.68 825.398C845.555 823.914 847.983 823.172 850.965 823.172C852.944 823.172 854.708 823.536 856.258 824.266C857.807 824.995 859.025 826.036 859.91 827.391C860.796 828.732 861.238 830.223 861.238 831.863H856.316C856.316 830.379 855.848 829.22 854.91 828.387C853.986 827.54 852.658 827.117 850.926 827.117C849.311 827.117 848.055 827.462 847.156 828.152C846.271 828.842 845.828 829.806 845.828 831.043C845.828 832.085 846.31 832.957 847.273 833.66C848.237 834.35 849.826 835.027 852.039 835.691C854.253 836.342 856.03 837.091 857.371 837.938C858.712 838.771 859.695 839.734 860.32 840.828C860.945 841.909 861.258 843.178 861.258 844.637C861.258 847.007 860.346 848.895 858.523 850.301C856.714 851.694 854.253 852.391 851.141 852.391C849.083 852.391 847.189 852.013 845.457 851.258C843.738 850.49 842.397 849.435 841.434 848.094C840.483 846.753 840.008 845.19 840.008 843.406H844.949C844.949 845.021 845.483 846.271 846.551 847.156C847.618 848.042 849.148 848.484 851.141 848.484C852.859 848.484 854.148 848.139 855.008 847.449C855.88 846.746 856.316 845.822 856.316 844.676ZM864.246 841.238C864.246 839.168 864.656 837.306 865.477 835.652C866.297 833.986 867.449 832.71 868.934 831.824C870.418 830.926 872.124 830.477 874.051 830.477C876.902 830.477 879.214 831.395 880.984 833.23C882.768 835.066 883.732 837.501 883.875 840.535L883.895 841.648C883.895 843.732 883.491 845.594 882.684 847.234C881.889 848.875 880.743 850.145 879.246 851.043C877.762 851.941 876.043 852.391 874.09 852.391C871.108 852.391 868.719 851.401 866.922 849.422C865.138 847.43 864.246 844.78 864.246 841.473V841.238ZM868.992 841.648C868.992 843.823 869.441 845.529 870.34 846.766C871.238 847.99 872.488 848.602 874.09 848.602C875.691 848.602 876.935 847.977 877.82 846.727C878.719 845.477 879.168 843.647 879.168 841.238C879.168 839.103 878.706 837.41 877.781 836.16C876.87 834.91 875.626 834.285 874.051 834.285C872.501 834.285 871.271 834.904 870.359 836.141C869.448 837.365 868.992 839.201 868.992 841.648ZM900.711 849.93C899.318 851.57 897.339 852.391 894.773 852.391C892.482 852.391 890.743 851.72 889.559 850.379C888.387 849.038 887.801 847.098 887.801 844.559V830.867H892.547V844.5C892.547 847.182 893.66 848.523 895.887 848.523C898.191 848.523 899.747 847.697 900.555 846.043V830.867H905.301V852H900.828L900.711 849.93ZM916.082 825.73V830.867H919.812V834.383H916.082V846.18C916.082 846.987 916.238 847.573 916.551 847.938C916.876 848.289 917.449 848.465 918.27 848.465C918.816 848.465 919.37 848.4 919.93 848.27V851.941C918.849 852.241 917.807 852.391 916.805 852.391C913.159 852.391 911.336 850.379 911.336 846.355V834.383H907.859V830.867H911.336V825.73H916.082ZM928.133 833.172C929.682 831.375 931.642 830.477 934.012 830.477C938.517 830.477 940.802 833.048 940.867 838.191V852H936.121V838.367C936.121 836.909 935.802 835.88 935.164 835.281C934.539 834.669 933.615 834.363 932.391 834.363C930.49 834.363 929.07 835.21 928.133 836.902V852H923.387V822H928.133V833.172Z" fill="white"/>
<path d="M208.334 347.735H201.561V321.625L193.475 324.133V318.625L207.608 313.563H208.334V347.735Z" fill="white"/>
<path d="M607.596 157.9H584.205V153.26L595.244 141.494C596.76 139.838 597.877 138.393 598.596 137.158C599.33 135.924 599.697 134.752 599.697 133.643C599.697 132.127 599.314 130.94 598.549 130.08C597.783 129.205 596.689 128.768 595.267 128.768C593.736 128.768 592.525 129.299 591.635 130.361C590.76 131.408 590.322 132.791 590.322 134.51H583.525C583.525 132.432 584.017 130.533 585.002 128.815C586.002 127.096 587.408 125.752 589.221 124.783C591.033 123.799 593.088 123.307 595.385 123.307C598.9 123.307 601.627 124.15 603.564 125.838C605.517 127.525 606.494 129.908 606.494 132.986C606.494 134.674 606.056 136.393 605.181 138.143C604.306 139.893 602.806 141.932 600.681 144.26L592.924 152.44H607.596V157.9Z" fill="white"/>
<path d="M945.453 327.672H949.062C950.781 327.672 952.054 327.242 952.882 326.383C953.71 325.524 954.124 324.383 954.124 322.961C954.124 321.586 953.71 320.516 952.882 319.75C952.07 318.985 950.945 318.602 949.507 318.602C948.21 318.602 947.124 318.961 946.249 319.68C945.374 320.383 944.937 321.305 944.937 322.445H938.163C938.163 320.664 938.64 319.07 939.593 317.664C940.562 316.242 941.906 315.133 943.624 314.336C945.359 313.539 947.265 313.141 949.343 313.141C952.953 313.141 955.781 314.008 957.828 315.742C959.874 317.461 960.898 319.836 960.898 322.867C960.898 324.43 960.421 325.867 959.468 327.18C958.515 328.492 957.265 329.5 955.718 330.203C957.64 330.891 959.07 331.922 960.007 333.297C960.96 334.672 961.437 336.297 961.437 338.172C961.437 341.203 960.328 343.633 958.109 345.461C955.906 347.289 952.984 348.203 949.343 348.203C945.937 348.203 943.148 347.305 940.976 345.508C938.82 343.711 937.742 341.336 937.742 338.383H944.515C944.515 339.664 944.992 340.711 945.945 341.524C946.913 342.336 948.101 342.742 949.507 342.742C951.117 342.742 952.374 342.32 953.281 341.477C954.203 340.617 954.663 339.485 954.663 338.078C954.663 334.672 952.788 332.969 949.038 332.969H945.453V327.672Z" fill="white"/>
<path d="M833.045 755.526H836.912V760.987H833.045V768.369H826.271V760.987H812.279L811.975 756.721L826.201 734.244H833.045V755.526ZM818.725 755.526H826.271V743.479L825.826 744.252L818.725 755.526Z" fill="white"/>
<path d="M292.134 767.899L294.103 750.556H313.228V756.204H299.657L298.814 763.54C300.423 762.681 302.134 762.251 303.946 762.251C307.196 762.251 309.743 763.259 311.587 765.274C313.431 767.29 314.353 770.11 314.353 773.735C314.353 775.938 313.884 777.915 312.946 779.665C312.024 781.399 310.696 782.751 308.962 783.72C307.228 784.673 305.181 785.149 302.821 785.149C300.759 785.149 298.845 784.735 297.079 783.907C295.314 783.063 293.915 781.884 292.884 780.368C291.868 778.853 291.329 777.126 291.267 775.188H297.97C298.11 776.61 298.603 777.72 299.446 778.517C300.306 779.298 301.423 779.688 302.798 779.688C304.329 779.688 305.509 779.142 306.337 778.048C307.165 776.938 307.579 775.376 307.579 773.36C307.579 771.423 307.103 769.938 306.149 768.907C305.196 767.876 303.845 767.36 302.095 767.36C300.485 767.36 299.181 767.782 298.181 768.626L297.524 769.235L292.134 767.899Z" fill="white"/>
<defs>
<linearGradient id="paint0_linear" x1="1272.74" y1="215.145" x2="739.461" y2="575.007" gradientUnits="userSpaceOnUse">
<stop stop-color="white"/>
<stop offset="1" stop-color="white" stop-opacity="0"/>
</linearGradient>
<linearGradient id="paint1_linear" x1="224.326" y1="69.6058" x2="221.485" y2="653.761" gradientUnits="userSpaceOnUse">
<stop stop-color="white"/>
<stop offset="0.797768" stop-color="white" stop-opacity="0"/>
</linearGradient>
<linearGradient id="paint2_linear" x1="589.338" y1="-94.917" x2="582.981" y2="497.117" gradientUnits="userSpaceOnUse">
<stop stop-color="white"/>
<stop offset="0.754463" stop-color="white" stop-opacity="0"/>
</linearGradient>
<linearGradient id="paint3_linear" x1="-342.504" y1="1225.92" x2="557.516" y2="692.607" gradientUnits="userSpaceOnUse">
<stop stop-color="white"/>
<stop offset="1" stop-color="white" stop-opacity="0"/>
</linearGradient>
<linearGradient id="paint4_linear" x1="1102.55" y1="1120.02" x2="601.019" y2="673.166" gradientUnits="userSpaceOnUse">
<stop stop-color="white"/>
<stop stop-color="white" stop-opacity="0.69069"/>
<stop offset="1" stop-color="white" stop-opacity="0"/>
</linearGradient>
</defs>
</svg>
