<svg width="698" height="716" viewBox="0 0 698 716" fill="none" xmlns="http://www.w3.org/2000/svg">
<mask id="path-1-inside-1" fill="white">
<path fill-rule="evenodd" clip-rule="evenodd" d="M405.888 549.458L445.868 588.668L445.777 532.669C546.729 478.367 591.703 355.153 546.33 247.347C498.126 132.814 366.201 79.0435 251.668 127.248C137.134 175.452 83.3639 307.377 131.568 421.91C176.941 529.716 296.487 583.687 405.888 549.458Z"/>
</mask>
<path fill-rule="evenodd" clip-rule="evenodd" d="M405.888 549.458L445.868 588.668L445.777 532.669C546.729 478.367 591.703 355.153 546.33 247.347C498.126 132.814 366.201 79.0435 251.668 127.248C137.134 175.452 83.3639 307.377 131.568 421.91C176.941 529.716 296.487 583.687 405.888 549.458Z" fill="#007531"/>
<path fill-rule="evenodd" clip-rule="evenodd" d="M405.888 549.458L445.868 588.668L445.777 532.669C546.729 478.367 591.703 355.153 546.33 247.347C498.126 132.814 366.201 79.0435 251.668 127.248C137.134 175.452 83.3639 307.377 131.568 421.91C176.941 529.716 296.487 583.687 405.888 549.458Z" fill="url(#paint0_linear)"/>
<path d="M445.868 588.668L445.168 589.382L446.872 591.054L446.868 588.667L445.868 588.668ZM405.888 549.458L406.588 548.744L406.16 548.324L405.589 548.503L405.888 549.458ZM445.777 532.669L445.303 531.788L444.776 532.072L444.777 532.671L445.777 532.669ZM446.568 587.954L406.588 548.744L405.187 550.171L445.168 589.382L446.568 587.954ZM444.777 532.671L444.868 588.67L446.868 588.667L446.777 532.667L444.777 532.671ZM545.409 247.735C590.579 355.061 545.806 477.728 445.303 531.788L446.251 533.55C547.653 479.006 592.827 355.245 547.252 246.96L545.409 247.735ZM252.056 128.169C366.08 80.1795 497.419 133.711 545.409 247.735L547.252 246.96C498.834 131.917 366.322 77.9076 251.28 126.326L252.056 128.169ZM132.49 421.522C84.4998 307.498 138.031 176.159 252.056 128.169L251.28 126.326C136.237 174.744 82.2279 307.256 130.646 422.298L132.49 421.522ZM405.589 548.503C296.676 582.581 177.66 528.848 132.49 421.522L130.646 422.298C176.221 530.583 296.298 584.794 406.186 550.412L405.589 548.503Z" fill="#007531" mask="url(#path-1-inside-1)"/>
<path d="M248.521 216.547L243.58 216.594L230.712 196.541L230.905 216.715L225.964 216.763L225.692 188.327L230.633 188.279L243.541 208.411L243.347 188.158L248.249 188.111L248.521 216.547ZM252.91 205.743C252.89 203.672 253.283 201.807 254.087 200.145C254.892 198.471 256.032 197.184 257.507 196.284C258.983 195.372 260.685 194.906 262.612 194.888C265.463 194.86 267.783 195.756 269.571 197.575C271.373 199.394 272.359 201.819 272.532 204.852L272.562 205.965C272.582 208.048 272.196 209.914 271.404 211.562C270.626 213.21 269.492 214.491 268.003 215.403C266.528 216.316 264.813 216.782 262.86 216.8C259.879 216.829 257.48 215.862 255.664 213.9C253.861 211.925 252.944 209.284 252.913 205.977L252.91 205.743ZM257.66 206.107C257.681 208.282 258.146 209.983 259.057 211.211C259.967 212.427 261.223 213.027 262.824 213.011C264.425 212.996 265.663 212.359 266.536 211.101C267.423 209.842 267.854 208.009 267.831 205.6C267.811 203.465 267.333 201.776 266.396 200.535C265.473 199.294 264.223 198.681 262.648 198.696C261.099 198.711 259.874 199.341 258.974 200.587C258.075 201.819 257.637 203.66 257.66 206.107ZM287.577 199.376C286.952 199.277 286.307 199.231 285.642 199.238C283.468 199.259 282.011 200.106 281.272 201.78L281.41 216.232L276.664 216.278L276.462 195.146L280.993 195.102L281.133 197.464C282.261 195.618 283.841 194.685 285.872 194.665C286.549 194.659 287.11 194.744 287.554 194.922L287.577 199.376ZM297.408 189.808L297.457 194.945L301.188 194.909L301.221 198.425L297.491 198.46L297.604 210.257C297.612 211.064 297.774 211.648 298.089 212.01C298.418 212.358 298.993 212.529 299.813 212.521C300.36 212.516 300.913 212.445 301.471 212.31L301.507 215.981C300.429 216.291 299.389 216.451 298.386 216.46C294.74 216.495 292.898 214.501 292.86 210.478L292.745 198.506L289.269 198.539L289.235 195.024L292.712 194.99L292.662 189.854L297.408 189.808ZM309.53 197.134C311.062 195.323 313.013 194.405 315.383 194.383C319.888 194.34 322.197 196.889 322.312 202.032L322.444 215.84L317.698 215.885L317.567 202.253C317.553 200.795 317.225 199.769 316.581 199.176C315.95 198.57 315.023 198.273 313.799 198.285C311.898 198.303 310.487 199.163 309.565 200.864L309.71 215.961L304.964 216.007L304.677 186.008L309.423 185.963L309.53 197.134ZM354.176 202.84L342.497 202.952L342.581 211.701L356.232 211.571L356.27 215.516L337.677 215.694L337.405 187.258L355.861 187.081L355.9 191.065L342.385 191.195L342.46 199.046L354.139 198.934L354.176 202.84ZM372.461 215.361C372.249 214.959 372.06 214.304 371.895 213.394C370.4 214.984 368.559 215.789 366.371 215.81C364.249 215.83 362.511 215.241 361.159 214.043C359.806 212.845 359.121 211.354 359.104 209.571C359.083 207.318 359.899 205.585 361.554 204.371C363.222 203.144 365.612 202.516 368.724 202.486L371.634 202.458L371.621 201.072C371.611 199.978 371.296 199.108 370.678 198.463C370.06 197.805 369.126 197.482 367.876 197.494C366.795 197.504 365.912 197.786 365.227 198.34C364.542 198.88 364.204 199.567 364.212 200.4L359.466 200.446C359.455 199.287 359.829 198.203 360.587 197.193C361.346 196.17 362.38 195.365 363.689 194.78C365.012 194.194 366.487 193.894 368.115 193.878C370.588 193.855 372.567 194.461 374.05 195.697C375.533 196.919 376.305 198.657 376.366 200.909L376.457 210.44C376.475 212.341 376.757 213.855 377.301 214.983L377.304 215.315L372.461 215.361ZM367.214 211.993C368.151 211.984 369.028 211.748 369.844 211.284C370.673 210.821 371.292 210.203 371.701 209.431L371.663 205.446L369.104 205.471C367.347 205.488 366.028 205.806 365.149 206.427C364.269 207.047 363.835 207.917 363.845 209.037C363.854 209.948 364.16 210.675 364.765 211.216C365.382 211.744 366.198 212.003 367.214 211.993ZM393.264 209.42C393.256 208.573 392.899 207.932 392.191 207.496C391.497 207.06 390.341 206.681 388.723 206.357C387.105 206.034 385.754 205.618 384.668 205.107C382.287 203.984 381.087 202.335 381.066 200.161C381.048 198.338 381.802 196.807 383.327 195.569C384.851 194.33 386.799 193.699 389.168 193.677C391.694 193.653 393.738 194.258 395.299 195.493C396.874 196.728 397.67 198.342 397.689 200.334L392.943 200.379C392.935 199.468 392.589 198.716 391.906 198.123C391.223 197.518 390.322 197.221 389.202 197.231C388.161 197.241 387.31 197.49 386.651 197.978C386.004 198.466 385.685 199.114 385.693 199.921C385.7 200.65 386.011 201.214 386.627 201.612C387.243 202.009 388.484 202.408 390.349 202.807C392.215 203.192 393.678 203.667 394.738 204.229C395.811 204.779 396.605 205.449 397.121 206.238C397.649 207.027 397.919 207.988 397.93 209.121C397.948 211.022 397.175 212.572 395.611 213.772C394.047 214.959 391.988 215.565 389.436 215.589C387.705 215.606 386.159 215.308 384.799 214.696C383.439 214.084 382.376 213.235 381.61 212.148C380.845 211.062 380.456 209.887 380.444 208.624L385.053 208.58C385.129 209.699 385.56 210.561 386.347 211.166C387.134 211.757 388.172 212.047 389.461 212.034C390.711 212.022 391.659 211.779 392.306 211.304C392.952 210.816 393.272 210.188 393.264 209.42ZM407.833 188.752L407.882 193.888L411.612 193.853L411.646 197.368L407.916 197.404L408.029 209.2C408.036 210.007 408.198 210.592 408.514 210.953C408.843 211.302 409.418 211.472 410.238 211.464C410.785 211.459 411.337 211.389 411.896 211.253L411.931 214.925C410.853 215.235 409.813 215.394 408.811 215.404C405.165 215.439 403.323 213.445 403.284 209.421L403.17 197.449L399.693 197.483L399.66 193.967L403.136 193.934L403.087 188.797L407.833 188.752Z" fill="white"/>
<path d="M248.521 216.547L248.531 217.547L249.531 217.537L249.521 216.537L248.521 216.547ZM243.58 216.594L242.738 217.134L243.037 217.599L243.59 217.594L243.58 216.594ZM230.712 196.541L231.553 196.001L229.679 193.079L229.712 196.55L230.712 196.541ZM230.905 216.715L230.914 217.715L231.914 217.706L231.905 216.706L230.905 216.715ZM225.964 216.763L224.964 216.772L224.973 217.772L225.973 217.763L225.964 216.763ZM225.692 188.327L225.682 187.327L224.682 187.336L224.692 188.336L225.692 188.327ZM230.633 188.279L231.475 187.739L231.176 187.274L230.623 187.279L230.633 188.279ZM243.541 208.411L242.699 208.95L244.574 211.875L244.541 208.401L243.541 208.411ZM243.347 188.158L243.337 187.158L242.338 187.167L242.347 188.167L243.347 188.158ZM248.249 188.111L249.249 188.101L249.24 187.101L248.24 187.111L248.249 188.111ZM248.512 215.547L243.57 215.594L243.59 217.594L248.531 217.547L248.512 215.547ZM244.422 216.054L231.553 196.001L229.87 197.081L242.738 217.134L244.422 216.054ZM229.712 196.55L229.905 216.725L231.905 216.706L231.712 196.531L229.712 196.55ZM230.895 215.715L225.954 215.763L225.973 217.763L230.914 217.715L230.895 215.715ZM226.964 216.753L226.692 188.317L224.692 188.336L224.964 216.772L226.964 216.753ZM225.701 189.326L230.642 189.279L230.623 187.279L225.682 187.327L225.701 189.326ZM229.791 188.819L242.699 208.95L244.383 207.871L231.475 187.739L229.791 188.819ZM244.541 208.401L244.347 188.148L242.347 188.167L242.541 208.42L244.541 208.401ZM243.357 189.158L248.259 189.111L248.24 187.111L243.337 187.158L243.357 189.158ZM247.249 188.12L247.521 216.556L249.521 216.537L249.249 188.101L247.249 188.12ZM254.087 200.145L254.987 200.581L254.989 200.578L254.087 200.145ZM257.507 196.284L258.028 197.138L258.033 197.135L257.507 196.284ZM269.571 197.575L268.858 198.276L268.861 198.279L269.571 197.575ZM272.532 204.852L273.531 204.825L273.531 204.81L273.53 204.795L272.532 204.852ZM272.562 205.965L273.562 205.955L273.562 205.947L273.561 205.938L272.562 205.965ZM271.404 211.562L270.503 211.129L270.5 211.135L271.404 211.562ZM268.003 215.403L267.481 214.551L267.477 214.553L268.003 215.403ZM255.664 213.9L254.926 214.574L254.93 214.58L255.664 213.9ZM259.057 211.211L258.253 211.807L258.256 211.811L259.057 211.211ZM266.536 211.101L265.719 210.525L265.715 210.531L266.536 211.101ZM266.396 200.535L265.594 201.132L265.598 201.138L266.396 200.535ZM258.974 200.587L259.782 201.176L259.785 201.172L258.974 200.587ZM253.91 205.733C253.892 203.798 254.258 202.088 254.987 200.581L253.187 199.709C252.308 201.526 251.889 203.547 251.91 205.752L253.91 205.733ZM254.989 200.578C255.716 199.064 256.73 197.93 258.028 197.138L256.987 195.43C255.334 196.438 254.067 197.877 253.186 199.712L254.989 200.578ZM258.033 197.135C259.337 196.329 260.856 195.905 262.621 195.888L262.602 193.888C260.513 193.908 258.629 194.415 256.982 195.434L258.033 197.135ZM262.621 195.888C265.236 195.863 267.283 196.675 268.858 198.276L270.284 196.874C268.282 194.838 265.69 193.858 262.602 193.888L262.621 195.888ZM268.861 198.279C270.459 199.893 271.372 202.072 271.533 204.909L273.53 204.795C273.347 201.567 272.286 198.895 270.282 196.871L268.861 198.279ZM271.532 204.879L271.562 205.992L273.561 205.938L273.531 204.825L271.532 204.879ZM271.562 205.974C271.58 207.926 271.219 209.637 270.503 211.129L272.306 211.995C273.172 210.191 273.583 208.17 273.562 205.955L271.562 205.974ZM270.5 211.135C269.801 212.615 268.796 213.744 267.481 214.551L268.526 216.256C270.188 215.237 271.451 213.805 272.308 211.989L270.5 211.135ZM267.477 214.553C266.176 215.358 264.645 215.783 262.851 215.8L262.87 217.8C264.982 217.78 266.88 217.274 268.529 216.254L267.477 214.553ZM262.851 215.8C260.115 215.827 257.999 214.951 256.398 213.221L254.93 214.58C256.961 216.774 259.642 217.831 262.87 217.8L262.851 215.8ZM256.403 213.226C254.803 211.473 253.942 209.089 253.912 205.967L251.913 205.987C251.946 209.479 252.92 212.377 254.926 214.574L256.403 213.226ZM253.912 205.967L253.91 205.733L251.91 205.752L251.913 205.987L253.912 205.967ZM256.66 206.117C256.682 208.416 257.174 210.351 258.253 211.807L259.86 210.616C259.119 209.616 258.68 208.147 258.66 206.098L256.66 206.117ZM258.256 211.811C259.369 213.297 260.934 214.03 262.834 214.011L262.814 212.012C261.511 212.024 260.564 211.557 259.857 210.612L258.256 211.811ZM262.834 214.011C264.742 213.993 266.29 213.21 267.358 211.671L265.715 210.531C265.036 211.509 264.109 211.999 262.814 212.012L262.834 214.011ZM267.354 211.677C268.412 210.175 268.855 208.099 268.831 205.59L266.831 205.609C266.854 207.919 266.434 209.51 265.719 210.525L267.354 211.677ZM268.831 205.59C268.81 203.319 268.3 201.398 267.194 199.933L265.598 201.138C266.365 202.154 266.812 203.61 266.831 205.609L268.831 205.59ZM267.199 199.938C266.08 198.435 264.526 197.678 262.638 197.696L262.658 199.696C263.92 199.684 264.865 200.153 265.594 201.132L267.199 199.938ZM262.638 197.696C260.774 197.714 259.251 198.496 258.164 200.001L259.785 201.172C260.497 200.187 261.423 199.708 262.658 199.696L262.638 197.696ZM258.167 199.997C257.084 201.481 256.636 203.574 256.66 206.117L258.66 206.098C258.638 203.745 259.066 202.158 259.782 201.176L258.167 199.997ZM287.577 199.376L287.423 200.363L288.584 200.546L288.577 199.37L287.577 199.376ZM281.272 201.78L280.357 201.376L280.27 201.573L280.272 201.789L281.272 201.78ZM281.41 216.232L281.42 217.232L282.42 217.223L282.41 216.223L281.41 216.232ZM276.664 216.278L275.665 216.287L275.674 217.287L276.674 217.278L276.664 216.278ZM276.462 195.146L276.453 194.146L275.453 194.155L275.462 195.155L276.462 195.146ZM280.993 195.102L281.992 195.043L281.935 194.093L280.984 194.102L280.993 195.102ZM281.133 197.464L280.135 197.524L280.323 200.708L281.986 197.986L281.133 197.464ZM287.554 194.922L288.554 194.917L288.551 194.244L287.926 193.994L287.554 194.922ZM287.732 198.388C287.05 198.281 286.349 198.231 285.633 198.238L285.652 200.238C286.264 200.232 286.854 200.274 287.423 200.363L287.732 198.388ZM285.633 198.238C284.422 198.249 283.332 198.492 282.416 199.024C281.49 199.564 280.805 200.363 280.357 201.376L282.187 202.184C282.479 201.522 282.892 201.062 283.422 200.753C283.963 200.439 284.689 200.247 285.652 200.238L285.633 198.238ZM280.272 201.789L280.41 216.242L282.41 216.223L282.272 201.77L280.272 201.789ZM281.401 215.232L276.655 215.278L276.674 217.278L281.42 217.232L281.401 215.232ZM277.664 216.268L277.462 195.136L275.462 195.155L275.665 216.287L277.664 216.268ZM276.472 196.146L281.003 196.102L280.984 194.102L276.453 194.146L276.472 196.146ZM279.995 195.162L280.135 197.524L282.131 197.405L281.992 195.043L279.995 195.162ZM281.986 197.986C282.949 196.41 284.222 195.681 285.882 195.665L285.863 193.665C283.46 193.688 281.574 194.825 280.28 196.943L281.986 197.986ZM285.882 195.665C286.478 195.659 286.898 195.737 287.183 195.851L287.926 193.994C287.321 193.752 286.62 193.658 285.863 193.665L285.882 195.665ZM286.554 194.928L286.578 199.381L288.577 199.37L288.554 194.917L286.554 194.928ZM297.408 189.808L298.408 189.799L298.399 188.799L297.399 188.808L297.408 189.808ZM297.457 194.945L296.457 194.954L296.467 195.954L297.467 195.945L297.457 194.945ZM301.188 194.909L302.188 194.9L302.178 193.9L301.178 193.909L301.188 194.909ZM301.221 198.425L301.231 199.425L302.231 199.415L302.221 198.415L301.221 198.425ZM297.491 198.46L297.481 197.46L296.482 197.47L296.491 198.47L297.491 198.46ZM298.089 212.01L297.336 212.668L297.349 212.682L297.362 212.696L298.089 212.01ZM301.471 212.31L302.471 212.3L302.459 211.041L301.236 211.338L301.471 212.31ZM301.507 215.981L301.783 216.942L302.514 216.732L302.506 215.972L301.507 215.981ZM292.745 198.506L293.745 198.496L293.736 197.496L292.736 197.506L292.745 198.506ZM289.269 198.539L288.269 198.549L288.278 199.549L289.278 199.539L289.269 198.539ZM289.235 195.024L289.226 194.024L288.226 194.033L288.235 195.033L289.235 195.024ZM292.712 194.99L292.721 195.99L293.721 195.981L293.712 194.981L292.712 194.99ZM292.662 189.854L292.653 188.854L291.653 188.863L291.662 189.863L292.662 189.854ZM296.408 189.818L296.457 194.954L298.457 194.935L298.408 189.799L296.408 189.818ZM297.467 195.945L301.197 195.909L301.178 193.909L297.448 193.945L297.467 195.945ZM300.188 194.919L300.221 198.434L302.221 198.415L302.188 194.9L300.188 194.919ZM301.212 197.425L297.481 197.46L297.501 199.46L301.231 199.425L301.212 197.425ZM296.491 198.47L296.604 210.266L298.604 210.247L298.491 198.451L296.491 198.47ZM296.604 210.266C296.613 211.162 296.787 212.039 297.336 212.668L298.842 211.352C298.76 211.258 298.611 210.966 298.604 210.247L296.604 210.266ZM297.362 212.696C297.981 213.352 298.911 213.53 299.823 213.521L299.804 211.521C299.074 211.528 298.855 211.365 298.817 211.324L297.362 212.696ZM299.823 213.521C300.45 213.515 301.078 213.434 301.707 213.281L301.236 211.338C300.747 211.456 300.27 211.516 299.804 211.521L299.823 213.521ZM300.471 212.319L300.507 215.991L302.506 215.972L302.471 212.3L300.471 212.319ZM301.23 215.02C300.229 215.308 299.279 215.452 298.376 215.46L298.396 217.46C299.498 217.45 300.628 217.274 301.783 216.942L301.23 215.02ZM298.376 215.46C296.735 215.476 295.675 215.038 295.005 214.312C294.318 213.568 293.878 212.349 293.86 210.468L291.86 210.487C291.88 212.63 292.381 214.419 293.536 215.67C294.708 216.938 296.392 217.48 298.396 217.46L298.376 215.46ZM293.86 210.468L293.745 198.496L291.745 198.515L291.86 210.487L293.86 210.468ZM292.736 197.506L289.259 197.539L289.278 199.539L292.755 199.506L292.736 197.506ZM290.269 198.529L290.235 195.014L288.235 195.033L288.269 198.549L290.269 198.529ZM289.245 196.024L292.721 195.99L292.702 193.99L289.226 194.024L289.245 196.024ZM293.712 194.981L293.662 189.844L291.662 189.863L291.712 195L293.712 194.981ZM292.672 190.854L297.418 190.808L297.399 188.808L292.653 188.854L292.672 190.854ZM309.53 197.134L308.53 197.144L308.556 199.835L310.293 197.78L309.53 197.134ZM322.312 202.032L323.312 202.022L323.311 202.009L322.312 202.032ZM322.444 215.84L322.453 216.84L323.453 216.83L323.444 215.83L322.444 215.84ZM317.698 215.885L316.698 215.895L316.707 216.895L317.707 216.885L317.698 215.885ZM316.581 199.176L315.888 199.897L315.896 199.905L315.903 199.912L316.581 199.176ZM309.565 200.864L308.686 200.388L308.563 200.616L308.565 200.874L309.565 200.864ZM309.71 215.961L309.719 216.961L310.719 216.952L310.71 215.952L309.71 215.961ZM304.964 216.007L303.964 216.016L303.974 217.016L304.974 217.007L304.964 216.007ZM304.677 186.008L304.667 185.008L303.667 185.018L303.677 186.018L304.677 186.008ZM309.423 185.963L310.423 185.953L310.413 184.953L309.413 184.963L309.423 185.963ZM310.293 197.78C311.638 196.19 313.314 195.403 315.392 195.383L315.373 193.383C312.712 193.408 310.486 194.455 308.766 196.488L310.293 197.78ZM315.392 195.383C317.453 195.363 318.844 195.932 319.752 196.934C320.682 197.96 321.257 199.608 321.312 202.054L323.311 202.009C323.251 199.313 322.614 197.114 321.235 195.591C319.833 194.044 317.817 193.359 315.373 193.383L315.392 195.383ZM321.312 202.041L321.444 215.849L323.444 215.83L323.311 202.022L321.312 202.041ZM322.434 214.84L317.688 214.885L317.707 216.885L322.453 216.84L322.434 214.84ZM318.698 215.875L318.567 202.243L316.567 202.262L316.698 215.895L318.698 215.875ZM318.567 202.243C318.552 200.685 318.206 199.313 317.258 198.441L315.903 199.912C316.243 200.225 316.554 200.905 316.567 202.262L318.567 202.243ZM317.274 198.455C316.39 197.606 315.169 197.272 313.789 197.285L313.808 199.285C314.876 199.275 315.51 199.535 315.888 199.897L317.274 198.455ZM313.789 197.285C312.686 197.295 311.676 197.552 310.794 198.089C309.914 198.626 309.216 199.409 308.686 200.388L310.445 201.341C310.836 200.618 311.305 200.121 311.835 199.797C312.365 199.475 313.011 199.292 313.808 199.285L313.789 197.285ZM308.565 200.874L308.71 215.971L310.71 215.952L310.565 200.855L308.565 200.874ZM309.7 214.962L304.954 215.007L304.974 217.007L309.719 216.961L309.7 214.962ZM305.964 215.997L305.677 185.999L303.677 186.018L303.964 216.016L305.964 215.997ZM304.687 187.008L309.432 186.963L309.413 184.963L304.667 185.008L304.687 187.008ZM308.423 185.972L308.53 197.144L310.53 197.125L310.423 185.953L308.423 185.972ZM354.176 202.84L354.186 203.84L355.186 203.831L355.176 202.831L354.176 202.84ZM342.497 202.952L342.487 201.952L341.488 201.961L341.497 202.961L342.497 202.952ZM342.581 211.701L341.581 211.711L341.59 212.711L342.59 212.701L342.581 211.701ZM356.232 211.571L357.232 211.561L357.223 210.561L356.223 210.571L356.232 211.571ZM356.27 215.516L356.28 216.516L357.28 216.506L357.27 215.506L356.27 215.516ZM337.677 215.694L336.677 215.703L336.687 216.703L337.687 216.694L337.677 215.694ZM337.405 187.258L337.396 186.258L336.396 186.267L336.405 187.267L337.405 187.258ZM355.861 187.081L356.861 187.072L356.852 186.072L355.852 186.081L355.861 187.081ZM355.9 191.065L355.909 192.065L356.909 192.056L356.9 191.056L355.9 191.065ZM342.385 191.195L342.375 190.195L341.375 190.204L341.385 191.204L342.385 191.195ZM342.46 199.046L341.46 199.055L341.469 200.055L342.469 200.046L342.46 199.046ZM354.139 198.934L355.139 198.924L355.129 197.925L354.129 197.934L354.139 198.934ZM354.167 201.84L342.487 201.952L342.507 203.952L354.186 203.84L354.167 201.84ZM341.497 202.961L341.581 211.711L343.581 211.692L343.497 202.942L341.497 202.961ZM342.59 212.701L356.242 212.571L356.223 210.571L342.571 210.702L342.59 212.701ZM355.233 211.58L355.27 215.526L357.27 215.506L357.232 211.561L355.233 211.58ZM356.261 214.516L337.668 214.694L337.687 216.694L356.28 216.516L356.261 214.516ZM338.677 215.684L338.405 187.248L336.405 187.267L336.677 215.703L338.677 215.684ZM337.415 188.258L355.871 188.081L355.852 186.081L337.396 186.258L337.415 188.258ZM354.861 187.091L354.9 191.075L356.9 191.056L356.861 187.072L354.861 187.091ZM355.89 190.065L342.375 190.195L342.394 192.195L355.909 192.065L355.89 190.065ZM341.385 191.204L341.46 199.055L343.46 199.036L343.384 191.185L341.385 191.204ZM342.469 200.046L354.148 199.934L354.129 197.934L342.45 198.046L342.469 200.046ZM353.139 198.944L353.176 202.85L355.176 202.831L355.139 198.924L353.139 198.944ZM372.461 215.361L371.577 215.828L371.861 216.367L372.47 216.361L372.461 215.361ZM371.895 213.394L372.879 213.215L372.525 211.264L371.167 212.709L371.895 213.394ZM361.159 214.043L360.496 214.792L361.159 214.043ZM361.554 204.371L362.146 205.178L362.147 205.177L361.554 204.371ZM371.634 202.458L371.644 203.458L372.644 203.449L372.634 202.449L371.634 202.458ZM370.678 198.463L369.949 199.148L369.956 199.155L370.678 198.463ZM365.227 198.34L365.847 199.125L365.856 199.117L365.227 198.34ZM364.212 200.4L364.221 201.4L365.221 201.391L365.212 200.391L364.212 200.4ZM359.466 200.446L358.466 200.455L358.476 201.455L359.476 201.446L359.466 200.446ZM360.587 197.193L361.387 197.793L361.391 197.788L360.587 197.193ZM363.689 194.78L363.284 193.866L363.281 193.867L363.689 194.78ZM374.05 195.697L373.41 196.465L373.414 196.468L374.05 195.697ZM376.366 200.909L377.366 200.899L377.366 200.891L377.365 200.882L376.366 200.909ZM377.301 214.983L378.301 214.973L378.299 214.749L378.202 214.548L377.301 214.983ZM377.304 215.315L377.314 216.315L378.314 216.305L378.304 215.305L377.304 215.315ZM369.844 211.284L369.355 210.412L369.35 210.415L369.844 211.284ZM371.701 209.431L372.585 209.899L372.703 209.675L372.701 209.421L371.701 209.431ZM371.663 205.446L372.663 205.437L372.653 204.437L371.653 204.446L371.663 205.446ZM364.765 211.216L364.097 211.961L364.106 211.968L364.114 211.976L364.765 211.216ZM373.345 214.894C373.208 214.635 373.041 214.106 372.879 213.215L370.911 213.572C371.08 214.501 371.289 215.284 371.577 215.828L373.345 214.894ZM371.167 212.709C369.859 214.1 368.277 214.792 366.362 214.81L366.381 216.81C368.84 216.786 370.941 215.868 372.624 214.079L371.167 212.709ZM366.362 214.81C364.441 214.828 362.957 214.301 361.822 213.295L360.496 214.792C362.065 216.182 364.057 216.832 366.381 216.81L366.362 214.81ZM361.822 213.295C360.678 212.282 360.118 211.058 360.104 209.561L358.104 209.58C358.124 211.651 358.934 213.409 360.496 214.792L361.822 213.295ZM360.104 209.561C360.085 207.594 360.778 206.18 362.146 205.178L360.963 203.565C359.02 204.99 358.08 207.042 358.104 209.58L360.104 209.561ZM362.147 205.177C363.58 204.123 365.732 203.515 368.734 203.486L368.715 201.486C365.493 201.517 362.865 202.166 360.962 203.566L362.147 205.177ZM368.734 203.486L371.644 203.458L371.625 201.458L368.715 201.486L368.734 203.486ZM372.634 202.449L372.621 201.062L370.621 201.081L370.634 202.468L372.634 202.449ZM372.621 201.062C372.609 199.774 372.232 198.64 371.4 197.771L369.956 199.155C370.36 199.577 370.612 200.182 370.621 201.081L372.621 201.062ZM371.407 197.779C370.533 196.848 369.285 196.48 367.866 196.494L367.885 198.494C368.967 198.484 369.587 198.762 369.949 199.148L371.407 197.779ZM367.866 196.494C366.613 196.506 365.496 196.837 364.599 197.562L365.856 199.117C366.328 198.736 366.977 198.503 367.885 198.494L367.866 196.494ZM364.608 197.555C363.693 198.276 363.201 199.25 363.212 200.41L365.212 200.391C365.207 199.883 365.392 199.484 365.847 199.125L364.608 197.555ZM364.202 199.4L359.456 199.446L359.476 201.446L364.221 201.4L364.202 199.4ZM360.466 200.436C360.457 199.517 360.748 198.644 361.387 197.793L359.788 196.592C358.91 197.761 358.453 199.056 358.466 200.455L360.466 200.436ZM361.391 197.788C362.034 196.92 362.925 196.217 364.097 195.693L363.281 193.867C361.835 194.514 360.657 195.419 359.784 196.597L361.391 197.788ZM364.094 195.694C365.278 195.17 366.616 194.893 368.124 194.878L368.105 192.878C366.358 192.895 364.746 193.218 363.284 193.866L364.094 195.694ZM368.124 194.878C370.429 194.856 372.155 195.419 373.41 196.465L374.69 194.928C372.978 193.502 370.748 192.853 368.105 192.878L368.124 194.878ZM373.414 196.468C374.635 197.475 375.312 198.918 375.366 200.936L377.365 200.882C377.298 198.396 376.432 196.364 374.686 194.925L373.414 196.468ZM375.366 200.919L375.457 210.449L377.457 210.43L377.366 200.899L375.366 200.919ZM375.457 210.449C375.476 212.428 375.767 214.107 376.401 215.418L378.202 214.548C377.746 213.604 377.474 212.253 377.457 210.43L375.457 210.449ZM376.301 214.992L376.304 215.324L378.304 215.305L378.301 214.973L376.301 214.992ZM377.295 214.315L372.451 214.361L372.47 216.361L377.314 216.315L377.295 214.315ZM367.223 212.993C368.331 212.983 369.374 212.701 370.338 212.154L369.35 210.415C368.681 210.795 367.971 210.986 367.204 210.993L367.223 212.993ZM370.332 212.157C371.314 211.608 372.077 210.856 372.585 209.899L370.817 208.962C370.506 209.55 370.032 210.033 369.355 210.412L370.332 212.157ZM372.701 209.421L372.663 205.437L370.663 205.456L370.701 209.44L372.701 209.421ZM371.653 204.446L369.095 204.471L369.114 206.471L371.672 206.446L371.653 204.446ZM369.095 204.471C367.251 204.489 365.693 204.819 364.572 205.61L365.725 207.244C366.363 206.794 367.442 206.487 369.114 206.471L369.095 204.471ZM364.572 205.61C363.412 206.428 362.832 207.614 362.845 209.047L364.845 209.027C364.838 208.22 365.126 207.666 365.725 207.244L364.572 205.61ZM362.845 209.047C362.856 210.2 363.257 211.208 364.097 211.961L365.432 210.471C365.064 210.141 364.852 209.696 364.845 209.027L362.845 209.047ZM364.114 211.976C364.958 212.697 366.029 213.005 367.223 212.993L367.204 210.993C366.367 211.001 365.806 210.79 365.415 210.456L364.114 211.976ZM392.191 207.496L391.659 208.343L391.667 208.347L392.191 207.496ZM384.668 205.107L384.241 206.012L384.243 206.012L384.668 205.107ZM383.327 195.569L383.957 196.345L383.327 195.569ZM395.299 195.493L394.679 196.278L394.682 196.28L395.299 195.493ZM397.689 200.334L397.699 201.334L398.699 201.324L398.689 200.324L397.689 200.334ZM392.943 200.379L391.944 200.389L391.953 201.389L392.953 201.379L392.943 200.379ZM391.906 198.123L391.243 198.872L391.251 198.879L391.906 198.123ZM386.651 197.978L386.056 197.175L386.048 197.18L386.651 197.978ZM390.349 202.807L390.14 203.784L390.147 203.786L390.349 202.807ZM394.738 204.229L394.269 205.113L394.276 205.116L394.282 205.119L394.738 204.229ZM397.121 206.238L396.283 206.785L396.29 206.794L397.121 206.238ZM395.611 213.772L396.215 214.569L396.219 214.566L395.611 213.772ZM380.444 208.624L380.434 207.624L379.434 207.634L379.444 208.634L380.444 208.624ZM385.053 208.58L386.051 208.513L385.987 207.571L385.043 207.58L385.053 208.58ZM386.347 211.166L385.738 211.959L385.746 211.965L386.347 211.166ZM392.306 211.304L392.898 212.11L392.908 212.102L392.306 211.304ZM394.264 209.41C394.253 208.228 393.722 207.265 392.716 206.645L391.667 208.347C392.075 208.599 392.26 208.919 392.264 209.429L394.264 209.41ZM392.723 206.649C391.867 206.112 390.56 205.705 388.919 205.377L388.527 207.338C390.122 207.656 391.127 208.009 391.659 208.343L392.723 206.649ZM388.919 205.377C387.353 205.064 386.084 204.668 385.094 204.202L384.243 206.012C385.423 206.567 386.858 207.005 388.527 207.338L388.919 205.377ZM385.095 204.203C384.013 203.692 383.267 203.095 382.79 202.44C382.321 201.795 382.074 201.045 382.066 200.151L380.066 200.17C380.078 201.451 380.442 202.613 381.174 203.617C381.897 204.611 382.942 205.399 384.241 206.012L385.095 204.203ZM382.066 200.151C382.052 198.659 382.648 197.409 383.957 196.345L382.696 194.793C380.956 196.206 380.045 198.017 380.066 200.17L382.066 200.151ZM383.957 196.345C385.272 195.277 386.986 194.698 389.178 194.677L389.159 192.677C386.611 192.701 384.431 193.383 382.696 194.793L383.957 196.345ZM389.178 194.677C391.538 194.654 393.34 195.219 394.679 196.278L395.92 194.709C394.135 193.298 391.85 192.651 389.159 192.677L389.178 194.677ZM394.682 196.28C396.019 197.329 396.673 198.657 396.689 200.343L398.689 200.324C398.667 198.027 397.729 196.128 395.916 194.706L394.682 196.28ZM397.68 199.334L392.934 199.379L392.953 201.379L397.699 201.334L397.68 199.334ZM393.943 200.37C393.932 199.175 393.463 198.15 392.562 197.368L391.251 198.879C391.715 199.282 391.938 199.761 391.944 200.389L393.943 200.37ZM392.57 197.375C391.662 196.57 390.501 196.219 389.193 196.231L389.212 198.231C390.143 198.222 390.785 198.466 391.243 198.872L392.57 197.375ZM389.193 196.231C387.997 196.243 386.926 196.531 386.056 197.175L387.246 198.782C387.695 198.45 388.324 198.24 389.212 198.231L389.193 196.231ZM386.048 197.18C385.15 197.859 384.682 198.805 384.693 199.931L386.693 199.912C386.688 199.423 386.859 199.074 387.253 198.777L386.048 197.18ZM384.693 199.931C384.703 200.998 385.188 201.873 386.084 202.452L387.169 200.772C386.834 200.555 386.696 200.303 386.693 199.912L384.693 199.931ZM386.084 202.452C386.874 202.962 388.288 203.388 390.14 203.784L390.558 201.829C388.679 201.427 387.611 201.057 387.169 200.772L386.084 202.452ZM390.147 203.786C391.967 204.162 393.327 204.613 394.269 205.113L395.207 203.346C394.029 202.721 392.463 202.222 390.552 201.827L390.147 203.786ZM394.282 205.119C395.243 205.612 395.886 206.176 396.283 206.785L397.958 205.691C397.325 204.721 396.38 203.947 395.194 203.339L394.282 205.119ZM396.29 206.794C396.69 207.393 396.92 208.155 396.93 209.131L398.93 209.111C398.917 207.822 398.608 206.662 397.952 205.682L396.29 206.794ZM396.93 209.131C396.945 210.704 396.328 211.962 395.002 212.979L396.219 214.566C398.022 213.183 398.951 211.34 398.93 209.111L396.93 209.131ZM395.006 212.976C393.658 213.998 391.828 214.566 389.427 214.589L389.446 216.589C392.149 216.563 394.435 215.92 396.215 214.569L395.006 212.976ZM389.427 214.589C387.817 214.605 386.418 214.328 385.209 213.784L384.388 215.608C385.9 216.288 387.593 216.607 389.446 216.589L389.427 214.589ZM385.209 213.784C383.992 213.236 383.078 212.495 382.428 211.572L380.793 212.724C381.674 213.975 382.885 214.932 384.388 215.608L385.209 213.784ZM382.428 211.572C381.772 210.643 381.454 209.664 381.444 208.615L379.444 208.634C379.458 210.111 379.917 211.481 380.793 212.724L382.428 211.572ZM380.453 209.624L385.062 209.58L385.043 207.58L380.434 207.624L380.453 209.624ZM384.055 208.648C384.148 210.012 384.692 211.155 385.738 211.959L386.956 210.372C386.428 209.967 386.11 209.387 386.051 208.513L384.055 208.648ZM385.746 211.965C386.757 212.724 388.03 213.048 389.471 213.034L389.452 211.034C388.314 211.045 387.511 210.79 386.948 210.366L385.746 211.965ZM389.471 213.034C390.821 213.021 392.012 212.761 392.898 212.11L391.714 210.498C391.307 210.797 390.601 211.023 389.452 211.034L389.471 213.034ZM392.908 212.102C393.792 211.435 394.275 210.515 394.264 209.41L392.264 209.429C392.269 209.861 392.113 210.197 391.703 210.506L392.908 212.102ZM407.833 188.752L408.833 188.742L408.823 187.742L407.823 187.752L407.833 188.752ZM407.882 193.888L406.882 193.898L406.892 194.898L407.892 194.888L407.882 193.888ZM411.612 193.853L412.612 193.843L412.603 192.843L411.603 192.853L411.612 193.853ZM411.646 197.368L411.656 198.368L412.656 198.359L412.646 197.359L411.646 197.368ZM407.916 197.404L407.906 196.404L406.906 196.413L406.916 197.413L407.916 197.404ZM408.514 210.953L407.761 211.611L407.774 211.626L407.787 211.64L408.514 210.953ZM411.896 211.253L412.896 211.244L412.884 209.984L411.66 210.281L411.896 211.253ZM411.931 214.925L412.207 215.886L412.938 215.676L412.931 214.915L411.931 214.925ZM403.17 197.449L404.17 197.44L404.16 196.44L403.16 196.449L403.17 197.449ZM399.693 197.483L398.693 197.492L398.703 198.492L399.703 198.482L399.693 197.483ZM399.66 193.967L399.65 192.967L398.65 192.977L398.66 193.977L399.66 193.967ZM403.136 193.934L403.146 194.934L404.146 194.924L404.136 193.924L403.136 193.934ZM403.087 188.797L403.077 187.797L402.078 187.807L402.087 188.807L403.087 188.797ZM406.833 188.761L406.882 193.898L408.882 193.879L408.833 188.742L406.833 188.761ZM407.892 194.888L411.622 194.853L411.603 192.853L407.872 192.888L407.892 194.888ZM410.612 193.862L410.646 197.378L412.646 197.359L412.612 193.843L410.612 193.862ZM411.636 196.368L407.906 196.404L407.925 198.404L411.656 198.368L411.636 196.368ZM406.916 197.413L407.029 209.21L409.029 209.191L408.916 197.394L406.916 197.413ZM407.029 209.21C407.037 210.106 407.212 210.983 407.761 211.611L409.267 210.295C409.185 210.201 409.035 209.909 409.029 209.191L407.029 209.21ZM407.787 211.64C408.406 212.296 409.336 212.473 410.247 212.464L410.228 210.464C409.499 210.471 409.28 210.308 409.241 210.267L407.787 211.64ZM410.247 212.464C410.874 212.458 411.503 212.378 412.132 212.225L411.66 210.281C411.172 210.4 410.695 210.46 410.228 210.464L410.247 212.464ZM410.896 211.263L410.931 214.934L412.931 214.915L412.896 211.244L410.896 211.263ZM411.655 213.964C410.654 214.252 409.703 214.395 408.801 214.404L408.82 216.404C409.923 216.393 411.053 216.218 412.207 215.886L411.655 213.964ZM408.801 214.404C407.159 214.42 406.099 213.981 405.429 213.256C404.742 212.512 404.302 211.292 404.284 209.412L402.284 209.431C402.305 211.574 402.805 213.363 403.96 214.613C405.132 215.882 406.816 216.423 408.82 216.404L408.801 214.404ZM404.284 209.412L404.17 197.44L402.17 197.459L402.284 209.431L404.284 209.412ZM403.16 196.449L399.684 196.483L399.703 198.482L403.179 198.449L403.16 196.449ZM400.693 197.473L400.66 193.958L398.66 193.977L398.693 197.492L400.693 197.473ZM399.669 194.967L403.146 194.934L403.127 192.934L399.65 192.967L399.669 194.967ZM404.136 193.924L404.087 188.788L402.087 188.807L402.136 193.943L404.136 193.924ZM403.097 189.797L407.842 189.752L407.823 187.752L403.077 187.797L403.097 189.797Z" fill="white"/>
<rect x="205.524" y="175.771" width="243" height="78" transform="rotate(-0.548169 205.524 175.771)" stroke="white" stroke-width="2"/>
<defs>
<linearGradient id="paint0_linear" x1="487.168" y1="678.144" x2="254.404" y2="133.749" gradientUnits="userSpaceOnUse">
<stop stop-color="white"/>
<stop offset="0.369792" stop-color="white" stop-opacity="0"/>
</linearGradient>
</defs>
</svg>
