<svg width="20" height="20" viewBox="0 0 20 20" fill="none" xmlns="http://www.w3.org/2000/svg">
<path d="M17.9443 15.4146V16.6653C17.9443 17.3287 17.6868 17.965 17.2284 18.4341C16.77 18.9032 16.1482 19.1667 15.4999 19.1667H3.27769C2.62939 19.1667 2.00763 18.9032 1.54921 18.4341C1.09079 17.965 0.833252 17.3287 0.833252 16.6653V7.91033C0.833252 7.24691 1.09079 6.61066 1.54921 6.14155C2.00763 5.67245 2.62939 5.40891 3.27769 5.40891H15.4999C16.1482 5.40891 16.77 5.67245 17.2284 6.14155C17.6868 6.61066 17.9443 7.24691 17.9443 7.91033V9.16104" stroke="#515D6B" stroke-width="1.5" stroke-linecap="round" stroke-linejoin="round"/>
<path d="M15.4998 5.40889L13.6021 1.52502C13.5303 1.37804 13.431 1.24698 13.3097 1.13931C13.1884 1.03164 13.0476 0.949483 12.8953 0.897526C12.7429 0.845569 12.5821 0.824833 12.422 0.836502C12.2618 0.848171 12.1055 0.892017 11.9619 0.965534L3.27759 5.40889" stroke="#515D6B" stroke-width="1.5" stroke-linecap="round" stroke-linejoin="round"/>
<path d="M17.9444 15.4146C18.2685 15.4146 18.5794 15.2829 18.8086 15.0483C19.0378 14.8137 19.1666 14.4956 19.1666 14.1639V10.4118C19.1666 10.0801 19.0378 9.76195 18.8086 9.5274C18.5794 9.29284 18.2685 9.16107 17.9444 9.16107H14.8888C14.0784 9.16107 13.3012 9.4905 12.7282 10.0769C12.1552 10.6633 11.8333 11.4586 11.8333 12.2879C11.8333 13.1171 12.1552 13.9124 12.7282 14.4988C13.3012 15.0852 14.0784 15.4146 14.8888 15.4146H17.9444Z" stroke="#515D6B" stroke-width="1.5" stroke-linecap="round" stroke-linejoin="round"/>
<path d="M14.8888 11.9753C14.9492 11.9753 15.0083 11.9936 15.0586 12.0279C15.1088 12.0623 15.148 12.1111 15.1711 12.1683C15.1942 12.2254 15.2003 12.2883 15.1885 12.3489C15.1767 12.4096 15.1476 12.4653 15.1049 12.509C15.0621 12.5528 15.0077 12.5825 14.9484 12.5946C14.8891 12.6067 14.8277 12.6005 14.7719 12.5768C14.716 12.5531 14.6683 12.5131 14.6347 12.4616C14.6012 12.4102 14.5833 12.3498 14.5833 12.2879C14.5833 12.205 14.6154 12.1255 14.6727 12.0668C14.73 12.0082 14.8078 11.9753 14.8888 11.9753" stroke="#515D6B" stroke-width="1.5" stroke-linecap="round" stroke-linejoin="round"/>
</svg>
