<svg width="1096" height="760" viewBox="0 0 1096 760" fill="none" xmlns="http://www.w3.org/2000/svg">
<g opacity="0.04" clip-path="url(#clip0)">
<path d="M0 0V368H368V0H0ZM187 360C185.022 360 183.089 359.414 181.444 358.315C179.8 357.216 178.518 355.654 177.761 353.827C177.004 352 176.806 349.989 177.192 348.049C177.578 346.109 178.53 344.327 179.929 342.929C181.327 341.53 183.109 340.578 185.049 340.192C186.989 339.806 189 340.004 190.827 340.761C192.654 341.518 194.216 342.8 195.315 344.444C196.414 346.089 197 348.022 197 350C197 352.652 195.946 355.196 194.071 357.071C192.196 358.946 189.652 360 187 360V360Z" fill="#27AE60"/>
<path d="M1096 430C1096 593.89 976.51 729.89 819.9 755.62C802.082 758.541 784.056 760.006 766 760C722.661 760.009 679.745 751.48 639.703 734.899C599.662 718.318 563.279 694.011 532.634 663.366C501.989 632.721 477.682 596.338 461.101 556.297C444.52 516.255 435.991 473.339 436 430C436 247.75 583.75 100 766 100C834.879 99.8946 902.048 121.444 958.01 161.6C1041.56 221.46 1096 319.37 1096 430Z" fill="#27AE60"/>
<path d="M995.068 109.894L1023.73 100.958L1026.2 75.7163C1026.2 75.7163 956.493 49.3846 934.207 95.9606C926.338 112.406 916.421 122.282 906.882 128.178C893.744 136.3 877.55 137.253 863.041 131.954C814.73 114.31 803.353 164.485 803.353 164.485C803.353 164.485 807.529 171.628 837.309 173.384C852.129 174.258 864.256 185.411 872.7 196.395C890.78 219.916 927.92 213.118 937.039 184.887C937.186 184.432 937.331 183.972 937.473 183.505C951.719 136.838 1016.57 173.994 1016.57 173.994L1020.71 131.726L995.068 109.894Z" fill="#2F2E41"/>
<path d="M799.784 224.125C819.171 224.125 834.887 208.409 834.887 189.022C834.887 169.636 819.171 153.919 799.784 153.919C780.397 153.919 764.681 169.636 764.681 189.022C764.681 208.409 780.397 224.125 799.784 224.125Z" fill="#2F2E41"/>
<path d="M782.232 376.237C833.93 376.237 875.84 334.328 875.84 282.63C875.84 230.932 833.93 189.022 782.232 189.022C730.534 189.022 688.625 230.932 688.625 282.63C688.625 334.328 730.534 376.237 782.232 376.237Z" fill="#2F2E41"/>
<path d="M779.307 381.113C814.85 381.113 843.662 352.3 843.662 316.757C843.662 281.215 814.85 252.402 779.307 252.402C743.765 252.402 714.952 281.215 714.952 316.757C714.952 352.3 743.765 381.113 779.307 381.113Z" fill="#A0616A"/>
<path d="M753.955 365.511L765.656 427.916L824.161 420.116C824.161 420.116 814.41 371.362 820.26 357.711L753.955 365.511Z" fill="#A0616A"/>
<path d="M465.332 607.331C465.332 607.331 399.027 568.328 393.176 595.63C387.326 622.932 459.482 634.633 459.482 634.633L465.332 607.331Z" fill="#A0616A"/>
<path d="M869.014 229C869.014 229 822.211 193.898 802.709 207.549C783.207 221.2 855.363 266.053 863.164 262.153C870.965 258.253 869.014 229 869.014 229Z" fill="#A0616A"/>
<path d="M824.161 386.963L753.955 398.664V429.867C753.955 429.867 687.65 451.318 687.65 461.069C687.65 470.82 670.098 507.873 670.098 507.873C670.098 507.873 627.195 539.075 662.298 576.128C662.298 576.128 675.949 597.58 666.198 599.53C656.447 601.48 634.996 607.331 644.746 615.131C654.497 622.932 800.759 675.586 812.46 671.686C824.161 667.786 913.868 529.325 913.868 494.222C913.868 459.119 876.815 408.415 876.815 408.415L833.912 402.564L824.161 386.963Z" fill="#D0CDE1"/>
<path d="M693.5 459.119C693.5 459.119 666.198 455.219 656.447 488.371C646.696 521.524 613.544 628.783 613.544 628.783C613.544 628.783 494.584 626.832 463.382 597.58L449.731 642.434C449.731 642.434 629.145 706.789 644.746 695.088C660.348 683.387 728.603 494.222 728.603 494.222L693.5 459.119Z" fill="#D0CDE1"/>
<path d="M870.965 414.265L876.815 408.415C876.815 408.415 950.921 328.458 948.971 308.957C948.971 308.957 909.968 260.203 861.214 273.854C861.214 273.854 839.762 221.2 872.915 223.15C906.067 225.1 1028.93 217.3 1026.98 273.854C1025.03 330.409 908.018 503.973 908.018 503.973L870.965 414.265Z" fill="#D0CDE1"/>
<path d="M819.9 755.62C802.082 758.541 784.056 760.006 766 760C708.628 760.09 652.234 745.15 602.43 716.67L614.02 693.2L650.91 618.44L652.55 615.13L679.42 623.23L814.41 663.89L814.78 670.12L819.9 755.62Z" fill="#2F2E41"/>
<path d="M843.157 287.759C850.443 266.347 829.072 239.707 795.425 228.258C761.777 216.809 728.593 224.886 721.308 246.298C714.022 267.71 735.392 294.35 769.04 305.799C802.688 317.248 835.871 309.171 843.157 287.759Z" fill="#2F2E41"/>
<path d="M188.597 352.556C202.15 327.725 234.61 312.002 261.163 326.174C273.115 332.553 282.616 343.837 285.633 357.175C289.137 372.668 281.758 387.44 274.144 400.457C270.012 407.521 265.485 414.442 262.065 421.894C258.523 429.611 255.993 438.531 258.659 446.925C261.061 454.489 267.077 459.99 273.667 464.033C280.941 468.324 288.677 471.778 296.728 474.328C313.302 479.84 330.783 482.101 348.213 480.989C356.876 480.4 365.466 479.012 373.873 476.841C382.817 474.561 391.592 471.671 400.551 469.446C415.507 465.731 432.56 463.884 446.742 471.349C460.519 478.601 466.685 493.768 468.593 508.523C472.115 535.769 461.312 564.043 441.807 583.125C432.449 592.279 420.673 599.842 407.846 602.936C396.655 605.636 382.285 605.463 373.38 597.097C363.441 587.76 365.775 572.788 373.672 562.936C383.748 550.368 400.816 547.349 416.047 547.043C433.373 546.695 450.683 549.275 467.999 547.671C476.451 547.013 484.744 545.013 492.567 541.745C499.444 538.72 505.717 534.475 511.082 529.216C521.772 518.83 528.978 504.993 532.567 490.607C536.884 473.306 535.943 455.125 532.592 437.749C530.806 428.788 528.506 419.938 525.704 411.241C524.547 407.572 518.753 409.139 519.919 412.836C530.239 445.56 535.992 483.399 516.054 513.782C507.802 526.667 494.948 535.92 480.11 539.655C462.853 543.944 444.745 541.824 427.202 541.186C410.52 540.579 392.205 541.233 377.902 550.949C366.171 558.919 357.967 574.076 361.512 588.387C364.931 602.187 378.193 609.184 391.457 610.265C405.374 611.399 419.069 606.727 430.757 599.424C455.07 584.23 471.236 557.511 474.619 529.182C476.382 514.421 474.589 498.521 467.894 485.123C464.367 477.87 458.877 471.751 452.048 467.462C445.237 463.287 437.371 461.232 429.472 460.504C411.524 458.851 394.28 465.013 377.255 469.727C368.557 472.25 359.642 473.952 350.626 474.81C341.876 475.535 333.076 475.391 324.355 474.382C315.7 473.361 307.171 471.468 298.897 468.732C290.79 466.226 283.027 462.716 275.79 458.285C269.405 454.202 263.883 448.355 263.569 440.39C263.228 431.749 267.585 423.666 271.729 416.381C279.916 401.99 290.026 387.914 292.164 371.067C294.034 356.33 288.104 341.805 277.865 331.294C272.733 325.959 266.555 321.741 259.717 318.904C252.879 316.068 245.53 314.674 238.128 314.809C222.935 315.244 208.388 321.851 197.213 331.998C191.672 337.034 187.009 342.958 183.417 349.528C181.566 352.919 186.745 355.95 188.597 352.556V352.556Z" fill="#3F3D56"/>
<path d="M199 34C189.479 34.0004 180.218 37.1034 172.618 42.8391C165.019 48.5747 159.496 56.6305 156.885 65.7864C154.274 74.9423 154.718 84.6996 158.15 93.5806C161.581 102.462 167.814 109.982 175.902 115.004C176.03 115.083 176.165 115.151 176.293 115.229C177.91 110.491 180.968 106.377 185.04 103.463C189.112 100.55 193.993 98.9841 199 98.9841C204.007 98.9841 208.888 100.55 212.96 103.463C217.032 106.377 220.091 110.491 221.707 115.229C221.835 115.151 221.97 115.083 222.098 115.004C230.186 109.982 236.419 102.462 239.85 93.5806C243.282 84.6996 243.726 74.9423 241.115 65.7864C238.504 56.6305 232.981 48.5747 225.382 42.8391C217.782 37.1034 208.521 34.0004 199 34V34ZM199 94.746C195.927 94.746 192.922 93.8346 190.367 92.1271C187.811 90.4196 185.819 87.9926 184.643 85.1531C183.467 82.3136 183.159 79.1891 183.759 76.1747C184.358 73.1603 185.838 70.3913 188.012 68.2181C190.185 66.0448 192.954 64.5648 195.968 63.9652C198.983 63.3656 202.107 63.6733 204.947 64.8495C207.786 66.0257 210.213 68.0174 211.921 70.5729C213.628 73.1284 214.54 76.1329 214.54 79.2063C214.54 83.3277 212.902 87.2803 209.988 90.1945C207.074 93.1088 203.121 94.746 199 94.746Z" fill="#F2F2F2"/>
<path d="M124 164C128.418 164 132 160.418 132 156C132 151.582 128.418 148 124 148C119.582 148 116 151.582 116 156C116 160.418 119.582 164 124 164Z" fill="#F2F2F2"/>
<path d="M124 200C128.418 200 132 196.418 132 192C132 187.582 128.418 184 124 184C119.582 184 116 187.582 116 192C116 196.418 119.582 200 124 200Z" fill="#F2F2F2"/>
<path d="M124 236C128.418 236 132 232.418 132 228C132 223.582 128.418 220 124 220C119.582 220 116 223.582 116 228C116 232.418 119.582 236 124 236Z" fill="#F2F2F2"/>
<path d="M124 272C128.418 272 132 268.418 132 264C132 259.582 128.418 256 124 256C119.582 256 116 259.582 116 264C116 268.418 119.582 272 124 272Z" fill="#F2F2F2"/>
<path d="M244 220H154C149.582 220 146 223.582 146 228V228C146 232.418 149.582 236 154 236H244C248.418 236 252 232.418 252 228C252 223.582 248.418 220 244 220Z" fill="#F2F2F2"/>
<path d="M244 256H154C149.582 256 146 259.582 146 264C146 268.418 149.582 272 154 272H244C248.418 272 252 268.418 252 264C252 259.582 248.418 256 244 256Z" fill="#F2F2F2"/>
<path d="M244 184H154C149.582 184 146 187.582 146 192V192C146 196.418 149.582 200 154 200H244C248.418 200 252 196.418 252 192C252 187.582 248.418 184 244 184Z" fill="#F2F2F2"/>
<path d="M244 148H154C149.582 148 146 151.582 146 156V156C146 160.418 149.582 164 154 164H244C248.418 164 252 160.418 252 156C252 151.582 248.418 148 244 148Z" fill="#F2F2F2"/>
</g>
<defs>
<clipPath id="clip0">
<rect width="1096" height="760" fill="white"/>
</clipPath>
</defs>
</svg>
