<svg width="19" height="24" viewBox="0 0 19 24" fill="none" xmlns="http://www.w3.org/2000/svg">
<path d="M18 2.57143H13.3157L11.856 0.381429C11.6966 0.143143 11.4291 0 11.1429 0H7.71429C7.428 0 7.16057 0.143143 7.00114 0.381429L5.54143 2.57143H0.857143C0.384 2.57143 0 2.95457 0 3.42857V23.1429C0 23.6169 0.384 24 0.857143 24H18C18.4731 24 18.8571 23.6169 18.8571 23.1429V3.42857C18.8571 2.95457 18.4731 2.57143 18 2.57143ZM8.17286 1.71429H10.6843L12 3.68829V5.14286H6.85714V3.68829L8.17286 1.71429ZM17.1429 22.2857H1.71429V4.28571H5.14286V6C5.14286 6.474 5.52686 6.85714 6 6.85714H12.8571C13.3303 6.85714 13.7143 6.474 13.7143 6V4.28571H17.1429V22.2857ZM8.82 4.03714C8.66571 3.87429 8.57143 3.65143 8.57143 3.42857C8.57143 3.19629 8.66571 2.982 8.82 2.82C9.13714 2.50286 9.72 2.50286 10.0371 2.82C10.1914 2.982 10.2857 3.20571 10.2857 3.42857C10.2857 3.65143 10.1914 3.87429 10.0371 4.03714C9.87428 4.19143 9.65143 4.28571 9.42857 4.28571C9.20571 4.28571 8.98286 4.19143 8.82 4.03714ZM2.57143 10.2857C2.57143 9.81171 2.95543 9.42857 3.42857 9.42857H4.28571V8.57143C4.28571 8.09743 4.66971 7.71429 5.14286 7.71429C5.616 7.71429 6 8.09743 6 8.57143V9.42857H6.85714C7.33029 9.42857 7.71429 9.81171 7.71429 10.2857C7.71429 10.7597 7.33029 11.1429 6.85714 11.1429H6V12C6 12.474 5.616 12.8571 5.14286 12.8571C4.66971 12.8571 4.28571 12.474 4.28571 12V11.1429H3.42857C2.95543 11.1429 2.57143 10.7597 2.57143 10.2857ZM15.4286 11.1429C15.9017 11.1429 16.2857 11.526 16.2857 12C16.2857 12.474 15.9017 12.8571 15.4286 12.8571H9.42857C8.95543 12.8571 8.57143 12.474 8.57143 12C8.57143 11.526 8.95543 11.1429 9.42857 11.1429H15.4286ZM16.2857 15.4286C16.2857 15.9026 15.9017 16.2857 15.4286 16.2857H3.42857C2.95543 16.2857 2.57143 15.9026 2.57143 15.4286C2.57143 14.9546 2.95543 14.5714 3.42857 14.5714H15.4286C15.9017 14.5714 16.2857 14.9546 16.2857 15.4286ZM16.2857 18.8571C16.2857 19.3311 15.9017 19.7143 15.4286 19.7143H3.42857C2.95543 19.7143 2.57143 19.3311 2.57143 18.8571C2.57143 18.3831 2.95543 18 3.42857 18H15.4286C15.9017 18 16.2857 18.3831 16.2857 18.8571Z" fill="#212B36"/>
</svg>
