<svg width="24" height="16" viewBox="0 0 24 16" fill="none" xmlns="http://www.w3.org/2000/svg">
<path d="M23.6354 1.51192C23.2904 0.771611 22.3824 -0.0261978 20.9996 0.000659882H2.99945C1.60905 -0.0261978 0.701053 0.792961 0.360512 1.54153C-0.00482095 2.28597 0.00275463 2.93847 0 3.0008V12.0012C0.00275463 12.0611 -0.00482095 12.7174 0.360512 13.4605C0.695544 14.1956 1.58081 15.0013 2.93575 15.0013H2.9991H20.9992C21.0622 14.9958 21.7165 15.0055 22.4582 14.6395C23.2057 14.2999 24.0259 13.3913 23.9994 12.0012V2.95466C23.9946 2.88992 24.0042 2.24431 23.6354 1.51192ZM1.52469 2.7732C1.56222 2.53389 1.66965 2.18198 1.87521 1.94405C2.08594 1.70784 2.3435 1.51226 2.99945 1.50159H20.9996C21.8649 1.52845 22.0828 1.82905 22.2998 2.19438C22.3945 2.37928 22.4478 2.58313 22.473 2.73635C22.4995 2.88889 22.4912 2.955 22.4981 2.955V3.00149H1.50024C1.50024 3.00114 1.49783 2.93055 1.52469 2.7732ZM22.4995 12.0012C22.473 12.8586 22.1651 13.0772 21.7884 13.2986C21.598 13.394 21.3873 13.4495 21.2272 13.4729C21.0698 13.5011 20.9996 13.4946 20.9996 13.4997H2.99945C2.14035 13.4729 1.92342 13.1668 1.69995 12.7883C1.60457 12.5979 1.5512 12.3862 1.52606 12.2267C1.49783 12.0708 1.50506 12.0016 1.50024 12.0016V6.00128H22.4995V12.0012Z" fill="#515D6B"/>
</svg>
